<svg width="58" height="58" viewBox="0 0 58 58" fill="none" xmlns="http://www.w3.org/2000/svg">
<circle opacity="0.05" cx="29" cy="29" r="29" fill="#2E00FF"/>
<path opacity="0.4" d="M38 39.75H20C19.59 39.75 19.25 39.41 19.25 39C19.25 38.59 19.59 38.25 20 38.25H38C38.41 38.25 38.75 38.59 38.75 39C38.75 39.41 38.41 39.75 38 39.75Z" fill="#2E00FF"/>
<path d="M22.6 25.38H21C20.45 25.38 20 25.83 20 26.38V35C20 35.55 20.45 36 21 36H22.6C23.15 36 23.6 35.55 23.6 35V26.38C23.6 25.82 23.15 25.38 22.6 25.38Z" fill="#2E00FF"/>
<path d="M29.8002 22.1899H28.2002C27.6502 22.1899 27.2002 22.6399 27.2002 23.1899V34.9999C27.2002 35.5499 27.6502 35.9999 28.2002 35.9999H29.8002C30.3502 35.9999 30.8002 35.5499 30.8002 34.9999V23.1899C30.8002 22.6399 30.3502 22.1899 29.8002 22.1899Z" fill="#2E00FF"/>
<path d="M37.0004 19H35.4004C34.8504 19 34.4004 19.45 34.4004 20V35C34.4004 35.55 34.8504 36 35.4004 36H37.0004C37.5504 36 38.0004 35.55 38.0004 35V20C38.0004 19.45 37.5504 19 37.0004 19Z" fill="#2E00FF"/>
</svg>
