<svg width="38" height="32" viewBox="0 0 38 32" fill="none" xmlns="http://www.w3.org/2000/svg">
<g opacity="0.1">
<path d="M12.357 0.374406C13.2861 -0.235734 14.1222 -0.100147 14.8655 0.781167C15.6707 1.66248 15.7017 2.5438 14.9584 3.42511C13.1002 5.45891 11.7995 7.08595 11.0562 8.30623C10.313 9.52651 9.84841 10.8485 9.66259 12.2721C9.47677 13.5602 9.81744 14.2042 10.6846 14.2042C12.357 14.2042 13.7816 14.9839 14.9584 16.5431C16.1353 18.1024 16.7237 20.1023 16.7237 22.5428C16.7237 25.3902 15.9804 27.6951 14.4939 29.4578C13.0073 31.1526 11.0253 32 8.54767 32C6.19396 32 4.18092 31.0509 2.50855 29.1527C0.836181 27.1867 -4.29119e-06 24.5427 -3.71037e-06 21.2209C-2.27612e-06 13.0179 4.11899 6.06904 12.357 0.374406ZM33.7262 0.37441C34.6553 -0.23573 35.4914 -0.100143 36.2347 0.781171C37.0399 1.66249 37.0399 2.5438 36.2347 3.42511C34.3765 5.45891 33.0758 7.08595 32.3325 8.30623C31.5892 9.52651 31.1557 10.8485 31.0318 12.2721C30.846 13.5602 31.1866 14.2043 32.0538 14.2043C33.7262 14.2043 35.1198 14.9839 36.2347 16.5431C37.4116 18.1024 38 20.1023 38 22.5428C38 25.3902 37.2567 27.6951 35.7702 29.4578C34.2836 31.1526 32.3325 32 29.9169 32C27.5012 32 25.4572 31.0509 23.7848 29.1527C22.1744 27.1867 21.3692 24.5427 21.3692 21.2209C21.3692 13.0179 25.4882 6.06905 33.7262 0.37441Z" fill="#2E00FF"/>
</g>
</svg>
