<svg width="22" height="24" viewBox="0 0 22 24" fill="none" xmlns="http://www.w3.org/2000/svg">
<path d="M15.9102 15.5203C15.9102 16.2697 15.3014 16.8786 14.5463 16.8786C14.1833 16.8786 13.8438 16.7381 13.5921 16.4805L11.7716 14.6187L10.1033 16.4102C9.54716 17.0074 8.61641 17.0366 8.01933 16.4805L6.98907 15.5203C6.39198 14.9641 6.36271 14.0274 6.91882 13.4302L8.66325 11.5626L6.91882 9.80031C6.52661 9.40805 6.40954 8.81673 6.63199 8.30152C6.84858 7.79802 7.36371 7.48187 7.90811 7.48187H14.5521C15.3014 7.48187 15.9102 8.09075 15.9102 8.84015V15.5203ZM21.764 12.1831C21.764 10.0052 21.3133 8.04392 20.4176 6.29924C19.522 4.55455 18.2693 3.19628 16.6712 2.22441C15.0673 1.25254 13.2585 0.766602 11.2331 0.766602C9.20765 0.766602 7.39297 1.25839 5.79489 2.24783C4.19096 3.23726 2.93826 4.59554 2.03092 6.32265C1.12359 8.04977 0.666992 10.0052 0.666992 12.1831C0.666992 14.3611 1.12359 16.3165 2.03092 18.0436C2.93826 19.7766 4.19681 21.1349 5.79489 22.1185C7.39297 23.1021 9.20765 23.5997 11.2331 23.5997C13.2585 23.5997 15.0673 23.1138 16.6712 22.1419C18.2693 21.17 19.522 19.8117 20.4176 18.0671C21.3191 16.3224 21.764 14.3611 21.764 12.1831Z" fill="white"/>
</svg>
