<svg width="86" height="13" viewBox="0 0 86 13" fill="none" xmlns="http://www.w3.org/2000/svg">
<path d="M12.5617 4.75334L8.67013 4.2034L6.93052 0.774079C6.88301 0.680186 6.80484 0.604178 6.70828 0.557976C6.46612 0.441728 6.17184 0.538602 6.05076 0.774079L4.31114 4.2034L0.419628 4.75334C0.31234 4.76824 0.214247 4.81743 0.139145 4.89194C0.0483506 4.98269 -0.00168123 5.10477 4.31392e-05 5.23136C0.00176751 5.35796 0.055107 5.47871 0.148341 5.56708L2.9639 8.23631L2.29871 12.0054C2.28312 12.0931 2.29309 12.1833 2.32752 12.2657C2.36194 12.3482 2.41943 12.4196 2.49347 12.4719C2.56751 12.5242 2.65514 12.5552 2.74641 12.5616C2.83769 12.5679 2.92896 12.5492 3.00989 12.5077L6.49064 10.7282L9.97139 12.5077C10.0664 12.5569 10.1768 12.5733 10.2825 12.5554C10.5492 12.5107 10.7285 12.2648 10.6826 12.0054L10.0174 8.23631L12.8329 5.56708C12.9096 5.49405 12.9602 5.39867 12.9755 5.29434C13.0169 5.03353 12.8299 4.79209 12.5617 4.75334V4.75334Z" fill="#FFA114"/>
<path d="M30.5363 4.75334L26.6447 4.2034L24.9051 0.774079C24.8576 0.680186 24.7795 0.604178 24.6829 0.557976C24.4407 0.441728 24.1464 0.538602 24.0254 0.774079L22.2858 4.2034L18.3942 4.75334C18.2869 4.76824 18.1889 4.81743 18.1138 4.89194C18.023 4.98269 17.9729 5.10477 17.9747 5.23136C17.9764 5.35796 18.0297 5.4787 18.123 5.56708L20.9385 8.23631L20.2733 12.0054C20.2577 12.0931 20.2677 12.1833 20.3021 12.2657C20.3365 12.3482 20.394 12.4196 20.4681 12.4719C20.5421 12.5242 20.6297 12.5552 20.721 12.5616C20.8123 12.5679 20.9036 12.5492 20.9845 12.5077L24.4652 10.7282L27.946 12.5077C28.041 12.5569 28.1514 12.5733 28.2571 12.5554C28.5238 12.5107 28.7032 12.2648 28.6572 12.0054L27.992 8.23631L30.8075 5.56708C30.8842 5.49405 30.9348 5.39867 30.9501 5.29434C30.9915 5.03353 30.8045 4.79209 30.5363 4.75334Z" fill="#FFA114"/>
<path d="M49.4762 4.72823L45.2853 4.18154L43.4119 0.772509C43.3607 0.679172 43.2765 0.603613 43.1725 0.557685C42.9118 0.442125 42.5948 0.538425 42.4644 0.772509L40.591 4.18154L36.4001 4.72823C36.2846 4.74304 36.179 4.79193 36.0981 4.86601C36.0003 4.95621 35.9464 5.07757 35.9483 5.20342C35.9501 5.32926 36.0076 5.4493 36.108 5.53715L39.1401 8.19059L38.4238 11.9374C38.407 12.0246 38.4177 12.1142 38.4548 12.1962C38.4919 12.2781 38.5538 12.3491 38.6335 12.4011C38.7133 12.4531 38.8076 12.484 38.9059 12.4903C39.0042 12.4965 39.1025 12.478 39.1897 12.4367L42.9382 10.6677L46.6867 12.4367C46.789 12.4856 46.9078 12.5019 47.0217 12.4841C47.3089 12.4396 47.5021 12.1952 47.4525 11.9374L46.7362 8.19059L49.7683 5.53715C49.8509 5.46455 49.9053 5.36973 49.9218 5.26603C49.9664 5.00676 49.765 4.76675 49.4762 4.72823Z" fill="#FFA114"/>
<path d="M67.4816 4.75334L63.5901 4.2034L61.8504 0.774079C61.8029 0.680186 61.7248 0.604178 61.6282 0.557976C61.386 0.441728 61.0918 0.538602 60.9707 0.774079L59.2311 4.2034L55.3396 4.75334C55.2323 4.76824 55.1342 4.81743 55.0591 4.89194C54.9683 4.98269 54.9182 5.10477 54.92 5.23136C54.9217 5.35796 54.975 5.4787 55.0683 5.56708L57.8838 8.23631L57.2186 12.0054C57.203 12.0931 57.213 12.1833 57.2474 12.2657C57.2819 12.3482 57.3394 12.4196 57.4134 12.4719C57.4874 12.5242 57.5751 12.5552 57.6663 12.5616C57.7576 12.5679 57.8489 12.5492 57.9298 12.5077L61.4106 10.7282L64.8913 12.5077C64.9863 12.5569 65.0967 12.5733 65.2025 12.5554C65.4691 12.5107 65.6485 12.2648 65.6025 12.0054L64.9373 8.23631L67.7529 5.56708C67.8295 5.49405 67.8801 5.39867 67.8954 5.29434C67.9368 5.03353 67.7498 4.79209 67.4816 4.75334Z" fill="#FFA114"/>
<path opacity="0.2" d="M85.4562 4.75334L81.5647 4.2034L79.8251 0.774079C79.7775 0.680186 79.6994 0.604178 79.6028 0.557976C79.3606 0.441728 79.0664 0.538602 78.9453 0.774079L77.2057 4.2034L73.3142 4.75334C73.2069 4.76824 73.1088 4.81743 73.0337 4.89194C72.9429 4.98269 72.8929 5.10477 72.8946 5.23136C72.8963 5.35796 72.9496 5.4787 73.0429 5.56708L75.8584 8.23631L75.1932 12.0054C75.1776 12.0931 75.1876 12.1833 75.222 12.2657C75.2565 12.3482 75.314 12.4196 75.388 12.4719C75.462 12.5242 75.5497 12.5552 75.6409 12.5616C75.7322 12.5679 75.8235 12.5492 75.9044 12.5077L79.3852 10.7282L82.8659 12.5077C82.961 12.5569 83.0713 12.5733 83.1771 12.5554C83.4438 12.5107 83.6231 12.2648 83.5771 12.0054L82.9119 8.23631L85.7275 5.56708C85.8041 5.49405 85.8547 5.39867 85.87 5.29434C85.9114 5.03353 85.7244 4.79209 85.4562 4.75334Z" fill="#FFA114"/>
</svg>
