<svg width="42" height="42" viewBox="0 0 42 42" fill="none" xmlns="http://www.w3.org/2000/svg">
<circle opacity="0.05" cx="21" cy="21" r="21" fill="#17BD8D"/>
<path d="M22.1754 28.325L21.0005 29.0834C19.9088 29.7584 18.3921 29 18.3921 27.65V23.1917C18.3921 22.6 18.0588 21.8417 17.7171 21.425L14.5171 18.0584C14.0921 17.6334 13.7588 16.8834 13.7588 16.3751V14.4417C13.7588 13.4334 14.5171 12.675 15.4421 12.675H26.5588C27.4838 12.675 28.2421 13.4334 28.2421 14.3584V16.2084C28.2421 16.8834 27.8171 17.725 27.4005 18.1417" stroke="#17BD8D" stroke-width="2" stroke-miterlimit="10" stroke-linecap="round" stroke-linejoin="round"/>
<path d="M25.2332 20.9083L22.2831 23.8583C22.1665 23.975 22.0581 24.1916 22.0331 24.35L21.8748 25.475C21.8165 25.8833 22.0998 26.1666 22.5081 26.1083L23.6331 25.95C23.7915 25.925 24.0165 25.8166 24.1248 25.7L27.0748 22.75C27.5831 22.2416 27.8248 21.65 27.0748 20.9C26.3331 20.1583 25.7415 20.4 25.2332 20.9083Z" stroke="#17BD8D" stroke-width="2" stroke-miterlimit="10" stroke-linecap="round" stroke-linejoin="round"/>
<path d="M24.8164 21.325C25.0664 22.225 25.7664 22.9249 26.6664 23.1749" stroke="#17BD8D" stroke-miterlimit="10" stroke-linecap="round" stroke-linejoin="round"/>
</svg>
