<svg width="42" height="42" viewBox="0 0 42 42" fill="none" xmlns="http://www.w3.org/2000/svg">
<circle opacity="0.05" cx="21" cy="21" r="21" fill="#219FFF"/>
<path d="M18.6331 20.0583C18.5498 20.05 18.4498 20.05 18.3581 20.0583C16.3748 19.9916 14.7998 18.3666 14.7998 16.3666C14.7998 14.325 16.4498 12.6666 18.4998 12.6666C20.5415 12.6666 22.1998 14.325 22.1998 16.3666C22.1915 18.3666 20.6165 19.9916 18.6331 20.0583Z" stroke="#219FFF" stroke-width="2" stroke-linecap="round" stroke-linejoin="round"/>
<path d="M24.6747 14.3334C26.2914 14.3334 27.5914 15.6417 27.5914 17.25C27.5914 18.825 26.3414 20.1084 24.7831 20.1667C24.7164 20.1584 24.6414 20.1584 24.5664 20.1667" stroke="#219FFF" stroke-width="2" stroke-linecap="round" stroke-linejoin="round"/>
<path d="M14.4666 23.1334C12.4499 24.4834 12.4499 26.6834 14.4666 28.025C16.7583 29.5584 20.5166 29.5584 22.8083 28.025C24.8249 26.675 24.8249 24.475 22.8083 23.1334C20.5249 21.6084 16.7666 21.6084 14.4666 23.1334Z" stroke="#219FFF" stroke-width="2" stroke-linecap="round" stroke-linejoin="round"/>
<path d="M26.2832 27.6666C26.8832 27.5416 27.4499 27.3 27.9165 26.9416C29.2165 25.9666 29.2165 24.3583 27.9165 23.3833C27.4582 23.0333 26.8999 22.8 26.3082 22.6666" stroke="#219FFF" stroke-width="2" stroke-linecap="round" stroke-linejoin="round"/>
</svg>
