<svg width="22" height="22" viewBox="0 0 22 22" fill="none" xmlns="http://www.w3.org/2000/svg">
<path d="M16.238 6.23798H17.1904M5.2856 1.47607H16.7142C18.8181 1.47607 20.5237 3.18166 20.5237 5.2856V16.7142C20.5237 18.8181 18.8181 20.5237 16.7142 20.5237H5.2856C3.18166 20.5237 1.47607 18.8181 1.47607 16.7142V5.2856C1.47607 3.18166 3.18166 1.47607 5.2856 1.47607ZM10.9999 14.8094C8.89594 14.8094 7.19036 13.1038 7.19036 10.9999C7.19036 8.89594 8.89594 7.19036 10.9999 7.19036C13.1038 7.19036 14.8094 8.89594 14.8094 10.9999C14.8094 13.1038 13.1038 14.8094 10.9999 14.8094Z" stroke="#BAB8CF" stroke-width="1.5"/>
</svg>
