<svg width="75" height="75" viewBox="0 0 75 75" fill="none" xmlns="http://www.w3.org/2000/svg">
<g opacity="0.5" clip-path="url(#clip0_8331_9795)">
<path fill-rule="evenodd" clip-rule="evenodd" d="M39.8953 21.0674C31.4315 16.481 21.7512 13.1123 12.1536 13.7723C8.66146 14.0121 5.42889 15.019 2.11018 16.0201C1.87736 16.0899 1.74467 16.3367 1.81452 16.5707C1.88553 16.8046 2.1323 16.9373 2.36628 16.8663C5.62096 15.885 8.7895 14.8898 12.2141 14.6546C21.6756 14.0039 31.2126 17.3541 39.5484 21.8846L39.489 22.0184C38.8406 23.47 39.2423 25.5886 40.3015 27.8119C41.8195 30.9991 44.6458 34.4237 47.1892 36.3153C48.3323 37.1651 49.4277 37.7052 50.331 37.8181C51.0353 37.9066 51.6394 37.7482 52.1062 37.3269C53.1003 36.4282 53.0654 34.8952 52.2773 33.1177C50.6302 29.3997 45.7924 24.5037 43.1686 22.9334C42.3491 22.4433 41.5156 21.9614 40.6694 21.4923C40.7765 21.2339 40.8824 20.9813 40.9965 20.7403C41.3236 20.0547 41.7252 19.4552 42.4993 19.0443C43.7064 18.4052 45.1533 18.2946 46.634 18.4599C48.9446 18.7195 51.3367 19.6589 53.098 20.4656C62.9062 24.9588 67.7638 32.7521 70.369 40.5757C72.9986 48.4773 73.3431 56.4161 74.1219 61.0991C74.1615 61.3401 74.3896 61.5019 74.6306 61.4623C74.8715 61.4227 75.0345 61.1946 74.9938 60.9536C74.2103 56.2404 73.8553 48.2503 71.2071 40.2964C68.5344 32.2644 63.5348 24.2743 53.467 19.6612C51.6324 18.8208 49.139 17.8511 46.7329 17.5811C45.0672 17.3948 43.4433 17.5438 42.0849 18.2632C40.8661 18.9092 40.3819 19.9173 39.8953 21.0674ZM40.326 22.3129L40.2957 22.3793C39.7288 23.6481 40.1735 25.4873 41.1001 27.4313C42.5586 30.4939 45.272 33.787 47.7177 35.6052C48.5558 36.2292 49.3579 36.6773 50.0633 36.8659C50.6453 37.0207 51.1505 36.9986 51.5125 36.6703C51.8559 36.3619 51.9921 35.937 51.9863 35.4423C51.9805 34.8614 51.7872 34.1944 51.4694 33.4762C49.8863 29.9037 45.236 25.2009 42.7146 23.6923C41.9312 23.2244 41.135 22.7634 40.326 22.3129Z" fill="#2E00FF"/>
<path fill-rule="evenodd" clip-rule="evenodd" d="M0.988067 17.3886C1.02648 17.1988 1.15569 16.9602 1.29771 16.7053C1.63528 16.0976 2.11604 15.4504 2.33022 15.1361C2.46758 14.9336 2.41403 14.6589 2.21265 14.5215C2.01011 14.3842 1.73539 14.4365 1.59803 14.6391C1.33612 15.0244 0.69706 15.8881 0.353665 16.604C0.169745 16.9881 0.0742958 17.3432 0.095249 17.5981C0.130171 18.0323 0.473563 18.3035 1.15453 18.2872C1.96006 18.2674 3.45587 17.8635 4.70839 18.3489C4.93538 18.4374 5.19262 18.3233 5.27992 18.0963C5.36839 17.8682 5.25549 17.6121 5.02733 17.5236C3.83302 17.0615 2.44081 17.2838 1.50375 17.3769C1.32565 17.3944 1.11379 17.3921 0.988067 17.3886Z" fill="#2E00FF"/>
</g>
<defs>
<clipPath id="clip0_8331_9795">
<rect width="75" height="75" fill="white" transform="translate(75 75) rotate(180)"/>
</clipPath>
</defs>
</svg>
