<svg width="375" height="305" viewBox="0 0 375 305" fill="none" xmlns="http://www.w3.org/2000/svg">
<ellipse opacity="0.4" cx="269.439" cy="89.4584" rx="89.5611" ry="89.4623" fill="#4AF8E3"/>
<g filter="url(#filter0_d_8547_18037)">
<rect x="42.6777" y="34.2559" width="282.657" height="241.739" rx="7.62222" fill="white"/>
</g>
<rect x="70.626" y="121.816" width="15.2444" height="3.17242" rx="1.27037" fill="#5E81F4"/>
<path fill-rule="evenodd" clip-rule="evenodd" d="M106.196 123.087C106.196 122.385 106.765 121.816 107.467 121.816H123.346C124.048 121.816 124.617 122.385 124.617 123.087V123.718C124.617 124.42 124.048 124.989 123.346 124.989H107.467C106.765 124.989 106.196 124.42 106.196 123.718V123.087Z" fill="#DDEAF3"/>
<path fill-rule="evenodd" clip-rule="evenodd" d="M157.646 123.087C157.646 122.385 158.215 121.816 158.917 121.816H181.784C182.485 121.816 183.054 122.385 183.054 123.087V123.718C183.054 124.42 182.485 124.989 181.784 124.989H158.917C158.215 124.989 157.646 124.42 157.646 123.718V123.087Z" fill="#DDEAF3"/>
<path fill-rule="evenodd" clip-rule="evenodd" d="M215.448 123.087C215.448 122.385 216.017 121.816 216.719 121.816H245.302C246.004 121.816 246.572 122.385 246.572 123.087V123.718C246.572 124.42 246.004 124.989 245.302 124.989H216.719C216.017 124.989 215.448 124.42 215.448 123.718V123.087Z" fill="#DDEAF3"/>
<path fill-rule="evenodd" clip-rule="evenodd" d="M278.967 123.087C278.967 122.385 279.536 121.816 280.237 121.816H296.752C297.454 121.816 298.022 122.385 298.022 123.087V123.718C298.022 124.42 297.454 124.989 296.752 124.989H280.237C279.536 124.989 278.967 124.42 278.967 123.718V123.087Z" fill="#DDEAF3"/>
<rect x="61.7334" y="134.504" width="244.546" height="26.6484" rx="6.35185" fill="#F9F8FC"/>
<rect x="71.5783" y="144.339" width="6.35185" height="6.34414" rx="1.58796" fill="white" stroke="#BAB8CF" stroke-width="0.635185"/>
<path d="M292.624 151.953C293.44 151.137 293.996 150.098 294.222 148.966C294.447 147.835 294.331 146.662 293.89 145.596C293.448 144.531 292.699 143.62 291.739 142.979C290.779 142.338 289.65 141.996 288.495 141.996C287.34 141.996 286.211 142.338 285.251 142.979C284.291 143.62 283.543 144.531 283.101 145.596C282.659 146.662 282.543 147.835 282.768 148.966C282.994 150.098 283.55 151.137 284.366 151.953" stroke="#BAB8CF" stroke-width="0.952778"/>
<ellipse cx="288.495" cy="147.828" rx="1.27037" ry="1.26897" fill="#BAB8CF"/>
<path d="M291.482 150.676L289.448 147.193L287.86 148.78L291.482 150.676Z" fill="#BAB8CF"/>
<ellipse cx="90.9524" cy="147.827" rx="6.35185" ry="6.34485" fill="#E6E5ED"/>
<path d="M215.83 146.278C215.749 146.299 215.675 146.276 215.609 146.21C215.548 146.139 215.518 146.057 215.518 145.966V145.508L216.821 144.944H217.683V150.577H216.661V146.05L215.83 146.278ZM220.683 150.692C220.216 150.692 219.807 150.598 219.456 150.41C219.106 150.227 218.839 149.967 218.656 149.632C218.473 149.297 218.392 148.911 218.412 148.474H219.426C219.4 148.89 219.494 149.213 219.708 149.442C219.921 149.665 220.239 149.777 220.661 149.777C221.001 149.777 221.26 149.701 221.438 149.548C221.616 149.391 221.705 149.165 221.705 148.87C221.705 148.601 221.606 148.397 221.408 148.26C221.209 148.118 220.915 148.047 220.523 148.047H220.318C220.231 148.047 220.157 148.016 220.097 147.955C220.036 147.894 220.005 147.821 220.005 147.734V147.17H220.516C220.856 147.17 221.113 147.112 221.286 146.995C221.463 146.873 221.552 146.695 221.552 146.461C221.552 146.248 221.463 146.075 221.286 145.943C221.113 145.806 220.887 145.737 220.607 145.737C220.312 145.737 220.076 145.816 219.898 145.973C219.726 146.131 219.626 146.352 219.601 146.637C219.591 146.728 219.558 146.804 219.502 146.865C219.446 146.921 219.375 146.949 219.289 146.949H218.595C218.59 146.908 218.587 146.85 218.587 146.774C218.587 146.388 218.671 146.05 218.839 145.76C219.007 145.47 219.245 145.247 219.555 145.089C219.865 144.932 220.224 144.853 220.63 144.853C221.006 144.853 221.339 144.922 221.629 145.059C221.923 145.196 222.152 145.387 222.315 145.63C222.477 145.874 222.558 146.156 222.558 146.477C222.558 146.786 222.472 147.051 222.299 147.269C222.132 147.488 221.888 147.65 221.568 147.757L221.697 147.574V147.597L221.552 147.414C221.944 147.516 222.241 147.696 222.444 147.955C222.647 148.209 222.749 148.535 222.749 148.931C222.749 149.276 222.663 149.584 222.49 149.853C222.317 150.117 222.073 150.323 221.758 150.471C221.448 150.618 221.09 150.692 220.683 150.692ZM223.369 146.797C223.389 146.212 223.572 145.747 223.918 145.402C224.091 145.229 224.307 145.097 224.566 145.005C224.825 144.909 225.104 144.861 225.404 144.861C225.78 144.861 226.116 144.937 226.41 145.089C226.705 145.242 226.934 145.455 227.096 145.73C227.259 145.999 227.34 146.306 227.34 146.652C227.34 147.002 227.269 147.295 227.127 147.528C226.984 147.762 226.812 147.95 226.608 148.092C226.41 148.23 226.113 148.407 225.717 148.626C225.381 148.814 225.112 148.984 224.909 149.137C224.711 149.289 224.566 149.439 224.474 149.586H227.233V150.577H223.232C223.222 150.069 223.313 149.642 223.506 149.297C223.704 148.951 223.933 148.682 224.192 148.489C224.451 148.291 224.815 148.057 225.282 147.788C225.546 147.635 225.745 147.511 225.877 147.414C226.014 147.318 226.118 147.211 226.189 147.094C226.26 146.972 226.296 146.827 226.296 146.659C226.296 146.39 226.21 146.177 226.037 146.019C225.869 145.857 225.64 145.775 225.351 145.775C225.056 145.775 224.825 145.864 224.657 146.042C224.55 146.149 224.479 146.309 224.444 146.522C224.428 146.604 224.393 146.67 224.337 146.72C224.286 146.771 224.223 146.797 224.146 146.797H223.369ZM228.755 149.442C228.842 149.442 228.915 149.472 228.976 149.533C229.037 149.594 229.068 149.668 229.068 149.754V150.577H228.763C228.529 150.577 228.334 150.501 228.176 150.349C228.024 150.191 227.947 149.995 227.947 149.762V149.442H228.755ZM231.839 150.692C231.402 150.692 231.018 150.618 230.688 150.471C230.358 150.323 230.101 150.115 229.918 149.846C229.74 149.576 229.652 149.259 229.652 148.893C229.652 148.522 229.756 148.204 229.964 147.94C230.172 147.676 230.47 147.48 230.856 147.353L230.726 147.536V147.513L230.848 147.688C230.553 147.577 230.322 147.409 230.155 147.185C229.992 146.957 229.911 146.695 229.911 146.4C229.911 146.1 229.992 145.834 230.155 145.6C230.317 145.361 230.543 145.176 230.833 145.044C231.123 144.911 231.45 144.845 231.816 144.845C232.182 144.845 232.51 144.911 232.799 145.044C233.089 145.176 233.315 145.361 233.478 145.6C233.64 145.834 233.722 146.1 233.722 146.4C233.722 146.695 233.64 146.954 233.478 147.178C233.32 147.401 233.094 147.572 232.799 147.688L232.921 147.513V147.536L232.784 147.353C233.155 147.465 233.447 147.661 233.661 147.94C233.874 148.214 233.981 148.532 233.981 148.893C233.981 149.259 233.892 149.579 233.714 149.853C233.541 150.122 233.292 150.328 232.967 150.471C232.647 150.618 232.271 150.692 231.839 150.692ZM231.839 149.777C232.195 149.777 232.469 149.701 232.662 149.548C232.86 149.391 232.96 149.172 232.96 148.893C232.96 148.603 232.858 148.377 232.655 148.214C232.456 148.052 232.177 147.97 231.816 147.97C231.461 147.97 231.184 148.052 230.985 148.214C230.787 148.377 230.688 148.603 230.688 148.893C230.688 149.177 230.787 149.396 230.985 149.548C231.184 149.701 231.468 149.777 231.839 149.777ZM231.816 147.086C232.101 147.086 232.322 147.028 232.479 146.911C232.637 146.794 232.716 146.632 232.716 146.423C232.716 146.215 232.637 146.052 232.479 145.935C232.322 145.818 232.101 145.76 231.816 145.76C231.532 145.76 231.311 145.818 231.153 145.935C230.996 146.052 230.917 146.215 230.917 146.423C230.917 146.632 230.996 146.794 231.153 146.911C231.311 147.028 231.532 147.086 231.816 147.086ZM235.841 148.252C235.561 148.252 235.312 148.181 235.094 148.039C234.88 147.897 234.713 147.696 234.591 147.437C234.474 147.178 234.415 146.883 234.415 146.553C234.415 146.222 234.476 145.93 234.598 145.676C234.72 145.417 234.888 145.216 235.101 145.074C235.32 144.927 235.566 144.853 235.841 144.853C236.12 144.853 236.367 144.924 236.58 145.066C236.793 145.209 236.959 145.409 237.075 145.669C237.192 145.923 237.251 146.217 237.251 146.553C237.251 146.883 237.192 147.178 237.075 147.437C236.959 147.696 236.793 147.897 236.58 148.039C236.367 148.181 236.12 148.252 235.841 148.252ZM239.217 150.692C238.938 150.692 238.689 150.62 238.47 150.478C238.257 150.336 238.089 150.135 237.967 149.876C237.85 149.617 237.792 149.322 237.792 148.992C237.792 148.662 237.853 148.369 237.975 148.115C238.097 147.856 238.264 147.655 238.478 147.513C238.696 147.366 238.943 147.292 239.217 147.292C239.497 147.292 239.743 147.363 239.957 147.506C240.17 147.648 240.335 147.849 240.452 148.108C240.569 148.362 240.627 148.656 240.627 148.992C240.627 149.322 240.569 149.617 240.452 149.876C240.335 150.135 240.17 150.336 239.957 150.478C239.743 150.62 239.497 150.692 239.217 150.692ZM239.606 144.975L236.389 150.577H235.437L238.653 144.975H239.606ZM235.841 147.414C235.983 147.414 236.095 147.34 236.176 147.193C236.262 147.041 236.306 146.827 236.306 146.553C236.306 146.294 236.262 146.085 236.176 145.928C236.09 145.77 235.978 145.691 235.841 145.691C235.698 145.691 235.584 145.768 235.498 145.92C235.416 146.073 235.376 146.283 235.376 146.553C235.376 146.817 235.419 147.028 235.505 147.185C235.592 147.338 235.703 147.414 235.841 147.414ZM239.217 149.853C239.36 149.853 239.471 149.779 239.553 149.632C239.639 149.48 239.682 149.266 239.682 148.992C239.682 148.733 239.639 148.524 239.553 148.367C239.466 148.209 239.354 148.131 239.217 148.131C239.075 148.131 238.961 148.207 238.874 148.359C238.793 148.512 238.752 148.723 238.752 148.992C238.752 149.256 238.796 149.467 238.882 149.624C238.968 149.777 239.08 149.853 239.217 149.853Z" fill="#1DC9B7"/>
<rect x="106.197" y="145.924" width="29.2185" height="3.80691" rx="1.27037" fill="#E6E5ED"/>
<rect x="157.646" y="145.924" width="29.2185" height="3.80691" rx="1.27037" fill="#E6E5ED"/>
<rect x="61.7334" y="197.32" width="244.546" height="26.6484" rx="6.35185" fill="#F9F8FC"/>
<rect x="71.5783" y="207.155" width="6.35185" height="6.34414" rx="1.58796" fill="white" stroke="#BAB8CF" stroke-width="0.635185"/>
<path d="M292.624 214.763C293.44 213.947 293.996 212.908 294.222 211.777C294.447 210.645 294.331 209.473 293.89 208.407C293.448 207.341 292.699 206.43 291.739 205.789C290.779 205.149 289.65 204.806 288.495 204.806C287.34 204.806 286.211 205.149 285.251 205.789C284.291 206.43 283.543 207.341 283.101 208.407C282.659 209.473 282.543 210.645 282.768 211.777C282.994 212.908 283.55 213.947 284.366 214.763" stroke="#BAB8CF" stroke-width="0.952778"/>
<ellipse cx="288.495" cy="210.638" rx="1.27037" ry="1.26897" fill="#BAB8CF"/>
<path d="M291.482 213.487L289.448 210.004L287.86 211.59L291.482 213.487Z" fill="#BAB8CF"/>
<ellipse cx="90.9524" cy="210.644" rx="6.35185" ry="6.34485" fill="#E6E5ED"/>
<path d="M215.83 209.093C215.749 209.113 215.675 209.09 215.609 209.024C215.548 208.953 215.518 208.872 215.518 208.78V208.323L216.821 207.759H217.683V213.392H216.661V208.864L215.83 209.093ZM220.683 213.506C220.216 213.506 219.807 213.412 219.456 213.224C219.106 213.041 218.839 212.782 218.656 212.447C218.473 212.111 218.392 211.725 218.412 211.288H219.426C219.4 211.705 219.494 212.027 219.708 212.256C219.921 212.48 220.239 212.591 220.661 212.591C221.001 212.591 221.26 212.515 221.438 212.363C221.616 212.205 221.705 211.979 221.705 211.684C221.705 211.415 221.606 211.212 221.408 211.075C221.209 210.932 220.915 210.861 220.523 210.861H220.318C220.231 210.861 220.157 210.831 220.097 210.77C220.036 210.709 220.005 210.635 220.005 210.549V209.985H220.516C220.856 209.985 221.113 209.926 221.286 209.809C221.463 209.687 221.552 209.509 221.552 209.276C221.552 209.062 221.463 208.89 221.286 208.757C221.113 208.62 220.887 208.552 220.607 208.552C220.312 208.552 220.076 208.63 219.898 208.788C219.726 208.945 219.626 209.166 219.601 209.451C219.591 209.543 219.558 209.619 219.502 209.68C219.446 209.736 219.375 209.764 219.289 209.764H218.595C218.59 209.723 218.587 209.664 218.587 209.588C218.587 209.202 218.671 208.864 218.839 208.574C219.007 208.285 219.245 208.061 219.555 207.904C219.865 207.746 220.224 207.667 220.63 207.667C221.006 207.667 221.339 207.736 221.629 207.873C221.923 208.01 222.152 208.201 222.315 208.445C222.477 208.689 222.558 208.971 222.558 209.291C222.558 209.601 222.472 209.865 222.299 210.084C222.132 210.302 221.888 210.465 221.568 210.572L221.697 210.389V210.411L221.552 210.229C221.944 210.33 222.241 210.511 222.444 210.77C222.647 211.024 222.749 211.349 222.749 211.745C222.749 212.091 222.663 212.398 222.49 212.668C222.317 212.932 222.073 213.138 221.758 213.285C221.448 213.432 221.09 213.506 220.683 213.506ZM225.564 213.506C224.98 213.506 224.502 213.336 224.131 212.995C223.852 212.741 223.648 212.421 223.521 212.035C223.394 211.649 223.331 211.156 223.331 210.556C223.331 209.962 223.417 209.448 223.59 209.017C223.768 208.58 224.022 208.247 224.352 208.018C224.688 207.784 225.084 207.667 225.541 207.667C225.897 207.667 226.212 207.744 226.486 207.896C226.766 208.043 226.984 208.257 227.142 208.536C227.3 208.811 227.383 209.131 227.394 209.497H226.647C226.57 209.497 226.504 209.471 226.448 209.421C226.398 209.37 226.365 209.301 226.349 209.215C226.309 209.022 226.217 208.869 226.075 208.757C225.938 208.646 225.765 208.59 225.557 208.59C225.15 208.59 224.848 208.745 224.65 209.055C224.451 209.36 224.347 209.842 224.337 210.503L224.146 210.312H224.162L224.009 210.389C224.202 210.124 224.431 209.926 224.695 209.794C224.965 209.657 225.264 209.588 225.595 209.588C225.94 209.588 226.26 209.677 226.555 209.855C226.85 210.028 227.081 210.267 227.249 210.572C227.421 210.871 227.508 211.197 227.508 211.547C227.508 211.898 227.419 212.223 227.241 212.523C227.068 212.823 226.832 213.061 226.532 213.239C226.238 213.417 225.915 213.506 225.564 213.506ZM225.549 212.607C225.839 212.607 226.075 212.51 226.258 212.317C226.441 212.119 226.532 211.865 226.532 211.555C226.532 211.245 226.438 210.991 226.25 210.793C226.062 210.594 225.821 210.495 225.526 210.495C225.201 210.495 224.939 210.592 224.741 210.785C224.548 210.978 224.451 211.232 224.451 211.547C224.451 211.857 224.553 212.111 224.756 212.309C224.965 212.508 225.229 212.607 225.549 212.607ZM228.874 212.256C228.961 212.256 229.035 212.287 229.095 212.347C229.156 212.408 229.187 212.482 229.187 212.569V213.392H228.882C228.648 213.392 228.453 213.316 228.295 213.163C228.143 213.006 228.066 212.81 228.066 212.576V212.256H228.874ZM231.958 213.506C231.521 213.506 231.138 213.432 230.807 213.285C230.477 213.138 230.22 212.929 230.037 212.66C229.86 212.391 229.771 212.073 229.771 211.707C229.771 211.336 229.875 211.019 230.083 210.754C230.291 210.49 230.589 210.295 230.975 210.168L230.845 210.35V210.328L230.967 210.503C230.673 210.391 230.441 210.223 230.274 210C230.111 209.771 230.03 209.509 230.03 209.215C230.03 208.915 230.111 208.648 230.274 208.414C230.436 208.176 230.662 207.99 230.952 207.858C231.242 207.726 231.569 207.66 231.935 207.66C232.301 207.66 232.629 207.726 232.919 207.858C233.208 207.99 233.434 208.176 233.597 208.414C233.76 208.648 233.841 208.915 233.841 209.215C233.841 209.509 233.76 209.769 233.597 209.992C233.439 210.216 233.213 210.386 232.919 210.503L233.041 210.328V210.35L232.903 210.168C233.274 210.279 233.566 210.475 233.78 210.754C233.993 211.029 234.1 211.346 234.1 211.707C234.1 212.073 234.011 212.393 233.833 212.668C233.66 212.937 233.411 213.143 233.086 213.285C232.766 213.432 232.39 213.506 231.958 213.506ZM231.958 212.591C232.314 212.591 232.588 212.515 232.781 212.363C232.98 212.205 233.079 211.987 233.079 211.707C233.079 211.418 232.977 211.191 232.774 211.029C232.576 210.866 232.296 210.785 231.935 210.785C231.58 210.785 231.303 210.866 231.104 211.029C230.906 211.191 230.807 211.418 230.807 211.707C230.807 211.992 230.906 212.21 231.104 212.363C231.303 212.515 231.587 212.591 231.958 212.591ZM231.935 209.901C232.22 209.901 232.441 209.842 232.598 209.725C232.756 209.609 232.835 209.446 232.835 209.238C232.835 209.029 232.756 208.867 232.598 208.75C232.441 208.633 232.22 208.574 231.935 208.574C231.651 208.574 231.43 208.633 231.272 208.75C231.115 208.867 231.036 209.029 231.036 209.238C231.036 209.446 231.115 209.609 231.272 209.725C231.43 209.842 231.651 209.901 231.935 209.901ZM235.96 211.067C235.68 211.067 235.431 210.996 235.213 210.854C234.999 210.711 234.832 210.511 234.71 210.251C234.593 209.992 234.534 209.697 234.534 209.367C234.534 209.037 234.595 208.745 234.717 208.491C234.839 208.231 235.007 208.031 235.22 207.888C235.439 207.741 235.685 207.667 235.96 207.667C236.239 207.667 236.486 207.739 236.699 207.881C236.913 208.023 237.078 208.224 237.195 208.483C237.311 208.737 237.37 209.032 237.37 209.367C237.37 209.697 237.311 209.992 237.195 210.251C237.078 210.511 236.913 210.711 236.699 210.854C236.486 210.996 236.239 211.067 235.96 211.067ZM239.336 213.506C239.057 213.506 238.808 213.435 238.589 213.293C238.376 213.15 238.208 212.95 238.086 212.69C237.969 212.431 237.911 212.137 237.911 211.806C237.911 211.476 237.972 211.184 238.094 210.93C238.216 210.671 238.384 210.47 238.597 210.328C238.816 210.18 239.062 210.107 239.336 210.107C239.616 210.107 239.862 210.178 240.076 210.32C240.289 210.462 240.454 210.663 240.571 210.922C240.688 211.176 240.746 211.471 240.746 211.806C240.746 212.137 240.688 212.431 240.571 212.69C240.454 212.95 240.289 213.15 240.076 213.293C239.862 213.435 239.616 213.506 239.336 213.506ZM239.725 207.789L236.509 213.392H235.556L238.772 207.789H239.725ZM235.96 210.229C236.102 210.229 236.214 210.155 236.295 210.007C236.381 209.855 236.425 209.642 236.425 209.367C236.425 209.108 236.381 208.9 236.295 208.742C236.209 208.585 236.097 208.506 235.96 208.506C235.817 208.506 235.703 208.582 235.617 208.735C235.535 208.887 235.495 209.098 235.495 209.367C235.495 209.631 235.538 209.842 235.624 210C235.711 210.152 235.823 210.229 235.96 210.229ZM239.336 212.668C239.479 212.668 239.59 212.594 239.672 212.447C239.758 212.294 239.801 212.081 239.801 211.806C239.801 211.547 239.758 211.339 239.672 211.181C239.585 211.024 239.474 210.945 239.336 210.945C239.194 210.945 239.08 211.021 238.993 211.174C238.912 211.326 238.871 211.537 238.871 211.806C238.871 212.071 238.915 212.281 239.001 212.439C239.087 212.591 239.199 212.668 239.336 212.668Z" fill="#1DC9B7"/>
<rect x="106.197" y="208.738" width="29.2185" height="3.80691" rx="1.27037" fill="#E6E5ED"/>
<rect x="157.646" y="208.738" width="29.2185" height="3.80691" rx="1.27037" fill="#E6E5ED"/>
<rect x="61.7334" y="230.312" width="244.546" height="26.6484" rx="6.35185" fill="#F9F8FC"/>
<rect x="71.5783" y="240.148" width="6.35185" height="6.34414" rx="1.58796" fill="white" stroke="#BAB8CF" stroke-width="0.635185"/>
<path d="M292.624 247.759C293.44 246.943 293.996 245.904 294.222 244.773C294.447 243.641 294.331 242.469 293.89 241.403C293.448 240.337 292.699 239.426 291.739 238.786C290.779 238.145 289.65 237.803 288.495 237.803C287.34 237.803 286.211 238.145 285.251 238.786C284.291 239.426 283.543 240.337 283.101 241.403C282.659 242.469 282.543 243.641 282.768 244.773C282.994 245.904 283.55 246.943 284.366 247.759" stroke="#BAB8CF" stroke-width="0.952778"/>
<ellipse cx="288.495" cy="243.634" rx="1.27037" ry="1.26897" fill="#BAB8CF"/>
<path d="M291.482 246.483L289.448 243L287.86 244.586L291.482 246.483Z" fill="#BAB8CF"/>
<ellipse cx="90.9524" cy="243.636" rx="6.35185" ry="6.34485" fill="#E6E5ED"/>
<path d="M215.83 242.087C215.749 242.107 215.675 242.084 215.609 242.018C215.548 241.947 215.518 241.866 215.518 241.774V241.317L216.821 240.753H217.683V246.386H216.661V241.858L215.83 242.087ZM220.828 246.5C220.371 246.5 219.975 246.383 219.639 246.15C219.309 245.911 219.055 245.573 218.877 245.136C218.699 244.694 218.61 244.175 218.61 243.581C218.61 242.991 218.699 242.478 218.877 242.041C219.06 241.599 219.319 241.259 219.654 241.02C219.99 240.781 220.384 240.662 220.836 240.662C221.288 240.662 221.679 240.781 222.01 241.02C222.345 241.254 222.602 241.591 222.78 242.034C222.957 242.471 223.046 242.986 223.046 243.581C223.046 244.181 222.957 244.701 222.78 245.143C222.602 245.58 222.345 245.916 222.01 246.15C221.679 246.383 221.286 246.5 220.828 246.5ZM220.836 245.563C221.217 245.563 221.507 245.398 221.705 245.067C221.903 244.732 222.002 244.236 222.002 243.581C222.002 242.936 221.9 242.443 221.697 242.102C221.499 241.762 221.212 241.591 220.836 241.591C220.455 241.591 220.163 241.762 219.959 242.102C219.756 242.438 219.654 242.93 219.654 243.581C219.654 244.226 219.756 244.719 219.959 245.06C220.163 245.395 220.455 245.563 220.836 245.563ZM223.719 242.605C223.739 242.021 223.922 241.556 224.268 241.21C224.44 241.038 224.656 240.905 224.916 240.814C225.175 240.717 225.454 240.669 225.754 240.669C226.13 240.669 226.465 240.745 226.76 240.898C227.055 241.05 227.284 241.264 227.446 241.538C227.609 241.807 227.69 242.115 227.69 242.46C227.69 242.811 227.619 243.103 227.477 243.337C227.334 243.571 227.162 243.759 226.958 243.901C226.76 244.038 226.463 244.216 226.066 244.435C225.731 244.623 225.462 244.793 225.259 244.945C225.06 245.098 224.916 245.248 224.824 245.395H227.583V246.386H223.582C223.571 245.878 223.663 245.451 223.856 245.105C224.054 244.76 224.283 244.49 224.542 244.297C224.801 244.099 225.165 243.865 225.632 243.596C225.896 243.444 226.094 243.319 226.227 243.223C226.364 243.126 226.468 243.019 226.539 242.903C226.61 242.781 226.646 242.636 226.646 242.468C226.646 242.199 226.559 241.985 226.387 241.828C226.219 241.665 225.99 241.584 225.701 241.584C225.406 241.584 225.175 241.673 225.007 241.851C224.9 241.957 224.829 242.117 224.794 242.331C224.778 242.412 224.743 242.478 224.687 242.529C224.636 242.58 224.573 242.605 224.496 242.605H223.719ZM229.105 245.25C229.192 245.25 229.265 245.281 229.326 245.342C229.387 245.403 229.418 245.476 229.418 245.563V246.386H229.113C228.879 246.386 228.683 246.31 228.526 246.157C228.373 246 228.297 245.804 228.297 245.57V245.25H229.105ZM232.088 246.5C231.503 246.5 231.026 246.33 230.655 245.99C230.375 245.735 230.172 245.415 230.045 245.029C229.918 244.643 229.854 244.15 229.854 243.55C229.854 242.956 229.941 242.443 230.114 242.011C230.291 241.574 230.546 241.241 230.876 241.012C231.211 240.778 231.608 240.662 232.065 240.662C232.421 240.662 232.736 240.738 233.01 240.89C233.29 241.038 233.508 241.251 233.666 241.531C233.823 241.805 233.907 242.125 233.917 242.491H233.17C233.094 242.491 233.028 242.466 232.972 242.415C232.921 242.364 232.888 242.295 232.873 242.209C232.832 242.016 232.741 241.863 232.598 241.752C232.461 241.64 232.288 241.584 232.08 241.584C231.674 241.584 231.371 241.739 231.173 242.049C230.975 242.354 230.871 242.836 230.861 243.497L230.67 243.306H230.685L230.533 243.383C230.726 243.118 230.955 242.92 231.219 242.788C231.488 242.651 231.788 242.582 232.118 242.582C232.464 242.582 232.784 242.671 233.079 242.849C233.373 243.022 233.605 243.261 233.772 243.566C233.945 243.865 234.031 244.191 234.031 244.541C234.031 244.892 233.942 245.217 233.765 245.517C233.592 245.817 233.356 246.056 233.056 246.233C232.761 246.411 232.438 246.5 232.088 246.5ZM232.073 245.601C232.362 245.601 232.598 245.504 232.781 245.311C232.964 245.113 233.056 244.859 233.056 244.549C233.056 244.239 232.962 243.985 232.774 243.787C232.586 243.589 232.344 243.489 232.05 243.489C231.724 243.489 231.463 243.586 231.265 243.779C231.071 243.972 230.975 244.226 230.975 244.541C230.975 244.851 231.077 245.105 231.28 245.304C231.488 245.502 231.752 245.601 232.073 245.601ZM235.937 244.061C235.658 244.061 235.409 243.99 235.19 243.848C234.977 243.705 234.809 243.505 234.687 243.246C234.57 242.986 234.512 242.692 234.512 242.361C234.512 242.031 234.573 241.739 234.695 241.485C234.817 241.226 234.985 241.025 235.198 240.883C235.417 240.735 235.663 240.662 235.937 240.662C236.217 240.662 236.463 240.733 236.677 240.875C236.89 241.017 237.055 241.218 237.172 241.477C237.289 241.731 237.348 242.026 237.348 242.361C237.348 242.692 237.289 242.986 237.172 243.246C237.055 243.505 236.89 243.705 236.677 243.848C236.463 243.99 236.217 244.061 235.937 244.061ZM239.314 246.5C239.035 246.5 238.786 246.429 238.567 246.287C238.354 246.144 238.186 245.944 238.064 245.685C237.947 245.425 237.889 245.131 237.889 244.8C237.889 244.47 237.95 244.178 238.072 243.924C238.194 243.665 238.361 243.464 238.575 243.322C238.793 243.174 239.04 243.101 239.314 243.101C239.594 243.101 239.84 243.172 240.053 243.314C240.267 243.456 240.432 243.657 240.549 243.916C240.666 244.17 240.724 244.465 240.724 244.8C240.724 245.131 240.666 245.425 240.549 245.685C240.432 245.944 240.267 246.144 240.053 246.287C239.84 246.429 239.594 246.5 239.314 246.5ZM239.703 240.784L236.486 246.386H235.533L238.75 240.784H239.703ZM235.937 243.223C236.08 243.223 236.191 243.149 236.273 243.002C236.359 242.849 236.402 242.636 236.402 242.361C236.402 242.102 236.359 241.894 236.273 241.736C236.186 241.579 236.075 241.5 235.937 241.5C235.795 241.5 235.681 241.576 235.594 241.729C235.513 241.881 235.472 242.092 235.472 242.361C235.472 242.626 235.516 242.836 235.602 242.994C235.688 243.146 235.8 243.223 235.937 243.223ZM239.314 245.662C239.456 245.662 239.568 245.588 239.649 245.441C239.736 245.288 239.779 245.075 239.779 244.8C239.779 244.541 239.736 244.333 239.649 244.175C239.563 244.018 239.451 243.939 239.314 243.939C239.172 243.939 239.057 244.015 238.971 244.168C238.89 244.32 238.849 244.531 238.849 244.8C238.849 245.065 238.892 245.276 238.979 245.433C239.065 245.586 239.177 245.662 239.314 245.662Z" fill="#1DC9B7"/>
<rect x="106.197" y="241.734" width="29.2185" height="3.80691" rx="1.27037" fill="#E6E5ED"/>
<rect x="157.646" y="241.734" width="29.2185" height="3.80691" rx="1.27037" fill="#E6E5ED"/>
<g filter="url(#filter1_d_8547_18037)">
<rect x="16" y="166.863" width="337.234" height="36.8001" rx="6.35185" fill="white"/>
<rect x="16.4018" y="167.265" width="336.431" height="35.9965" rx="5.95006" stroke="#F4F2F7" stroke-width="0.803583"/>
</g>
<rect x="30.1699" y="180.309" width="9.91866" height="9.90772" rx="1.90556" fill="#17BD8D"/>
<path d="M33.063 185.263L34.4406 186.501L37.1958 184.024" stroke="white" stroke-width="0.952778" stroke-linecap="round" stroke-linejoin="round"/>
<path d="M332.688 190.924C333.809 189.804 334.573 188.378 334.882 186.825C335.191 185.271 335.033 183.662 334.426 182.199C333.819 180.736 332.792 179.485 331.474 178.605C330.156 177.725 328.606 177.256 327.021 177.256C325.435 177.256 323.885 177.725 322.567 178.605C321.249 179.485 320.222 180.736 319.615 182.199C319.008 183.662 318.85 185.271 319.159 186.825C319.468 188.378 320.232 189.804 321.353 190.924" stroke="#2E00FF" stroke-width="0.952778"/>
<ellipse cx="327.02" cy="185.262" rx="1.74394" ry="1.74202" fill="#2E00FF"/>
<path d="M331.121 189.174L328.328 184.393L326.148 186.57L331.121 189.174Z" fill="#2E00FF"/>
<path fill-rule="evenodd" clip-rule="evenodd" d="M56.1178 177.452C56.3173 177.352 56.5521 177.352 56.7515 177.452L63.8361 181.014C64.0761 181.134 64.2278 181.381 64.2278 181.651V188.773C64.2278 189.043 64.0761 189.29 63.8361 189.411L56.7515 192.972C56.5521 193.072 56.3173 193.072 56.1178 192.972L49.0332 189.411C48.7932 189.29 48.6416 189.043 48.6416 188.773V181.651C48.6416 181.381 48.7932 181.134 49.0332 181.014L56.1178 177.452ZM50.0585 182.091V188.333L56.4347 191.538L62.8108 188.333V182.091L56.4347 178.886L50.0585 182.091Z" fill="#2E00FF"/>
<path fill-rule="evenodd" clip-rule="evenodd" d="M60.6108 179.552C60.7858 179.904 60.6439 180.332 60.294 180.508L54.4767 183.432L56.4348 184.416L63.2026 181.014C63.5526 180.838 63.9781 180.981 64.1531 181.333C64.3281 181.685 64.1863 182.112 63.8363 182.288L57.1433 185.653V192.336C57.1433 192.729 56.8261 193.048 56.4348 193.048C56.0436 193.048 55.7264 192.729 55.7264 192.336V185.653L52.5821 184.072C52.5775 184.07 52.5729 184.068 52.5683 184.065L49.0334 182.288C48.6834 182.112 48.5416 181.685 48.7166 181.333C48.8915 180.981 49.3171 180.838 49.6671 181.014L52.8925 182.636L59.6603 179.234C60.0103 179.058 60.4358 179.2 60.6108 179.552Z" fill="#2E00FF"/>
<path d="M232.044 184.022C231.963 184.043 231.889 184.02 231.823 183.954C231.762 183.883 231.732 183.801 231.732 183.71V183.253L233.035 182.689H233.896V188.321H232.875V183.794L232.044 184.022ZM237.057 188.436C236.473 188.436 235.995 188.266 235.624 187.925C235.345 187.671 235.142 187.351 235.015 186.965C234.888 186.578 234.824 186.086 234.824 185.486C234.824 184.891 234.91 184.378 235.083 183.946C235.261 183.509 235.515 183.176 235.845 182.948C236.181 182.714 236.577 182.597 237.034 182.597C237.39 182.597 237.705 182.673 237.98 182.826C238.259 182.973 238.478 183.187 238.635 183.466C238.793 183.74 238.877 184.061 238.887 184.426H238.14C238.063 184.426 237.997 184.401 237.942 184.35C237.891 184.299 237.858 184.231 237.842 184.144C237.802 183.951 237.71 183.799 237.568 183.687C237.431 183.575 237.258 183.519 237.05 183.519C236.643 183.519 236.341 183.674 236.143 183.984C235.945 184.289 235.84 184.772 235.83 185.433L235.64 185.242H235.655L235.502 185.318C235.696 185.054 235.924 184.856 236.188 184.724C236.458 184.587 236.758 184.518 237.088 184.518C237.433 184.518 237.754 184.607 238.048 184.785C238.343 184.957 238.574 185.196 238.742 185.501C238.915 185.801 239.001 186.126 239.001 186.477C239.001 186.827 238.912 187.153 238.734 187.452C238.561 187.752 238.325 187.991 238.025 188.169C237.731 188.347 237.408 188.436 237.057 188.436ZM237.042 187.536C237.332 187.536 237.568 187.44 237.751 187.247C237.934 187.049 238.025 186.794 238.025 186.484C238.025 186.174 237.931 185.92 237.743 185.722C237.555 185.524 237.314 185.425 237.019 185.425C236.694 185.425 236.432 185.522 236.234 185.715C236.041 185.908 235.945 186.162 235.945 186.477C235.945 186.787 236.046 187.041 236.249 187.239C236.458 187.437 236.722 187.536 237.042 187.536ZM239.497 187.041V186.218L242.18 182.666H242.965V186.149H243.826V187.041H242.965V188.321H241.959V187.041H239.497ZM241.959 186.149V184.083H242.226L240.495 186.378V186.149H241.959ZM245.14 187.186C245.227 187.186 245.3 187.216 245.361 187.277C245.422 187.338 245.453 187.412 245.453 187.498V188.321H245.148C244.914 188.321 244.719 188.245 244.561 188.093C244.409 187.935 244.332 187.74 244.332 187.506V187.186H245.14ZM246.159 184.541C246.179 183.956 246.362 183.491 246.707 183.146C246.88 182.973 247.096 182.841 247.355 182.75C247.614 182.653 247.894 182.605 248.194 182.605C248.57 182.605 248.905 182.681 249.2 182.833C249.495 182.986 249.723 183.199 249.886 183.474C250.048 183.743 250.13 184.05 250.13 184.396C250.13 184.747 250.059 185.039 249.916 185.273C249.774 185.506 249.601 185.694 249.398 185.837C249.2 185.974 248.903 186.152 248.506 186.37C248.171 186.558 247.901 186.728 247.698 186.881C247.5 187.033 247.355 187.183 247.264 187.331H250.023V188.321H246.021C246.011 187.813 246.103 187.386 246.296 187.041C246.494 186.695 246.723 186.426 246.982 186.233C247.241 186.035 247.604 185.801 248.072 185.532C248.336 185.379 248.534 185.255 248.666 185.158C248.803 185.062 248.908 184.955 248.979 184.838C249.05 184.716 249.085 184.571 249.085 184.404C249.085 184.134 248.999 183.921 248.826 183.763C248.659 183.601 248.43 183.519 248.14 183.519C247.846 183.519 247.614 183.608 247.447 183.786C247.34 183.893 247.269 184.053 247.233 184.266C247.218 184.348 247.182 184.414 247.127 184.465C247.076 184.515 247.012 184.541 246.936 184.541H246.159ZM252.241 185.997C251.961 185.997 251.712 185.925 251.494 185.783C251.28 185.641 251.112 185.44 250.991 185.181C250.874 184.922 250.815 184.627 250.815 184.297C250.815 183.967 250.876 183.674 250.998 183.42C251.12 183.161 251.288 182.96 251.501 182.818C251.72 182.671 251.966 182.597 252.241 182.597C252.52 182.597 252.767 182.668 252.98 182.811C253.193 182.953 253.359 183.154 253.475 183.413C253.592 183.667 253.651 183.962 253.651 184.297C253.651 184.627 253.592 184.922 253.475 185.181C253.359 185.44 253.193 185.641 252.98 185.783C252.767 185.925 252.52 185.997 252.241 185.997ZM255.617 188.436C255.338 188.436 255.089 188.365 254.87 188.222C254.657 188.08 254.489 187.879 254.367 187.62C254.25 187.361 254.192 187.066 254.192 186.736C254.192 186.406 254.253 186.114 254.375 185.859C254.497 185.6 254.664 185.4 254.878 185.257C255.096 185.11 255.343 185.036 255.617 185.036C255.897 185.036 256.143 185.107 256.357 185.25C256.57 185.392 256.735 185.593 256.852 185.852C256.969 186.106 257.027 186.401 257.027 186.736C257.027 187.066 256.969 187.361 256.852 187.62C256.735 187.879 256.57 188.08 256.357 188.222C256.143 188.365 255.897 188.436 255.617 188.436ZM256.006 182.719L252.789 188.321H251.837L255.053 182.719H256.006ZM252.241 185.158C252.383 185.158 252.495 185.085 252.576 184.937C252.662 184.785 252.706 184.571 252.706 184.297C252.706 184.038 252.662 183.829 252.576 183.672C252.49 183.514 252.378 183.436 252.241 183.436C252.098 183.436 251.984 183.512 251.898 183.664C251.816 183.817 251.776 184.028 251.776 184.297C251.776 184.561 251.819 184.772 251.905 184.93C251.992 185.082 252.103 185.158 252.241 185.158ZM255.617 187.597C255.76 187.597 255.871 187.524 255.953 187.376C256.039 187.224 256.082 187.01 256.082 186.736C256.082 186.477 256.039 186.268 255.953 186.111C255.866 185.953 255.754 185.875 255.617 185.875C255.475 185.875 255.361 185.951 255.274 186.103C255.193 186.256 255.152 186.467 255.152 186.736C255.152 187 255.195 187.211 255.282 187.369C255.368 187.521 255.48 187.597 255.617 187.597Z" fill="#1DC9B7"/>
<rect x="79.7627" y="182.635" width="40.3494" height="5.25716" rx="1.27037" fill="#E6E5ED"/>
<rect x="147.86" y="182.635" width="40.3494" height="5.25716" rx="1.27037" fill="#E6E5ED"/>
<rect x="61.7334" y="52.6562" width="19.0556" height="19.0345" rx="3.81111" fill="#FFECEB"/>
<path d="M70.4792 59.4473C70.5008 59.4911 70.515 59.5381 70.5214 59.5864L70.6393 61.3375L70.6978 62.2177C70.6984 62.3082 70.7126 62.3981 70.74 62.4846C70.8107 62.6523 70.9807 62.7589 71.1657 62.7515L73.9848 62.5673C74.1069 62.5653 74.2248 62.6109 74.3125 62.6941C74.3857 62.7634 74.4329 62.8541 74.4478 62.9516L74.4527 63.0108C74.3361 64.6244 73.1497 65.9703 71.5377 66.3177C69.9257 66.6651 68.2726 65.9312 67.476 64.5144C67.2464 64.1028 67.1029 63.6504 67.0541 63.1838C67.0337 63.0456 67.0247 62.9061 67.0273 62.7665C67.0248 61.0366 68.258 59.541 69.9844 59.1804C70.1922 59.1481 70.3959 59.258 70.4792 59.4473Z" fill="#FF7979"/>
<path opacity="0.4" d="M71.6301 57.9437C73.561 57.9928 75.1838 59.3797 75.4962 61.2479L75.4932 61.2617L75.4847 61.2817L75.4859 61.3367C75.4815 61.4096 75.4533 61.4798 75.4047 61.5364C75.3541 61.5955 75.285 61.6356 75.2089 61.6512L75.1625 61.6576L71.91 61.8681C71.8019 61.8788 71.6941 61.8439 71.6137 61.7722C71.5466 61.7125 71.5038 61.6319 71.4917 61.545L71.2734 58.3008C71.2696 58.2898 71.2696 58.278 71.2734 58.267C71.2763 58.1776 71.3157 58.093 71.3828 58.0323C71.4498 57.9715 71.5389 57.9396 71.6301 57.9437Z" fill="#FF7979"/>
<path d="M87.1868 66.1934H88.5385V59.0793H87.1868V66.1934ZM89.7743 66.1934H91.0243V63.3985C91.0243 62.6465 91.5122 62.0977 92.2134 62.0977C92.8537 62.0977 93.2805 62.5855 93.2805 63.2868V66.1934H94.5306V63.0225C94.5306 61.8233 93.7785 60.9899 92.6199 60.9899C91.8882 60.9899 91.3089 61.305 91.0243 61.8639V61.0712H89.7743V66.1934ZM96.8237 66.1934H97.9925L99.8726 61.0712H98.5921L97.4132 64.6079L96.2241 61.0712H94.9537L96.8237 66.1934ZM103.821 64.486C103.689 64.9738 103.272 65.238 102.632 65.238C101.839 65.238 101.311 64.7096 101.219 63.8864H105C105.01 63.7847 105.02 63.6323 105.02 63.4595C105.02 62.24 104.248 60.9899 102.53 60.9899C100.854 60.9899 100.02 62.2603 100.02 63.612C100.02 64.9535 100.955 66.2747 102.632 66.2747C103.892 66.2747 104.848 65.5734 105.041 64.486H103.821ZM102.53 61.9249C103.272 61.9249 103.719 62.4127 103.77 63.0632H101.25C101.382 62.2908 101.829 61.9249 102.53 61.9249ZM105.882 66.1934H107.132V63.3985C107.132 62.6465 107.62 62.0977 108.321 62.0977C108.962 62.0977 109.388 62.5855 109.388 63.2868V66.1934H110.638V63.0225C110.638 61.8233 109.886 60.9899 108.728 60.9899C107.996 60.9899 107.417 61.305 107.132 61.8639V61.0712H105.882V66.1934ZM112.219 59.5265V61.0712H111.213V62.118H112.219V64.4047C112.219 65.5429 112.951 66.1934 114.069 66.1934H114.892V65.1364H114.211C113.743 65.1364 113.469 64.8722 113.469 64.3539V62.118H114.892V61.0712H113.469V59.5265H112.219ZM117.997 66.2747C119.552 66.2747 120.67 65.1567 120.67 63.6323C120.67 62.1078 119.552 60.9899 117.997 60.9899C116.432 60.9899 115.314 62.1078 115.314 63.6323C115.314 65.1567 116.432 66.2747 117.997 66.2747ZM117.997 65.1974C117.144 65.1974 116.574 64.5571 116.574 63.6323C116.574 62.7075 117.144 62.0672 117.997 62.0672C118.841 62.0672 119.41 62.7075 119.41 63.6323C119.41 64.5571 118.841 65.1974 117.997 65.1974ZM124.674 62.118V61.0712H124.075C123.414 61.0712 123.018 61.3253 122.764 61.9757V61.0712H121.514V66.1934H122.764V63.7746C122.764 62.7989 123.079 62.118 123.872 62.118H124.674ZM129.835 61.0712H128.555L127.376 64.5876L126.187 61.0712H124.917L126.787 66.1934L126.065 68.2666H127.254L128.047 65.9494L129.835 61.0712Z" fill="#3A5271"/>
<rect x="263.723" y="53.291" width="42.5574" height="17.7852" rx="3.81111" fill="#F4F2F7"/>
<path d="M275.003 64.1843C274.972 63.7778 274.775 63.4475 274.47 63.2569C274.838 63.0663 275.067 62.7551 275.067 62.2978C275.067 61.4911 274.521 60.9258 273.593 60.9258H271.77V65.3721H272.615V63.7015H273.574C273.905 63.7015 274.14 63.9429 274.171 64.2796L274.279 65.3721H275.111L275.003 64.1843ZM272.615 61.6308H273.555C274.051 61.6308 274.254 61.9421 274.254 62.2978C274.254 62.6535 274.051 62.9774 273.555 62.9774H272.615V61.6308ZM277.899 64.305C277.817 64.6098 277.556 64.775 277.156 64.775C276.66 64.775 276.33 64.4447 276.273 63.9302H278.636C278.642 63.8667 278.649 63.7714 278.649 63.6634C278.649 62.9012 278.166 62.1199 277.092 62.1199C276.044 62.1199 275.524 62.9139 275.524 63.7587C275.524 64.5971 276.108 65.4229 277.156 65.4229C277.944 65.4229 278.541 64.9846 278.661 64.305H277.899ZM277.092 62.7043C277.556 62.7043 277.836 63.0092 277.867 63.4157H276.292C276.375 62.933 276.654 62.7043 277.092 62.7043ZM280.642 65.4229C281.468 65.4229 282.09 64.9211 282.192 64.2224H281.404C281.328 64.54 281.042 64.7496 280.674 64.7496C280.127 64.7496 279.829 64.3304 279.829 63.7714C279.829 63.2124 280.121 62.7932 280.661 62.7932C281.029 62.7932 281.341 63.0219 281.398 63.3395H282.173C282.103 62.6027 281.449 62.1199 280.642 62.1199C279.645 62.1199 279.016 62.8567 279.016 63.7714C279.016 64.6861 279.645 65.4229 280.642 65.4229ZM284.197 65.4229C285.169 65.4229 285.868 64.7242 285.868 63.7714C285.868 62.8186 285.169 62.1199 284.197 62.1199C283.219 62.1199 282.52 62.8186 282.52 63.7714C282.52 64.7242 283.219 65.4229 284.197 65.4229ZM284.197 64.7496C283.664 64.7496 283.308 64.3494 283.308 63.7714C283.308 63.1934 283.664 62.7932 284.197 62.7932C284.725 62.7932 285.08 63.1934 285.08 63.7714C285.08 64.3494 284.725 64.7496 284.197 64.7496ZM288.371 62.825V62.1707H287.996C287.583 62.1707 287.335 62.3295 287.176 62.7361V62.1707H286.395V65.3721H287.176V63.8603C287.176 63.2506 287.373 62.825 287.869 62.825H288.371ZM290.056 65.4229C290.443 65.4229 290.799 65.2514 290.983 64.9719V65.3721H291.758V60.7987H290.983V62.5582C290.799 62.2978 290.462 62.1199 290.043 62.1199C289.096 62.1199 288.531 62.7932 288.531 63.7714C288.531 64.7496 289.096 65.4229 290.056 65.4229ZM290.17 64.7496C289.649 64.7496 289.306 64.3621 289.306 63.7714C289.306 63.1807 289.649 62.7932 290.17 62.7932C290.691 62.7932 291.034 63.1807 291.034 63.7714C291.034 64.3621 290.691 64.7496 290.17 64.7496ZM294.703 64.305C294.62 64.6098 294.36 64.775 293.96 64.775C293.464 64.775 293.134 64.4447 293.077 63.9302H295.44C295.446 63.8667 295.452 63.7714 295.452 63.6634C295.452 62.9012 294.97 62.1199 293.896 62.1199C292.848 62.1199 292.327 62.9139 292.327 63.7587C292.327 64.5971 292.912 65.4229 293.96 65.4229C294.747 65.4229 295.345 64.9846 295.465 64.305H294.703ZM293.896 62.7043C294.36 62.7043 294.639 63.0092 294.671 63.4157H293.096C293.179 62.933 293.458 62.7043 293.896 62.7043ZM297.967 62.825V62.1707H297.592C297.179 62.1707 296.931 62.3295 296.772 62.7361V62.1707H295.991V65.3721H296.772V63.8603C296.772 63.2506 296.969 62.825 297.465 62.825H297.967Z" fill="#597393"/>
<rect x="61.7334" y="84.3809" width="244.546" height="19.0345" rx="5.08148" fill="#FFF7EB"/>
<path d="M85.3564 97.1477C86.4883 97.1477 87.3617 96.4769 87.4665 95.5197H86.7328C86.656 96.0927 86.0761 96.5049 85.3494 96.5049C84.3992 96.5049 83.7144 95.8551 83.7144 94.6463C83.7144 93.4376 84.3992 92.7878 85.3494 92.7878C86.0621 92.7878 86.635 93.2 86.7189 93.773H87.4805C87.3477 92.8157 86.4673 92.145 85.3564 92.145C84.1127 92.145 82.9668 92.9694 82.9668 94.6463C82.9668 96.3232 84.0987 97.1477 85.3564 97.1477ZM88.1639 97.0918H88.8417V95.1843C88.8417 94.5695 89.2329 94.1223 89.7849 94.1223C90.281 94.1223 90.6094 94.4996 90.6094 95.0586V97.0918H91.2871V94.9258C91.2871 94.0874 90.7701 93.5144 89.9736 93.5144C89.4495 93.5144 89.0303 93.752 88.8417 94.1922V92.0961H88.1639V97.0918ZM93.7687 97.1477C94.8238 97.1477 95.5784 96.3861 95.5784 95.3311C95.5784 94.276 94.8238 93.5144 93.7687 93.5144C92.7137 93.5144 91.9521 94.276 91.9521 95.3311C91.9521 96.3861 92.7137 97.1477 93.7687 97.1477ZM93.7687 96.5538C93.098 96.5538 92.6438 96.0507 92.6438 95.3311C92.6438 94.6114 93.098 94.1083 93.7687 94.1083C94.4325 94.1083 94.8867 94.6114 94.8867 95.3311C94.8867 96.0507 94.4325 96.5538 93.7687 96.5538ZM97.8559 97.1477C98.9109 97.1477 99.6655 96.3861 99.6655 95.3311C99.6655 94.276 98.9109 93.5144 97.8559 93.5144C96.8008 93.5144 96.0392 94.276 96.0392 95.3311C96.0392 96.3861 96.8008 97.1477 97.8559 97.1477ZM97.8559 96.5538C97.1851 96.5538 96.731 96.0507 96.731 95.3311C96.731 94.6114 97.1851 94.1083 97.8559 94.1083C98.5196 94.1083 98.9738 94.6114 98.9738 95.3311C98.9738 96.0507 98.5196 96.5538 97.8559 96.5538ZM101.532 97.1477C102.328 97.1477 102.852 96.7355 102.852 96.0927C102.852 94.4856 100.84 95.38 100.84 94.5066C100.84 94.2341 101.084 94.0524 101.448 94.0524C101.748 94.0524 102.139 94.2131 102.188 94.6184H102.824C102.789 93.9546 102.244 93.5144 101.448 93.5144C100.714 93.5144 100.197 93.9197 100.197 94.5276C100.197 96.0298 102.195 95.1704 102.195 96.1066C102.195 96.3651 101.937 96.5817 101.532 96.5817C101.077 96.5817 100.784 96.3512 100.742 95.9459H100.106C100.155 96.6865 100.707 97.1477 101.532 97.1477ZM106.051 95.9459C105.953 96.3442 105.618 96.5678 105.101 96.5678C104.486 96.5678 104.053 96.1136 103.997 95.4498H106.687C106.694 95.387 106.701 95.2752 106.701 95.1843C106.701 94.29 106.121 93.5144 105.031 93.5144C103.948 93.5144 103.333 94.3249 103.333 95.3101C103.333 96.2883 104.011 97.1477 105.101 97.1477C105.967 97.1477 106.603 96.6726 106.729 95.9459H106.051ZM105.031 94.0594C105.611 94.0594 105.974 94.4158 106.016 94.9538H104.018C104.123 94.3669 104.479 94.0594 105.031 94.0594ZM109.036 98.5172H109.714V96.5957C109.917 96.9311 110.336 97.1477 110.804 97.1477C111.873 97.1477 112.509 96.3791 112.509 95.3311C112.509 94.283 111.901 93.5144 110.839 93.5144C110.35 93.5144 109.924 93.745 109.714 94.0944V93.5703H109.036V98.5172ZM110.741 96.5538C110.084 96.5538 109.658 96.0647 109.658 95.3311C109.658 94.5974 110.084 94.1083 110.741 94.1083C111.391 94.1083 111.824 94.5974 111.824 95.3311C111.824 96.0647 111.391 96.5538 110.741 96.5538ZM115.211 94.1572V93.5703H114.784C114.288 93.5703 114.009 93.7799 113.848 94.2481V93.5703H113.17V97.0918H113.848V95.4988C113.848 94.7302 114.058 94.1572 114.701 94.1572H115.211ZM117.234 97.1477C118.289 97.1477 119.044 96.3861 119.044 95.3311C119.044 94.276 118.289 93.5144 117.234 93.5144C116.179 93.5144 115.417 94.276 115.417 95.3311C115.417 96.3861 116.179 97.1477 117.234 97.1477ZM117.234 96.5538C116.563 96.5538 116.109 96.0507 116.109 95.3311C116.109 94.6114 116.563 94.1083 117.234 94.1083C117.898 94.1083 118.352 94.6114 118.352 95.3311C118.352 96.0507 117.898 96.5538 117.234 96.5538ZM121.195 97.1477C121.664 97.1477 122.097 96.9171 122.306 96.5678V97.0918H122.984V92.0961H122.306V94.0874C122.097 93.745 121.67 93.5144 121.188 93.5144C120.112 93.5144 119.505 94.283 119.505 95.3311C119.505 96.3791 120.112 97.1477 121.195 97.1477ZM121.272 96.5538C120.622 96.5538 120.196 96.0647 120.196 95.3311C120.196 94.5974 120.622 94.1083 121.272 94.1083C121.929 94.1083 122.355 94.5974 122.355 95.3311C122.355 96.0647 121.929 96.5538 121.272 96.5538ZM126.883 93.5703H126.206V95.4778C126.206 96.0927 125.814 96.5398 125.262 96.5398C124.766 96.5398 124.438 96.1625 124.438 95.6036V93.5703H123.76V95.7363C123.76 96.5748 124.277 97.1477 125.074 97.1477C125.598 97.1477 126.017 96.9101 126.206 96.47V97.0918H126.883V93.5703ZM129.296 97.1477C130.19 97.1477 130.819 96.6446 130.931 95.904H130.26C130.148 96.3023 129.792 96.5538 129.31 96.5538C128.611 96.5538 128.255 96.0088 128.255 95.3311C128.255 94.6533 128.604 94.1083 129.31 94.1083C129.785 94.1083 130.19 94.4018 130.253 94.8H130.931C130.833 94.0035 130.12 93.5144 129.296 93.5144C128.185 93.5144 127.549 94.3599 127.549 95.3311C127.549 96.3023 128.185 97.1477 129.296 97.1477ZM131.93 92.4664V93.5703H131.211V94.1572H131.93V95.9389C131.93 96.6586 132.384 97.0918 133.097 97.0918H133.649V96.5049H133.153C132.811 96.5049 132.608 96.2953 132.608 95.918V94.1572H133.649V93.5703H132.608V92.4664H131.93ZM138.73 93.5703H138.031L137.102 96.2114L136.18 93.5703H135.481L136.788 97.1267L136.312 98.5172H136.962L137.493 96.966L138.73 93.5703ZM140.733 97.1477C141.788 97.1477 142.543 96.3861 142.543 95.3311C142.543 94.276 141.788 93.5144 140.733 93.5144C139.678 93.5144 138.917 94.276 138.917 95.3311C138.917 96.3861 139.678 97.1477 140.733 97.1477ZM140.733 96.5538C140.063 96.5538 139.608 96.0507 139.608 95.3311C139.608 94.6114 140.063 94.1083 140.733 94.1083C141.397 94.1083 141.851 94.6114 141.851 95.3311C141.851 96.0507 141.397 96.5538 140.733 96.5538ZM146.33 93.5703H145.652V95.4778C145.652 96.0927 145.261 96.5398 144.709 96.5398C144.213 96.5398 143.884 96.1625 143.884 95.6036V93.5703H143.207V95.7363C143.207 96.5748 143.724 97.1477 144.52 97.1477C145.044 97.1477 145.463 96.9101 145.652 96.47V97.0918H146.33V93.5703ZM149.577 97.0918H150.206L151.002 94.4647L151.806 97.0918H152.435L153.525 93.5703H152.84L152.12 96.1905L151.331 93.5703H150.688L149.891 96.1905L149.165 93.5703H148.487L149.577 97.0918ZM155.316 93.5144C154.485 93.5144 153.856 94.0315 153.8 94.7232H154.429C154.45 94.3669 154.806 94.0594 155.295 94.0594C155.84 94.0594 156.148 94.3529 156.148 94.7791C156.148 94.9049 156.071 94.9887 155.91 94.9887H155.176C154.345 94.9887 153.807 95.4079 153.807 96.0857C153.807 96.7145 154.282 97.1477 155.002 97.1477C155.533 97.1477 155.98 96.8962 156.148 96.5189V97.0918H156.825V94.821C156.825 94.0385 156.224 93.5144 155.316 93.5144ZM155.134 96.6097C154.743 96.6097 154.478 96.3931 154.478 96.0717C154.478 95.7014 154.778 95.4638 155.239 95.4638H156.148V95.5477C156.148 96.1975 155.777 96.6097 155.134 96.6097ZM157.61 97.0918H158.288V95.1843C158.288 94.5695 158.679 94.1223 159.231 94.1223C159.728 94.1223 160.056 94.4996 160.056 95.0586V97.0918H160.734V94.9258C160.734 94.0874 160.217 93.5144 159.42 93.5144C158.896 93.5144 158.477 93.752 158.288 94.1922V93.5703H157.61V97.0918ZM161.884 92.4664V93.5703H161.165V94.1572H161.884V95.9389C161.884 96.6586 162.339 97.0918 163.051 97.0918H163.603V96.5049H163.107C162.765 96.5049 162.562 96.2953 162.562 95.918V94.1572H163.603V93.5703H162.562V92.4664H161.884ZM166.197 92.4664V93.5703H165.477V94.1572H166.197V95.9389C166.197 96.6586 166.651 97.0918 167.364 97.0918H167.916V96.5049H167.42C167.077 96.5049 166.875 96.2953 166.875 95.918V94.1572H167.916V93.5703H166.875V92.4664H166.197ZM170.026 97.1477C171.081 97.1477 171.835 96.3861 171.835 95.3311C171.835 94.276 171.081 93.5144 170.026 93.5144C168.971 93.5144 168.209 94.276 168.209 95.3311C168.209 96.3861 168.971 97.1477 170.026 97.1477ZM170.026 96.5538C169.355 96.5538 168.901 96.0507 168.901 95.3311C168.901 94.6114 169.355 94.1083 170.026 94.1083C170.689 94.1083 171.144 94.6114 171.144 95.3311C171.144 96.0507 170.689 96.5538 170.026 96.5538ZM176.149 94.1572V93.5703H175.723C175.227 93.5703 174.948 93.7799 174.787 94.2481V93.5703H174.109V97.0918H174.787V95.4988C174.787 94.7302 174.996 94.1572 175.639 94.1572H176.149ZM179.074 95.9459C178.976 96.3442 178.641 96.5678 178.124 96.5678C177.509 96.5678 177.076 96.1136 177.02 95.4498H179.71C179.717 95.387 179.724 95.2752 179.724 95.1843C179.724 94.29 179.144 93.5144 178.054 93.5144C176.971 93.5144 176.356 94.3249 176.356 95.3101C176.356 96.2883 177.034 97.1477 178.124 97.1477C178.99 97.1477 179.626 96.6726 179.752 95.9459H179.074ZM178.054 94.0594C178.634 94.0594 178.997 94.4158 179.039 94.9538H177.041C177.146 94.3669 177.502 94.0594 178.054 94.0594ZM182.028 97.1477C183.083 97.1477 183.837 96.3861 183.837 95.3311C183.837 94.276 183.083 93.5144 182.028 93.5144C180.973 93.5144 180.211 94.276 180.211 95.3311C180.211 96.3861 180.973 97.1477 182.028 97.1477ZM182.028 96.5538C181.357 96.5538 180.903 96.0507 180.903 95.3311C180.903 94.6114 181.357 94.1083 182.028 94.1083C182.692 94.1083 183.146 94.6114 183.146 95.3311C183.146 96.0507 182.692 96.5538 182.028 96.5538ZM186.541 94.1572V93.5703H186.115C185.619 93.5703 185.339 93.7799 185.179 94.2481V93.5703H184.501V97.0918H185.179V95.4988C185.179 94.7302 185.388 94.1572 186.031 94.1572H186.541ZM188.439 97.1477C188.907 97.1477 189.34 96.9171 189.55 96.5678V97.0918H190.227V92.0961H189.55V94.0874C189.34 93.745 188.914 93.5144 188.432 93.5144C187.356 93.5144 186.748 94.283 186.748 95.3311C186.748 96.3791 187.356 97.1477 188.439 97.1477ZM188.516 96.5538C187.866 96.5538 187.44 96.0647 187.44 95.3311C187.44 94.5974 187.866 94.1083 188.516 94.1083C189.172 94.1083 189.599 94.5974 189.599 95.3311C189.599 96.0647 189.172 96.5538 188.516 96.5538ZM193.635 95.9459C193.537 96.3442 193.202 96.5678 192.685 96.5678C192.07 96.5678 191.637 96.1136 191.581 95.4498H194.271C194.278 95.387 194.285 95.2752 194.285 95.1843C194.285 94.29 193.705 93.5144 192.615 93.5144C191.532 93.5144 190.917 94.3249 190.917 95.3101C190.917 96.2883 191.595 97.1477 192.685 97.1477C193.551 97.1477 194.187 96.6726 194.313 95.9459H193.635ZM192.615 94.0594C193.195 94.0594 193.558 94.4158 193.6 94.9538H191.602C191.706 94.3669 192.063 94.0594 192.615 94.0594ZM197.015 94.1572V93.5703H196.589C196.093 93.5703 195.813 93.7799 195.652 94.2481V93.5703H194.975V97.0918H195.652V95.4988C195.652 94.7302 195.862 94.1572 196.505 94.1572H197.015ZM200.568 93.5144C199.737 93.5144 199.108 94.0315 199.052 94.7232H199.681C199.702 94.3669 200.058 94.0594 200.547 94.0594C201.092 94.0594 201.4 94.3529 201.4 94.7791C201.4 94.9049 201.323 94.9887 201.162 94.9887H200.428C199.597 94.9887 199.059 95.4079 199.059 96.0857C199.059 96.7145 199.534 97.1477 200.254 97.1477C200.785 97.1477 201.232 96.8962 201.4 96.5189V97.0918H202.077V94.821C202.077 94.0385 201.476 93.5144 200.568 93.5144ZM200.386 96.6097C199.995 96.6097 199.73 96.3931 199.73 96.0717C199.73 95.7014 200.03 95.4638 200.491 95.4638H201.4V95.5477C201.4 96.1975 201.029 96.6097 200.386 96.6097ZM202.862 97.0918H203.54V95.1843C203.54 94.5695 203.931 94.1223 204.483 94.1223C204.979 94.1223 205.308 94.4996 205.308 95.0586V97.0918H205.986V94.9258C205.986 94.0874 205.469 93.5144 204.672 93.5144C204.148 93.5144 203.729 93.752 203.54 94.1922V93.5703H202.862V97.0918ZM208.342 97.1477C208.81 97.1477 209.244 96.9171 209.453 96.5678V97.0918H210.131V92.0961H209.453V94.0874C209.244 93.745 208.817 93.5144 208.335 93.5144C207.259 93.5144 206.651 94.283 206.651 95.3311C206.651 96.3791 207.259 97.1477 208.342 97.1477ZM208.419 96.5538C207.769 96.5538 207.343 96.0647 207.343 95.3311C207.343 94.5974 207.769 94.1083 208.419 94.1083C209.076 94.1083 209.502 94.5974 209.502 95.3311C209.502 96.0647 209.076 96.5538 208.419 96.5538ZM214.122 97.1477C214.59 97.1477 215.023 96.9171 215.233 96.5678V97.0918H215.91V92.0961H215.233V94.0874C215.023 93.745 214.597 93.5144 214.115 93.5144C213.039 93.5144 212.431 94.283 212.431 95.3311C212.431 96.3791 213.039 97.1477 214.122 97.1477ZM214.198 96.5538C213.549 96.5538 213.122 96.0647 213.122 95.3311C213.122 94.5974 213.549 94.1083 214.198 94.1083C214.855 94.1083 215.281 94.5974 215.281 95.3311C215.281 96.0647 214.855 96.5538 214.198 96.5538ZM218.186 93.5144C217.354 93.5144 216.726 94.0315 216.67 94.7232H217.298C217.319 94.3669 217.676 94.0594 218.165 94.0594C218.71 94.0594 219.017 94.3529 219.017 94.7791C219.017 94.9049 218.94 94.9887 218.78 94.9887H218.046C217.215 94.9887 216.677 95.4079 216.677 96.0857C216.677 96.7145 217.152 97.1477 217.871 97.1477C218.402 97.1477 218.85 96.8962 219.017 96.5189V97.0918H219.695V94.821C219.695 94.0385 219.094 93.5144 218.186 93.5144ZM218.004 96.6097C217.613 96.6097 217.347 96.3931 217.347 96.0717C217.347 95.7014 217.648 95.4638 218.109 95.4638H219.017V95.5477C219.017 96.1975 218.647 96.6097 218.004 96.6097ZM223.25 93.5703H222.551L221.622 96.2114L220.7 93.5703H220.001L221.308 97.1267L220.832 98.5172H221.482L222.013 96.966L223.25 93.5703ZM224.931 97.1477C225.727 97.1477 226.251 96.7355 226.251 96.0927C226.251 94.4856 224.239 95.38 224.239 94.5066C224.239 94.2341 224.483 94.0524 224.847 94.0524C225.147 94.0524 225.538 94.2131 225.587 94.6184H226.223C226.188 93.9546 225.643 93.5144 224.847 93.5144C224.113 93.5144 223.596 93.9197 223.596 94.5276C223.596 96.0298 225.594 95.1704 225.594 96.1066C225.594 96.3651 225.336 96.5817 224.931 96.5817C224.476 96.5817 224.183 96.3512 224.141 95.9459H223.505C223.554 96.6865 224.106 97.1477 224.931 97.1477ZM228.971 92.4664V93.5703H228.251V94.1572H228.971V95.9389C228.971 96.6586 229.425 97.0918 230.138 97.0918H230.69V96.5049H230.194C229.851 96.5049 229.649 96.2953 229.649 95.918V94.1572H230.69V93.5703H229.649V92.4664H228.971ZM232.8 97.1477C233.855 97.1477 234.609 96.3861 234.609 95.3311C234.609 94.276 233.855 93.5144 232.8 93.5144C231.745 93.5144 230.983 94.276 230.983 95.3311C230.983 96.3861 231.745 97.1477 232.8 97.1477ZM232.8 96.5538C232.129 96.5538 231.675 96.0507 231.675 95.3311C231.675 94.6114 232.129 94.1083 232.8 94.1083C233.464 94.1083 233.918 94.6114 233.918 95.3311C233.918 96.0507 233.464 96.5538 232.8 96.5538ZM238.12 97.1477C238.917 97.1477 239.441 96.7355 239.441 96.0927C239.441 94.4856 237.428 95.38 237.428 94.5066C237.428 94.2341 237.673 94.0524 238.036 94.0524C238.337 94.0524 238.728 94.2131 238.777 94.6184H239.413C239.378 93.9546 238.833 93.5144 238.036 93.5144C237.303 93.5144 236.785 93.9197 236.785 94.5276C236.785 96.0298 238.784 95.1704 238.784 96.1066C238.784 96.3651 238.525 96.5817 238.12 96.5817C237.666 96.5817 237.372 96.3512 237.33 95.9459H236.695C236.744 96.6865 237.296 97.1477 238.12 97.1477ZM243.268 93.5703H242.59V95.4778C242.59 96.0927 242.199 96.5398 241.647 96.5398C241.151 96.5398 240.823 96.1625 240.823 95.6036V93.5703H240.145V95.7363C240.145 96.5748 240.662 97.1477 241.458 97.1477C241.982 97.1477 242.402 96.9101 242.59 96.47V97.0918H243.268V93.5703ZM244.171 98.5172H244.849V96.5957C245.052 96.9311 245.471 97.1477 245.939 97.1477C247.008 97.1477 247.644 96.3791 247.644 95.3311C247.644 94.283 247.036 93.5144 245.974 93.5144C245.485 93.5144 245.059 93.745 244.849 94.0944V93.5703H244.171V98.5172ZM245.876 96.5538C245.219 96.5538 244.793 96.0647 244.793 95.3311C244.793 94.5974 245.219 94.1083 245.876 94.1083C246.526 94.1083 246.959 94.5974 246.959 95.3311C246.959 96.0647 246.526 96.5538 245.876 96.5538ZM248.34 98.5172H249.018V96.5957C249.221 96.9311 249.64 97.1477 250.108 97.1477C251.177 97.1477 251.813 96.3791 251.813 95.3311C251.813 94.283 251.205 93.5144 250.143 93.5144C249.654 93.5144 249.228 93.745 249.018 94.0944V93.5703H248.34V98.5172ZM250.045 96.5538C249.388 96.5538 248.962 96.0647 248.962 95.3311C248.962 94.5974 249.388 94.1083 250.045 94.1083C250.695 94.1083 251.128 94.5974 251.128 95.3311C251.128 96.0647 250.695 96.5538 250.045 96.5538ZM252.509 97.0918H253.187V92.0961H252.509V97.0918ZM256.977 93.5703H256.279L255.349 96.2114L254.427 93.5703H253.728L255.035 97.1267L254.56 98.5172H255.21L255.741 96.966L256.977 93.5703Z" fill="#5D5B70"/>
<ellipse opacity="0.2" cx="72.8494" cy="94.2159" rx="4.1287" ry="4.12415" fill="#FFA114"/>
<defs>
<filter id="filter0_d_8547_18037" x="23.6222" y="24.7281" width="320.768" height="279.849" filterUnits="userSpaceOnUse" color-interpolation-filters="sRGB">
<feFlood flood-opacity="0" result="BackgroundImageFix"/>
<feColorMatrix in="SourceAlpha" type="matrix" values="0 0 0 0 0 0 0 0 0 0 0 0 0 0 0 0 0 0 127 0" result="hardAlpha"/>
<feOffset dy="9.52778"/>
<feGaussianBlur stdDeviation="9.52778"/>
<feColorMatrix type="matrix" values="0 0 0 0 0.105882 0 0 0 0 0.301961 0 0 0 0 0.678431 0 0 0 0.08 0"/>
<feBlend mode="normal" in2="BackgroundImageFix" result="effect1_dropShadow_8547_18037"/>
<feBlend mode="normal" in="SourceGraphic" in2="effect1_dropShadow_8547_18037" result="shape"/>
</filter>
<filter id="filter1_d_8547_18037" x="-9.40741" y="150.348" width="388.049" height="87.6146" filterUnits="userSpaceOnUse" color-interpolation-filters="sRGB">
<feFlood flood-opacity="0" result="BackgroundImageFix"/>
<feColorMatrix in="SourceAlpha" type="matrix" values="0 0 0 0 0 0 0 0 0 0 0 0 0 0 0 0 0 0 127 0" result="hardAlpha"/>
<feOffset dy="8.89259"/>
<feGaussianBlur stdDeviation="12.7037"/>
<feComposite in2="hardAlpha" operator="out"/>
<feColorMatrix type="matrix" values="0 0 0 0 0 0 0 0 0 0 0 0 0 0 0 0 0 0 0.1 0"/>
<feBlend mode="normal" in2="BackgroundImageFix" result="effect1_dropShadow_8547_18037"/>
<feBlend mode="normal" in="SourceGraphic" in2="effect1_dropShadow_8547_18037" result="shape"/>
</filter>
</defs>
</svg>
