<svg width="58" height="58" viewBox="0 0 58 58" fill="none" xmlns="http://www.w3.org/2000/svg">
<circle opacity="0.05" cx="29" cy="29" r="29" fill="#2E00FF"/>
<path d="M36.3984 33.6769C36.3984 34.7272 35.5039 35.5805 34.3943 35.5805C33.861 35.5805 33.3621 35.3836 32.9922 35.0226L30.3172 32.4133L27.8657 34.9241C27.0486 35.761 25.6809 35.802 24.8036 35.0226L23.2897 33.6769C22.4123 32.8974 22.3693 31.5846 23.1865 30.7477L25.7497 28.1303L23.1865 25.6605C22.6102 25.1108 22.4381 24.2821 22.765 23.56C23.0832 22.8544 23.8402 22.4113 24.6401 22.4113H34.4029C35.5039 22.4113 36.3984 23.2646 36.3984 24.3149V33.6769ZM45 29C45 25.9477 44.3377 23.199 43.0217 20.7538C41.7056 18.3087 39.8649 16.4051 37.5166 15.0431C35.1598 13.681 32.5019 13 29.5258 13C26.5497 13 23.8832 13.6892 21.535 15.0759C19.1781 16.4626 17.3374 18.3662 16.0042 20.7867C14.6709 23.2072 14 25.9477 14 29C14 32.0523 14.6709 34.7928 16.0042 37.2133C17.3374 39.6421 19.1867 41.5456 21.535 42.9241C23.8832 44.3026 26.5497 45 29.5258 45C32.5019 45 35.1598 44.319 37.5166 42.9569C39.8649 41.5949 41.7056 39.6913 43.0217 37.2462C44.3463 34.801 45 32.0523 45 29Z" fill="#2E00FF"/>
</svg>
