<svg width="13" height="13" viewBox="0 0 13 13" fill="none" xmlns="http://www.w3.org/2000/svg">
<path d="M12.5617 4.75334L8.67013 4.2034L6.93052 0.774079C6.88301 0.680186 6.80484 0.604178 6.70828 0.557976C6.46612 0.441728 6.17184 0.538602 6.05076 0.774079L4.31114 4.2034L0.419628 4.75334C0.31234 4.76824 0.214247 4.81743 0.139145 4.89194C0.0483506 4.98269 -0.00168123 5.10477 4.31392e-05 5.23136C0.00176751 5.35796 0.055107 5.4787 0.148341 5.56708L2.9639 8.23631L2.29871 12.0054C2.28312 12.0931 2.29309 12.1833 2.32752 12.2657C2.36194 12.3482 2.41943 12.4196 2.49347 12.4719C2.56751 12.5242 2.65514 12.5552 2.74641 12.5616C2.83769 12.5679 2.92896 12.5492 3.00989 12.5077L6.49064 10.7282L9.97139 12.5077C10.0664 12.5569 10.1768 12.5733 10.2825 12.5554C10.5492 12.5107 10.7285 12.2648 10.6826 12.0054L10.0174 8.23631L12.8329 5.56708C12.9096 5.49405 12.9602 5.39867 12.9755 5.29434C13.0169 5.03353 12.8299 4.79209 12.5617 4.75334Z" fill="#FFA114"/>
</svg>
