<svg width="14" height="13" viewBox="0 0 14 13" fill="none" xmlns="http://www.w3.org/2000/svg">
<path opacity="0.2" d="M13.4562 4.75334L9.56467 4.2034L7.82505 0.774079C7.77754 0.680186 7.69937 0.604178 7.60281 0.557976C7.36065 0.441728 7.06637 0.538602 6.94529 0.774079L5.20568 4.2034L1.31416 4.75334C1.20687 4.76824 1.10878 4.81743 1.03368 4.89194C0.942882 4.98269 0.89285 5.10477 0.894574 5.23136C0.896299 5.35796 0.949638 5.4787 1.04287 5.56708L3.85844 8.23631L3.19325 12.0054C3.17765 12.0931 3.18762 12.1833 3.22205 12.2657C3.25647 12.3482 3.31396 12.4196 3.388 12.4719C3.46204 12.5242 3.54967 12.5552 3.64095 12.5616C3.73222 12.5679 3.8235 12.5492 3.90442 12.5077L7.38517 10.7282L10.8659 12.5077C10.961 12.5569 11.0713 12.5733 11.1771 12.5554C11.4438 12.5107 11.6231 12.2648 11.5771 12.0054L10.9119 8.23631L13.7275 5.56708C13.8041 5.49405 13.8547 5.39867 13.87 5.29434C13.9114 5.03353 13.7244 4.79209 13.4562 4.75334Z" fill="#FFA114"/>
</svg>
