<svg width="22" height="20" viewBox="0 0 22 20" fill="none" xmlns="http://www.w3.org/2000/svg">
<path d="M20.4943 1.90479L21.2427 1.85517C21.2227 1.55431 21.0245 1.29465 20.7396 1.19603C20.4547 1.09742 20.1384 1.17902 19.9367 1.40318L20.4943 1.90479ZM19.8859 5.93051C19.8859 5.51629 19.5501 5.18051 19.1359 5.18051C18.7216 5.18051 18.3859 5.51629 18.3859 5.93051H19.8859ZM10.9999 7.14288V7.89288H11.7499V7.14288H10.9999ZM2.83452 1.90479L3.5369 1.6418C3.43225 1.3623 3.17183 1.17144 2.87379 1.15581C2.57574 1.14019 2.2968 1.30276 2.16349 1.56979L2.83452 1.90479ZM8.14274 14.2857L8.67348 14.8157C8.85702 14.6318 8.93237 14.3661 8.87265 14.1133C8.81293 13.8605 8.62664 13.6566 8.38024 13.5743L8.14274 14.2857ZM1.47607 16.8708V16.1208C1.14567 16.1208 0.854191 16.337 0.758333 16.6532C0.662475 16.9694 0.784824 17.311 1.0596 17.4945L1.47607 16.8708ZM18.0966 3.22911L17.5403 3.73213L17.8105 4.03099L18.2089 3.97066L18.0966 3.22911ZM19.7459 1.9544C19.8159 3.00913 19.7504 3.64046 19.5835 4.1108C19.4222 4.56547 19.1403 4.94338 18.617 5.4449L19.6548 6.52794C20.2539 5.95379 20.7237 5.38331 20.9972 4.61229C21.2651 3.85694 21.3176 2.98528 21.2427 1.85517L19.7459 1.9544ZM19.8859 6.92178V5.98642H18.3859V6.92178H19.8859ZM19.8859 5.98642V5.93051H18.3859V5.98642H19.8859ZM10.2499 6.1905V7.14288H11.7499V6.1905H10.2499ZM15.1163 1.15479C12.3824 1.15479 10.2499 3.53041 10.2499 6.1905H11.7499C11.7499 4.28038 13.2871 2.65479 15.1163 2.65479V1.15479ZM18.3859 6.92178C18.3859 12.7684 13.4741 17.8215 7.66655 17.8215V19.3215C14.3318 19.3215 19.8859 13.5673 19.8859 6.92178H18.3859ZM2.13214 2.16777C2.88899 4.18915 5.71428 7.89288 10.9999 7.89288V6.39288C6.50469 6.39288 4.1385 3.24854 3.5369 1.6418L2.13214 2.16777ZM2.16349 1.56979C0.734397 4.4324 0.478156 7.24949 1.48541 9.65994C2.49268 12.0704 4.70224 13.9278 7.90524 14.9971L8.38024 13.5743C5.47025 12.6028 3.66725 10.9908 2.86943 9.0816C2.0716 7.17232 2.21775 4.81935 3.50555 2.23978L2.16349 1.56979ZM7.612 13.7558C6.81317 14.5559 4.49389 16.1208 1.47607 16.1208V17.6208C4.97879 17.6208 7.66108 15.8296 8.67348 14.8157L7.612 13.7558ZM18.6529 2.7261C17.7814 1.76225 16.5193 1.15479 15.1163 1.15479V2.65479C16.0773 2.65479 16.9408 3.06921 17.5403 3.73213L18.6529 2.7261ZM18.2089 3.97066C19.2602 3.81143 20.2841 3.25979 21.0519 2.40639L19.9367 1.40318C19.3922 2.00848 18.6788 2.38237 17.9843 2.48757L18.2089 3.97066ZM1.0596 17.4945C3.25965 18.9635 5.37844 19.3215 7.66655 19.3215V17.8215C5.56444 17.8215 3.76783 17.4992 1.89254 16.247L1.0596 17.4945Z" fill="#BAB8CF"/>
</svg>
