<svg width="767" height="418" viewBox="0 0 767 418" fill="none" xmlns="http://www.w3.org/2000/svg">
<path d="M610.323 225.127H140.805V388.339H610.323V225.127Z" stroke="#E6E5ED" stroke-width="2.5" stroke-miterlimit="10"/>
<path d="M705.637 182.426L375.58 120H375.559H375.549L45.4922 182.426L48.5665 198.653L375.559 136.808L702.563 198.653L705.637 182.426Z" stroke="#E6E5ED" stroke-width="2.5" stroke-miterlimit="10"/>
<path d="M690.01 388.358H59.9895L37 416.069H713L690.01 388.358Z" stroke="#E6E5ED" stroke-width="2.5" stroke-miterlimit="10" stroke-linejoin="round"/>
<path d="M354.405 362.899C354.405 371.044 347.802 377.647 339.657 377.647H170.529C162.384 377.647 155.781 371.044 155.781 362.899V360.057C155.781 351.912 162.384 345.309 170.529 345.309H339.646C347.791 345.309 354.394 351.912 354.394 360.057V362.899H354.405Z" stroke="#E6E5ED" stroke-width="2.5" stroke-miterlimit="10" stroke-linejoin="round"/>
<path d="M198.842 388.349H182.467V377.658H198.842V388.349ZM327.729 377.658H311.354V388.349H327.729V377.658Z" stroke="#E6E5ED" stroke-width="2.5" stroke-miterlimit="10"/>
<path d="M182.466 361.484C182.466 366.206 178.631 370.041 173.909 370.041C169.186 370.041 165.352 366.206 165.352 361.484C165.352 356.761 169.186 352.926 173.909 352.926C178.631 352.926 182.466 356.761 182.466 361.484ZM336.285 352.926C331.563 352.926 327.728 356.761 327.728 361.484C327.728 366.206 331.563 370.041 336.285 370.041C341.008 370.041 344.843 366.206 344.843 361.484C344.843 356.761 341.008 352.926 336.285 352.926ZM303.81 352.926C299.088 352.926 295.253 356.761 295.253 361.484C295.253 366.206 299.088 370.041 303.81 370.041C308.532 370.041 312.367 366.206 312.367 361.484C312.357 356.761 308.532 352.926 303.81 352.926ZM271.335 352.926C266.612 352.926 262.778 356.761 262.778 361.484C262.778 366.206 266.612 370.041 271.335 370.041C276.057 370.041 279.892 366.206 279.892 361.484C279.892 356.761 276.057 352.926 271.335 352.926ZM238.859 352.926C234.137 352.926 230.302 356.761 230.302 361.484C230.302 366.206 234.137 370.041 238.859 370.041C243.582 370.041 247.417 366.206 247.417 361.484C247.417 356.761 243.582 352.926 238.859 352.926ZM206.384 352.926C201.662 352.926 197.827 356.761 197.827 361.484C197.827 366.206 201.662 370.041 206.384 370.041C211.106 370.041 214.941 366.206 214.941 361.484C214.941 356.761 211.106 352.926 206.384 352.926Z" stroke="#E6E5ED" stroke-width="2.5" stroke-miterlimit="10"/>
<path d="M233.012 288.917H172.932V345.035H233.012V288.917Z" fill="white" stroke="#E6E5ED" stroke-width="2" stroke-miterlimit="10"/>
<path d="M332.63 304.562H282.322V345.309H332.63V304.562Z" stroke="#E6E5ED" stroke-width="2.5" stroke-miterlimit="10"/>
<path d="M282.713 270.449H232.996V345.309H282.713V270.449Z" stroke="#CFE2F3" stroke-width="2.5" stroke-miterlimit="10"/>
<path d="M263.709 271.506H252.088V286.402H263.709V271.506Z" stroke="#CFE2F3" stroke-width="2.5" stroke-miterlimit="10"/>
<path d="M321.751 335.347H306.158V332.051H321.751V335.347ZM313.617 321.053L310.849 316.976L308.081 321.053H309.201V330.572H312.497V321.053H313.617ZM319.839 321.053L317.071 316.976L314.303 321.053H315.423V330.572H318.719V321.053H319.839Z" fill="#E6E5ED"/>
<path opacity="0.02" d="M538.369 270.418H517.578L449.035 385.782H606.911L538.369 270.418Z" fill="#2E00FF"/>
<path d="M516.703 265.484V268.959H539.248V265.484L529.803 254.38H526.148L516.703 265.484Z" stroke="#BAB8CF" stroke-width="2.5" stroke-miterlimit="10"/>
<path d="M531.034 225.127H524.896V252.363H531.034V225.127Z" fill="#BAB8CF"/>
<path d="M493.192 304.615H433.111V360.734H493.192V304.615Z" stroke="#E6E5ED" stroke-width="2.5" stroke-miterlimit="10"/>
<path d="M552.967 304.615H492.887V360.734H552.967V304.615Z" stroke="#E6E5ED" stroke-width="2.5" stroke-miterlimit="10"/>
<path d="M468.959 305.672H457.338V320.568H468.959V305.672Z" stroke="#E6E5ED" stroke-width="2.5" stroke-miterlimit="10"/>
<path d="M528.734 305.672H517.113V320.568H528.734V305.672Z" stroke="#E6E5ED" stroke-width="2.5" stroke-miterlimit="10"/>
<path d="M560.588 360.647H423.492V370.857H560.588V360.647Z" stroke="#E6E5ED" stroke-width="2.5" stroke-miterlimit="10" stroke-linejoin="round"/>
<path d="M423.722 369.006V322.639C423.722 322.639 423.595 310.88 412.428 310.88C401.262 310.88 401.135 321.741 401.135 321.741" stroke="#E6E5ED" stroke-width="2.5" stroke-miterlimit="10"/>
<path d="M461.441 375.546C461.441 380.268 457.606 384.103 452.883 384.103C448.161 384.103 444.326 380.278 444.326 375.546C444.326 370.823 448.161 366.988 452.883 366.988C457.606 366.988 461.441 370.823 461.441 375.546ZM531.05 366.988C526.328 366.988 522.493 370.823 522.493 375.546C522.493 380.268 526.328 384.103 531.05 384.103C535.773 384.103 539.608 380.278 539.608 375.546C539.608 370.823 535.773 366.988 531.05 366.988Z" fill="white" stroke="#E6E5ED" stroke-width="2.5" stroke-miterlimit="10"/>
<path d="M610.323 198.653H140.805V225.127H610.323V198.653Z" stroke="#E6E5ED" stroke-width="2.5" stroke-miterlimit="10"/>
<path d="M140.551 211.884H610.178" stroke="#E6E5ED" stroke-width="2.5" stroke-miterlimit="10"/>
<path d="M52.3145 397.838L698.416 397.838" stroke="#E6E5ED" stroke-width="2.5" stroke-miterlimit="10"/>
<path d="M392.03 175.812H359.629V170.192L375.824 163.504L392.03 170.192V175.812Z" stroke="#BAB8CF" stroke-width="2.5" stroke-miterlimit="10"/>
<path d="M129.611 183.443V388.358" stroke="#CFE2F3" stroke-width="2.5"/>
<path d="M621.174 183.443V388.358" stroke="#CFE2F3" stroke-width="2.5"/>
<path d="M429.6 415.751H421.056L464.956 224.624H722.065L764.385 415.751H429.6Z" fill="#0B0140" stroke="#2E00FF" stroke-width="0.661991"/>
<path d="M490.688 212.869C485.921 212.889 481.545 215.872 479.867 220.48C479.569 221.295 479.371 222.13 479.266 222.966H464.603C463.965 222.966 463.411 223.41 463.265 224.032L453.531 266.235C453.495 266.335 453.474 266.439 453.458 266.544L419.036 415.774C418.837 416.63 419.491 417.451 420.374 417.451H644.128H650.542H709.058H764.688C765.556 417.451 766.298 416.521 766.136 415.784L723.742 224.032C723.601 223.405 723.046 222.956 722.403 222.956H695.697H682.288C681.656 217.998 677.85 213.924 672.821 213.041C667.301 212.069 661.86 215.209 659.941 220.474C659.643 221.289 659.444 222.125 659.335 222.961H502.214C501.582 218.004 497.776 213.929 492.748 213.046C492.057 212.926 491.367 212.863 490.688 212.869ZM490.693 215.611C491.216 215.611 491.739 215.653 492.267 215.747C495.999 216.405 498.827 219.336 499.433 222.961H482.031C482.12 222.444 482.256 221.927 482.439 221.415C483.725 217.889 487.05 215.621 490.693 215.611ZM670.757 215.611C671.279 215.611 671.802 215.653 672.335 215.747C676.068 216.405 678.89 219.336 679.502 222.961H662.1C662.189 222.444 662.325 221.927 662.508 221.415C663.794 217.889 667.118 215.621 670.757 215.611ZM465.69 225.704H479.245C479.642 229.261 481.686 232.557 484.953 234.448C485.612 234.83 486.448 234.6 486.83 233.947C487.212 233.289 486.982 232.448 486.328 232.071C483.918 230.682 482.392 228.305 482.01 225.704H500.427C500.589 225.766 500.761 225.803 500.939 225.803C501.111 225.803 501.284 225.771 501.446 225.704H659.309C659.706 229.261 661.75 232.557 665.017 234.448C665.676 234.83 666.512 234.6 666.894 233.947C667.275 233.289 667.05 232.453 666.392 232.071C663.982 230.682 662.45 228.305 662.074 225.704H680.49C680.652 225.766 680.825 225.803 680.997 225.803C681.17 225.803 681.347 225.771 681.509 225.704H693.951L684.625 265.321H456.553L465.69 225.704ZM696.773 225.704H707.683V265.259H687.463L696.773 225.704ZM710.422 225.704H721.29L730.035 265.259H710.417V225.704H710.422ZM686.815 268.001H707.683V414.713H652.272L686.815 268.001ZM710.422 268.001H730.647L763.088 414.713H710.422V268.001ZM455.92 268.064H683.982L649.455 414.708H644.128H422.099L455.92 268.064Z" fill="#BAB8CF"/>
<path d="M509.843 281.975C509.221 281.975 508.678 282.393 508.516 282.988L500.047 314.572H463.497C462.739 314.572 462.128 315.188 462.128 315.94C462.128 316.698 462.739 317.314 463.497 317.314H499.31L485.865 367.463H453.696C452.938 367.463 452.326 368.08 452.326 368.832C452.326 369.589 452.938 370.206 453.696 370.206H485.133L475.907 404.615C475.708 405.347 476.142 406.099 476.874 406.297C477.606 406.496 478.359 406.057 478.557 405.326L487.972 370.206H543.937L534.71 404.615C534.512 405.347 534.945 406.099 535.677 406.297C536.409 406.496 537.162 406.057 537.36 405.326L546.775 370.206H596.023L586.796 404.615C586.597 405.347 587.031 406.099 587.763 406.297C588.495 406.496 589.248 406.057 589.446 405.326L598.861 370.206H634.454C635.212 370.206 635.824 369.589 635.824 368.832C635.824 368.074 635.212 367.463 634.454 367.463H599.598L613.043 317.314H644.256C645.014 317.314 645.625 316.698 645.625 315.94C645.625 315.183 645.014 314.572 644.256 314.572H613.78L622.06 283.693C622.254 282.962 621.82 282.21 621.088 282.017C620.973 281.985 620.853 281.97 620.732 281.97C620.11 281.97 619.572 282.387 619.41 282.983L610.942 314.566H561.694L569.974 283.688C570.168 282.957 569.734 282.21 569.007 282.011C568.892 281.98 568.772 281.964 568.652 281.964C568.03 281.964 567.486 282.382 567.324 282.978L558.856 314.561H502.891L511.171 283.683C511.365 282.952 510.931 282.205 510.204 282.006C510.084 281.99 509.964 281.975 509.843 281.975ZM502.154 317.319H558.119L544.674 367.469H488.709L502.154 317.319ZM560.962 317.319H610.21L596.765 367.469H547.517L560.962 317.319Z" fill="#BAB8CF"/>
<path d="M477.047 287.418C476.744 287.423 476.457 287.528 476.222 287.716C475.626 288.186 475.526 289.048 475.997 289.643L481.418 296.471L474.491 301.768C473.89 302.228 473.775 303.084 474.235 303.685C474.695 304.286 475.558 304.406 476.159 303.946L483.122 298.623L488.569 305.487C489.039 306.078 489.902 306.182 490.498 305.712C491.093 305.242 491.193 304.38 490.722 303.784L485.302 296.957L492.228 291.66C492.829 291.2 492.944 290.338 492.484 289.737C492.212 289.382 491.784 289.178 491.334 289.199C491.052 289.215 490.785 289.309 490.56 289.481L483.597 294.804L478.145 287.935C477.894 287.616 477.513 287.428 477.105 287.418C477.089 287.418 477.068 287.418 477.047 287.418Z" fill="#E6E5ED"/>
<path d="M559.648 381.213C559.622 381.213 559.59 381.213 559.564 381.218C559.282 381.234 559.015 381.338 558.796 381.511C558.2 381.981 558.1 382.843 558.571 383.438L563.992 390.266L557.065 395.563C556.464 396.023 556.349 396.884 556.809 397.485C557.269 398.086 558.132 398.201 558.733 397.741L565.696 392.418L571.148 399.282C571.619 399.872 572.481 399.977 573.077 399.507C573.673 399.037 573.772 398.175 573.302 397.579L567.881 390.752L574.807 385.46C575.408 385 575.523 384.138 575.063 383.538C574.792 383.182 574.363 382.979 573.913 382.999C573.631 383.01 573.359 383.109 573.14 383.282L566.177 388.605L560.73 381.741C560.463 381.406 560.066 381.213 559.648 381.213Z" fill="#E6E5ED"/>
<path d="M615.891 381.213C615.86 381.213 615.834 381.213 615.802 381.218C615.52 381.234 615.254 381.338 615.034 381.511C614.443 381.981 614.344 382.843 614.814 383.438L620.235 390.266L613.309 395.563C612.708 396.023 612.588 396.884 613.048 397.485C613.508 398.086 614.37 398.201 614.971 397.741L621.934 392.418L627.381 399.282C627.852 399.872 628.714 399.977 629.31 399.507C629.906 399.037 630.005 398.175 629.535 397.579L624.114 390.752L631.04 385.455C631.641 384.995 631.756 384.133 631.296 383.532C631.025 383.177 630.596 382.973 630.146 382.994C629.864 383.01 629.598 383.104 629.373 383.276L622.41 388.599L616.963 381.735C616.702 381.406 616.31 381.213 615.891 381.213Z" fill="#E6E5ED"/>
<path d="M583.186 288.406C582.883 288.411 582.595 288.515 582.36 288.704C581.764 289.174 581.665 290.036 582.135 290.631L587.556 297.459L580.63 302.756C580.029 303.215 579.914 304.077 580.374 304.678C580.834 305.279 581.696 305.394 582.297 304.934L589.266 299.611L594.718 306.475C595.188 307.071 596.051 307.17 596.647 306.7C597.243 306.23 597.342 305.368 596.871 304.772L591.451 297.945L598.377 292.648C598.978 292.188 599.093 291.326 598.633 290.725C598.361 290.37 597.933 290.171 597.483 290.192C597.201 290.203 596.934 290.302 596.709 290.474L589.747 295.798L584.3 288.933C584.049 288.615 583.667 288.427 583.259 288.411C583.228 288.406 583.207 288.406 583.186 288.406Z" fill="#BAB8CF"/>
<path d="M520.538 330.217C514.385 330.217 509.361 335.232 509.361 341.386C509.361 347.534 514.38 352.555 520.538 352.555C526.695 352.555 531.714 347.54 531.714 341.386C531.714 335.232 526.695 330.217 520.538 330.217ZM520.538 332.955C525.211 332.955 528.969 336.711 528.969 341.381C528.969 346.051 525.211 349.807 520.538 349.807C515.864 349.807 512.111 346.051 512.111 341.381C512.111 336.711 515.869 332.955 520.538 332.955Z" fill="#E6E5ED"/>
<path d="M629.25 332.589C623.098 332.589 618.074 337.604 618.074 343.757C618.074 349.906 623.093 354.926 629.25 354.926C635.408 354.926 640.427 349.911 640.427 343.757C640.421 337.604 635.403 332.589 629.25 332.589ZM629.25 335.331C633.924 335.331 637.682 339.087 637.682 343.752C637.682 348.417 633.924 352.178 629.25 352.178C624.577 352.178 620.824 348.422 620.824 343.752C620.824 339.082 624.577 335.331 629.25 335.331Z" fill="#E6E5ED"/>
<path d="M524.698 290.442C523.94 290.442 523.328 291.059 523.328 291.811C523.328 292.568 523.945 293.18 524.698 293.18H549.251C550.009 293.18 550.62 292.563 550.62 291.811C550.62 291.054 550.009 290.442 549.251 290.442H524.698Z" fill="#E6E5ED"/>
<path d="M521.631 301.622C520.873 301.622 520.256 302.233 520.256 302.991V302.996C520.256 303.753 520.873 304.364 521.631 304.364H535.687C536.445 304.364 537.062 303.753 537.062 302.996C537.062 302.996 537.062 302.996 537.062 302.991C537.062 302.233 536.45 301.617 535.692 301.617H535.687H521.631V301.622Z" fill="#E6E5ED"/>
<path d="M460.342 335.953C459.584 335.953 458.973 336.569 458.973 337.322C458.973 338.079 459.589 338.69 460.342 338.69H484.895C485.653 338.69 486.27 338.079 486.27 337.322C486.27 336.564 485.659 335.948 484.901 335.948H484.895H460.342V335.953Z" fill="#E6E5ED"/>
<path d="M457.272 347.132C456.514 347.132 455.902 347.744 455.902 348.501C455.902 349.258 456.514 349.875 457.272 349.875H471.334C472.092 349.875 472.703 349.258 472.703 348.501C472.703 347.744 472.092 347.132 471.334 347.132H457.272Z" fill="#E6E5ED"/>
<path d="M495.586 382.064C494.828 382.064 494.217 382.675 494.217 383.433C494.217 384.19 494.828 384.801 495.586 384.801H520.14C520.898 384.801 521.514 384.19 521.514 383.433C521.514 382.675 520.898 382.064 520.14 382.064H495.586Z" fill="#E6E5ED"/>
<path d="M492.518 393.243C491.76 393.243 491.148 393.854 491.148 394.612C491.148 395.369 491.76 395.986 492.518 395.986H506.58C507.338 395.986 507.949 395.369 507.949 394.612C507.949 393.854 507.338 393.243 506.58 393.243H492.518Z" fill="#E6E5ED"/>
<path d="M568.264 335.755C567.506 335.755 566.895 336.371 566.895 337.124C566.895 337.881 567.511 338.492 568.264 338.492H592.817C593.575 338.492 594.187 337.881 594.187 337.124C594.187 336.366 593.575 335.755 592.817 335.755H568.264Z" fill="#E6E5ED"/>
<path d="M565.188 346.939C564.43 346.939 563.818 347.555 563.818 348.308C563.818 349.065 564.43 349.676 565.188 349.676H579.25C580.008 349.676 580.619 349.06 580.619 348.308C580.619 347.55 580.008 346.939 579.25 346.939H565.188Z" fill="#E6E5ED"/>
<path d="M631.034 292.814C630.276 292.814 629.664 293.431 629.664 294.183C629.664 294.941 630.276 295.552 631.034 295.552H655.587C656.345 295.552 656.962 294.941 656.962 294.183C656.962 293.426 656.345 292.814 655.587 292.814H631.034Z" fill="#E6E5ED"/>
<path d="M627.965 303.994C627.207 303.994 626.596 304.61 626.596 305.362C626.596 305.362 626.596 305.362 626.596 305.368C626.596 306.125 627.213 306.736 627.965 306.736H642.027C642.785 306.736 643.397 306.12 643.397 305.368C643.397 304.61 642.785 303.994 642.027 303.994H627.965Z" fill="#E6E5ED"/>
<path d="M457.762 378.894C451.609 378.894 446.586 383.908 446.586 390.062C446.586 396.216 451.604 401.231 457.762 401.231C463.915 401.231 468.938 396.216 468.938 390.062C468.938 383.914 463.92 378.894 457.762 378.894ZM457.762 381.636C462.435 381.636 466.194 385.392 466.194 390.062C466.194 394.732 462.435 398.483 457.762 398.483C453.089 398.483 449.33 394.727 449.33 390.062C449.33 385.397 453.094 381.636 457.762 381.636Z" fill="#BAB8CF"/>
<path d="M23.3749 25.8224H25.26V21.6237H29.0874V19.9956H25.26V17.4536H30.03V15.8255H23.3749V25.8224ZM31.9342 25.8224H35.9472C38.0466 25.8224 39.4318 24.7227 39.4318 22.8662C39.4318 21.5237 38.6607 20.724 37.7181 20.3669C38.3322 20.0528 38.932 19.3387 38.932 18.3961C38.932 16.7395 37.6324 15.8255 35.8044 15.8255H31.9342V25.8224ZM33.7907 19.7386V17.3393H35.6473C36.6756 17.3393 37.1754 17.7678 37.1754 18.5389C37.1754 19.3101 36.6756 19.7386 35.6759 19.7386H33.7907ZM33.7907 24.18V21.3381H35.7473C37.0183 21.3381 37.6181 21.8522 37.6181 22.7662C37.6181 23.6945 37.0183 24.18 35.7473 24.18H33.7907ZM47.7758 25.8224H49.7323L45.8764 15.8255H44.1055L40.2638 25.8224H42.2061L43.063 23.4945H46.9189L47.7758 25.8224ZM43.6628 21.895L45.0052 18.239L46.3477 21.895H43.6628ZM58.0377 25.9366C60.237 25.9366 61.7651 24.8084 61.7651 22.9519C61.7651 19.0531 56.3239 20.7097 56.3239 18.4961C56.3239 17.7963 56.938 17.3393 57.9234 17.3393C58.9802 17.3393 59.6657 17.9248 59.7514 18.796H61.5508C61.4652 16.9252 60.037 15.7113 57.9234 15.7113C55.8955 15.7113 54.4816 16.8538 54.4816 18.4961C54.4816 22.3235 59.8514 20.8382 59.8514 22.9804C59.8514 23.8659 59.1087 24.2943 58.0377 24.2943C56.838 24.2943 56.0954 23.5802 55.9954 22.4663H54.1817C54.2817 24.5656 55.7669 25.9366 58.0377 25.9366ZM63.4779 25.8224H65.2202V21.895C65.2202 20.8382 65.92 20.067 66.8911 20.067C67.7909 20.067 68.405 20.7525 68.405 21.7379V25.8224H70.1473V21.3666C70.1473 19.6814 69.0905 18.5104 67.4767 18.5104C66.4484 18.5104 65.6201 18.9531 65.2202 19.7386V15.5399H63.4779V25.8224ZM72.075 15.5399V17.4964H73.9601V15.5399H72.075ZM72.1464 25.8224H73.903V18.6246H72.1464V25.8224ZM76.0081 28.7358H77.7504V25.0369C78.1503 25.5939 78.9214 25.9366 79.7926 25.9366C81.9062 25.9366 83.2629 24.4228 83.2629 22.2235C83.2629 20.0242 81.9919 18.5104 79.9211 18.5104C78.9643 18.5104 78.1788 18.9103 77.7504 19.5243V18.6246H76.0081V28.7358ZM79.5927 24.4228C78.4073 24.4228 77.6361 23.5517 77.6361 22.2235C77.6361 20.8954 78.4073 20.0242 79.5927 20.0242C80.7494 20.0242 81.5206 20.8954 81.5206 22.2235C81.5206 23.5517 80.7494 24.4228 79.5927 24.4228ZM84.8718 25.8224H86.6284V21.6951C86.6284 20.6811 87.2139 20.0099 88.1422 20.0099C88.9848 20.0099 89.5132 20.6811 89.5132 21.6951V25.8224H91.2555V21.6951C91.2555 20.6811 91.8411 20.0099 92.7836 20.0099C93.6262 20.0099 94.1546 20.6811 94.1546 21.6951V25.8224H95.897V21.1667C95.897 19.6386 94.8973 18.5104 93.3406 18.5104C92.1981 18.5104 91.2841 19.1388 90.9556 19.8814C90.6415 18.9959 89.856 18.5104 88.7135 18.5104C87.6995 18.5104 86.9854 19.0245 86.6284 19.7528V18.6246H84.8718V25.8224ZM102.85 23.4231C102.664 24.1086 102.078 24.4799 101.179 24.4799C100.065 24.4799 99.3221 23.7373 99.1936 22.5805H104.506C104.52 22.4377 104.535 22.2235 104.535 21.9807C104.535 20.267 103.449 18.5104 101.036 18.5104C98.6795 18.5104 97.5084 20.2955 97.5084 22.1949C97.5084 24.0801 98.8223 25.9366 101.179 25.9366C102.95 25.9366 104.292 24.9512 104.563 23.4231H102.85ZM101.036 19.8243C102.078 19.8243 102.707 20.5098 102.778 21.4238H99.2364C99.4221 20.3384 100.05 19.8243 101.036 19.8243ZM106.174 25.8224H107.931V21.895C107.931 20.8382 108.616 20.067 109.602 20.067C110.502 20.067 111.101 20.7525 111.101 21.7379V25.8224H112.858V21.3666C112.858 19.6814 111.801 18.5104 110.173 18.5104C109.145 18.5104 108.331 18.9531 107.931 19.7386V18.6246H106.174V25.8224ZM115.507 16.4539V18.6246H114.094V20.0956H115.507V23.3089C115.507 24.9084 116.536 25.8224 118.107 25.8224H119.263V24.3371H118.307C117.65 24.3371 117.264 23.9658 117.264 23.2375V20.0956H119.263V18.6246H117.264V16.4539H115.507ZM123.661 25.9366C125.346 25.9366 126.445 25.0512 126.445 23.6945C126.445 20.4384 122.447 22.1521 122.447 20.5954C122.447 20.1099 122.861 19.8243 123.489 19.8243C124.046 19.8243 124.66 20.167 124.76 20.8382H126.36C126.288 19.4387 125.132 18.5104 123.446 18.5104C121.961 18.5104 120.862 19.3958 120.862 20.6526C120.862 23.6945 124.803 22.1664 124.803 23.7659C124.803 24.1943 124.346 24.5371 123.661 24.5371C122.875 24.5371 122.347 24.1086 122.275 23.4231H120.676C120.762 24.9655 121.918 25.9366 123.661 25.9366Z" fill="#06021C"/>
<rect x="1" y="1" width="147.304" height="37.6448" rx="3.28438" stroke="#E6E5ED" stroke-width="2"/>
<path d="M196.657 25.8224H198.499L200.627 18.7532L202.755 25.8224H204.611L207.596 15.8255H205.697L203.612 23.0375L201.427 15.8255H199.813L197.642 23.0375L195.571 15.8255H193.658L196.657 25.8224ZM211.084 18.5104C209.214 18.5104 208 19.6243 207.914 21.0524H209.485C209.513 20.4098 210.07 19.8243 210.999 19.8243C211.927 19.8243 212.47 20.3241 212.47 21.0239C212.47 21.3095 212.298 21.5094 211.941 21.5094H210.613C208.999 21.5094 207.914 22.3806 207.914 23.7802C207.914 25.0226 208.885 25.9366 210.313 25.9366C211.341 25.9366 212.17 25.4654 212.47 24.7513V25.8224H214.198V21.1953C214.198 19.5672 212.912 18.5104 211.084 18.5104ZM210.727 24.637C210.07 24.637 209.613 24.2657 209.613 23.7088C209.613 23.0804 210.113 22.6662 210.856 22.6662H212.47V22.7805C212.47 23.8659 211.827 24.637 210.727 24.637ZM220.53 20.0956V18.6246H219.687C218.759 18.6246 218.202 18.9817 217.845 19.8957V18.6246H216.088V25.8224H217.845V22.4234C217.845 21.0524 218.288 20.0956 219.402 20.0956H220.53ZM226.661 23.4231C226.475 24.1086 225.889 24.4799 224.99 24.4799C223.876 24.4799 223.133 23.7373 223.005 22.5805H228.317C228.331 22.4377 228.346 22.2235 228.346 21.9807C228.346 20.267 227.26 18.5104 224.847 18.5104C222.49 18.5104 221.319 20.2955 221.319 22.1949C221.319 24.0801 222.633 25.9366 224.99 25.9366C226.761 25.9366 228.103 24.9512 228.374 23.4231H226.661ZM224.847 19.8243C225.889 19.8243 226.518 20.5098 226.589 21.4238H223.047C223.233 20.3384 223.861 19.8243 224.847 19.8243ZM230.085 25.8224H231.828V21.895C231.828 20.8382 232.527 20.067 233.498 20.067C234.398 20.067 235.012 20.7525 235.012 21.7379V25.8224H236.755V21.3666C236.755 19.6814 235.698 18.5104 234.084 18.5104C233.056 18.5104 232.227 18.9531 231.828 19.7386V15.5399H230.085V25.8224ZM242.138 25.9366C244.323 25.9366 245.894 24.3657 245.894 22.2235C245.894 20.0813 244.323 18.5104 242.138 18.5104C239.939 18.5104 238.368 20.0813 238.368 22.2235C238.368 24.3657 239.939 25.9366 242.138 25.9366ZM242.138 24.4228C240.939 24.4228 240.139 23.5231 240.139 22.2235C240.139 20.9239 240.939 20.0242 242.138 20.0242C243.324 20.0242 244.124 20.9239 244.124 22.2235C244.124 23.5231 243.324 24.4228 242.138 24.4228ZM254.192 18.6246H252.435V22.552C252.435 23.6088 251.75 24.38 250.764 24.38C249.879 24.38 249.265 23.6945 249.265 22.7091V18.6246H247.523V23.0804C247.523 24.7656 248.579 25.9366 250.193 25.9366C251.221 25.9366 252.035 25.4939 252.435 24.7084V25.8224H254.192V18.6246ZM258.792 25.9366C260.477 25.9366 261.577 25.0512 261.577 23.6945C261.577 20.4384 257.578 22.1521 257.578 20.5954C257.578 20.1099 257.993 19.8243 258.621 19.8243C259.178 19.8243 259.792 20.167 259.892 20.8382H261.491C261.42 19.4387 260.263 18.5104 258.578 18.5104C257.093 18.5104 255.993 19.3958 255.993 20.6526C255.993 23.6945 259.935 22.1664 259.935 23.7659C259.935 24.1943 259.478 24.5371 258.792 24.5371C258.007 24.5371 257.478 24.1086 257.407 23.4231H255.807C255.893 24.9655 257.05 25.9366 258.792 25.9366ZM268.16 23.4231C267.974 24.1086 267.389 24.4799 266.489 24.4799C265.375 24.4799 264.632 23.7373 264.504 22.5805H269.817C269.831 22.4377 269.845 22.2235 269.845 21.9807C269.845 20.267 268.76 18.5104 266.346 18.5104C263.99 18.5104 262.819 20.2955 262.819 22.1949C262.819 24.0801 264.133 25.9366 266.489 25.9366C268.26 25.9366 269.602 24.9512 269.874 23.4231H268.16ZM266.346 19.8243C267.389 19.8243 268.017 20.5098 268.088 21.4238H264.547C264.732 20.3384 265.361 19.8243 266.346 19.8243ZM277.408 25.8224H279.293V17.4536H282.306V15.8255H274.38V17.4536H277.408V25.8224ZM287.354 20.0956V18.6246H286.512C285.584 18.6246 285.027 18.9817 284.67 19.8957V18.6246H282.913V25.8224H284.67V22.4234C284.67 21.0524 285.112 20.0956 286.226 20.0956H287.354ZM291.527 18.5104C289.656 18.5104 288.442 19.6243 288.357 21.0524H289.927C289.956 20.4098 290.513 19.8243 291.441 19.8243C292.37 19.8243 292.912 20.3241 292.912 21.0239C292.912 21.3095 292.741 21.5094 292.384 21.5094H291.056C289.442 21.5094 288.357 22.3806 288.357 23.7802C288.357 25.0226 289.328 25.9366 290.756 25.9366C291.784 25.9366 292.612 25.4654 292.912 24.7513V25.8224H294.64V21.1953C294.64 19.5672 293.355 18.5104 291.527 18.5104ZM291.17 24.637C290.513 24.637 290.056 24.2657 290.056 23.7088C290.056 23.0804 290.556 22.6662 291.298 22.6662H292.912V22.7805C292.912 23.8659 292.27 24.637 291.17 24.637ZM296.531 25.8224H298.288V21.895C298.288 20.8382 298.973 20.067 299.958 20.067C300.858 20.067 301.458 20.7525 301.458 21.7379V25.8224H303.215V21.3666C303.215 19.6814 302.158 18.5104 300.53 18.5104C299.501 18.5104 298.687 18.9531 298.288 19.7386V18.6246H296.531V25.8224ZM307.815 25.9366C309.5 25.9366 310.6 25.0512 310.6 23.6945C310.6 20.4384 306.601 22.1521 306.601 20.5954C306.601 20.1099 307.015 19.8243 307.644 19.8243C308.201 19.8243 308.815 20.167 308.915 20.8382H310.514C310.443 19.4387 309.286 18.5104 307.601 18.5104C306.115 18.5104 305.016 19.3958 305.016 20.6526C305.016 23.6945 308.957 22.1664 308.957 23.7659C308.957 24.1943 308.5 24.5371 307.815 24.5371C307.029 24.5371 306.501 24.1086 306.43 23.4231H304.83C304.916 24.9655 306.073 25.9366 307.815 25.9366ZM313.001 25.8224H314.757V20.0956H316.857V18.6246H314.757V18.0391C314.757 17.4107 315.157 17.0251 315.771 17.0251H316.857V15.5399H315.571C314.015 15.5399 313.001 16.4967 313.001 17.9534V18.6246H311.587V20.0956H313.001V25.8224ZM322.939 23.4231C322.753 24.1086 322.167 24.4799 321.268 24.4799C320.154 24.4799 319.411 23.7373 319.283 22.5805H324.595C324.609 22.4377 324.624 22.2235 324.624 21.9807C324.624 20.267 323.538 18.5104 321.125 18.5104C318.768 18.5104 317.597 20.2955 317.597 22.1949C317.597 24.0801 318.911 25.9366 321.268 25.9366C323.039 25.9366 324.381 24.9512 324.652 23.4231H322.939ZM321.125 19.8243C322.167 19.8243 322.796 20.5098 322.867 21.4238H319.325C319.511 20.3384 320.139 19.8243 321.125 19.8243ZM330.705 20.0956V18.6246H329.862C328.934 18.6246 328.377 18.9817 328.02 19.8957V18.6246H326.263V25.8224H328.02V22.4234C328.02 21.0524 328.463 20.0956 329.577 20.0956H330.705ZM334.563 25.9366C336.248 25.9366 337.348 25.0512 337.348 23.6945C337.348 20.4384 333.349 22.1521 333.349 20.5954C333.349 20.1099 333.763 19.8243 334.391 19.8243C334.948 19.8243 335.562 20.167 335.662 20.8382H337.262C337.191 19.4387 336.034 18.5104 334.349 18.5104C332.863 18.5104 331.764 19.3958 331.764 20.6526C331.764 23.6945 335.705 22.1664 335.705 23.7659C335.705 24.1943 335.248 24.5371 334.563 24.5371C333.777 24.5371 333.249 24.1086 333.177 23.4231H331.578C331.664 24.9655 332.82 25.9366 334.563 25.9366Z" fill="#06021C"/>
<rect x="170.805" y="1.5" width="189.581" height="36.6448" rx="2.78438" stroke="#E6E5ED" stroke-width="3"/>
<path d="M402.375 25.8224H404.146V19.1959L406.873 25.8224H408.301L411.015 19.1959V25.8224H412.786V15.8255H410.615L407.587 23.2089L404.56 15.8255H402.375V25.8224ZM417.888 18.5104C416.017 18.5104 414.803 19.6243 414.718 21.0524H416.289C416.317 20.4098 416.874 19.8243 417.802 19.8243C418.731 19.8243 419.273 20.3241 419.273 21.0239C419.273 21.3095 419.102 21.5094 418.745 21.5094H417.417C415.803 21.5094 414.718 22.3806 414.718 23.7802C414.718 25.0226 415.689 25.9366 417.117 25.9366C418.145 25.9366 418.974 25.4654 419.273 24.7513V25.8224H421.001V21.1953C421.001 19.5672 419.716 18.5104 417.888 18.5104ZM417.531 24.637C416.874 24.637 416.417 24.2657 416.417 23.7088C416.417 23.0804 416.917 22.6662 417.66 22.6662H419.273V22.7805C419.273 23.8659 418.631 24.637 417.531 24.637ZM422.892 25.8224H424.649V21.895C424.649 20.8382 425.334 20.067 426.32 20.067C427.219 20.067 427.819 20.7525 427.819 21.7379V25.8224H429.576V21.3666C429.576 19.6814 428.519 18.5104 426.891 18.5104C425.863 18.5104 425.049 18.9531 424.649 19.7386V18.6246H422.892V25.8224ZM434.449 18.5104C432.578 18.5104 431.364 19.6243 431.278 21.0524H432.849C432.878 20.4098 433.435 19.8243 434.363 19.8243C435.291 19.8243 435.834 20.3241 435.834 21.0239C435.834 21.3095 435.663 21.5094 435.306 21.5094H433.978C432.364 21.5094 431.278 22.3806 431.278 23.7802C431.278 25.0226 432.25 25.9366 433.678 25.9366C434.706 25.9366 435.534 25.4654 435.834 24.7513V25.8224H437.562V21.1953C437.562 19.5672 436.277 18.5104 434.449 18.5104ZM434.092 24.637C433.435 24.637 432.978 24.2657 432.978 23.7088C432.978 23.0804 433.478 22.6662 434.22 22.6662H435.834V22.7805C435.834 23.8659 435.191 24.637 434.092 24.637ZM444.666 18.6246V19.4387C444.251 18.8817 443.466 18.5104 442.566 18.5104C440.424 18.5104 439.167 20.0242 439.167 22.2235C439.167 24.4228 440.424 25.9366 442.595 25.9366C443.494 25.9366 444.323 25.5796 444.68 25.0226V26.0509C444.68 26.8078 444.18 27.3362 443.48 27.3362H440.167V28.7358H443.723C445.337 28.7358 446.422 27.7218 446.422 26.2223V18.6246H444.666ZM442.838 24.4228C441.666 24.4228 440.91 23.5517 440.91 22.2235C440.91 20.8954 441.666 20.0242 442.838 20.0242C444.023 20.0242 444.794 20.8954 444.794 22.2235C444.794 23.5517 444.023 24.4228 442.838 24.4228ZM453.484 23.4231C453.298 24.1086 452.713 24.4799 451.813 24.4799C450.699 24.4799 449.956 23.7373 449.828 22.5805H455.14C455.155 22.4377 455.169 22.2235 455.169 21.9807C455.169 20.267 454.084 18.5104 451.67 18.5104C449.314 18.5104 448.143 20.2955 448.143 22.1949C448.143 24.0801 449.456 25.9366 451.813 25.9366C453.584 25.9366 454.926 24.9512 455.198 23.4231H453.484ZM451.67 19.8243C452.713 19.8243 453.341 20.5098 453.412 21.4238H449.871C450.056 20.3384 450.685 19.8243 451.67 19.8243ZM465.045 25.9366C467.502 25.9366 469.33 24.5228 469.53 22.452H467.644C467.473 23.5374 466.416 24.2943 465.045 24.2943C463.303 24.2943 461.989 23.0947 461.989 20.8239C461.989 18.5532 463.303 17.3393 465.045 17.3393C466.388 17.3393 467.444 18.0962 467.587 19.1959H469.558C469.287 17.1251 467.459 15.7113 465.045 15.7113C462.432 15.7113 460.09 17.425 460.09 20.8239C460.09 24.2229 462.389 25.9366 465.045 25.9366ZM474.55 25.9366C476.735 25.9366 478.306 24.3657 478.306 22.2235C478.306 20.0813 476.735 18.5104 474.55 18.5104C472.351 18.5104 470.78 20.0813 470.78 22.2235C470.78 24.3657 472.351 25.9366 474.55 25.9366ZM474.55 24.4228C473.351 24.4228 472.551 23.5231 472.551 22.2235C472.551 20.9239 473.351 20.0242 474.55 20.0242C475.736 20.0242 476.535 20.9239 476.535 22.2235C476.535 23.5231 475.736 24.4228 474.55 24.4228ZM479.92 25.8224H481.677V21.895C481.677 20.8382 482.362 20.067 483.348 20.067C484.247 20.067 484.847 20.7525 484.847 21.7379V25.8224H486.604V21.3666C486.604 19.6814 485.547 18.5104 483.919 18.5104C482.891 18.5104 482.077 18.9531 481.677 19.7386V18.6246H479.92V25.8224ZM489.253 16.4539V18.6246H487.839V20.0956H489.253V23.3089C489.253 24.9084 490.282 25.8224 491.853 25.8224H493.009V24.3371H492.052C491.396 24.3371 491.01 23.9658 491.01 23.2375V20.0956H493.009V18.6246H491.01V16.4539H489.253ZM498.998 20.0956V18.6246H498.155C497.227 18.6246 496.67 18.9817 496.313 19.8957V18.6246H494.556V25.8224H496.313V22.4234C496.313 21.0524 496.756 20.0956 497.869 20.0956H498.998ZM503.557 25.9366C505.742 25.9366 507.313 24.3657 507.313 22.2235C507.313 20.0813 505.742 18.5104 503.557 18.5104C501.358 18.5104 499.787 20.0813 499.787 22.2235C499.787 24.3657 501.358 25.9366 503.557 25.9366ZM503.557 24.4228C502.358 24.4228 501.558 23.5231 501.558 22.2235C501.558 20.9239 502.358 20.0242 503.557 20.0242C504.743 20.0242 505.543 20.9239 505.543 22.2235C505.543 23.5231 504.743 24.4228 503.557 24.4228ZM509.027 25.8224H510.77V15.5399H509.027V25.8224Z" fill="#06021C"/>
<rect x="383.385" y="1.5" width="146.304" height="36.6448" rx="2.78438" stroke="#E6E5ED" stroke-width="3"/>
<path d="M714.79 191.832C714.743 191.634 639.991 179.661 634.67 179.937C629.348 180.22 553.457 173.429 552.197 173.361C550.937 173.293 538.125 172.729 538.125 172.729C538.125 172.729 531.826 173.779 525.872 186.932C519.923 200.086 508.93 222.956 508.93 222.956H541.554L551.57 206.125C551.57 206.125 556.766 206.125 556.964 206.125C557.163 206.125 563.253 218.887 566.421 224.231C569.589 229.575 583.101 246.886 586.468 251.833C589.834 256.78 595.924 265.833 600.033 274.045C604.142 282.257 609.735 291.263 611.518 295.369C613.3 299.475 615.328 302.343 621.173 298.19C627.012 294.032 633.745 286.912 634.393 280.382C635.036 273.852 630.085 274.594 628.847 272.368C627.608 270.143 621.868 256.885 617.362 251.442C612.856 245.998 606.766 235.707 604.691 230.959C602.61 226.21 599.986 214.734 599.986 214.734L610.728 222.956H655.877C655.877 222.956 665.925 226.409 675.778 227.845C685.632 229.282 704.639 230.734 711.523 222.956C718.403 215.178 716.275 201.721 715.831 198.555C715.386 195.395 714.79 191.832 714.79 191.832Z" fill="#2E00FF"/>
<path d="M612.216 30.2578C612.216 30.2578 610.878 34.1182 610.779 39.5563C610.679 44.9995 615.682 55.4368 622.41 64.986C629.143 74.5353 639.739 74.9793 639.54 75.0785C639.341 75.1778 627.015 88.2374 621.72 95.2635C616.424 102.29 615.086 108.668 613.601 118.959C612.117 129.25 603.403 159.428 603.204 159.475C603.006 159.522 585.285 154.183 585.285 154.183L571.573 118.562L494.646 121.284L517.318 170.905L538.128 172.733C538.128 172.733 593.11 178.13 601.625 177.487C610.141 176.845 656.032 182.779 656.032 182.779L711.772 191.931C711.772 191.931 716.336 192.511 719.3 187.825C722.264 183.139 718.955 175.063 717.564 172.044C716.179 169.024 716.127 167.243 717.611 161.507C719.096 155.772 717.366 132.369 717.068 125.938C716.77 119.507 713.304 99.3747 712.415 96.2561C711.527 93.1374 708.306 82.0576 704.543 77.7532C700.779 73.4487 690.235 71.8659 682.912 70.7271C675.583 69.5883 661.871 64.892 661.871 64.892L650.58 46.6816C650.58 46.6816 656.717 43.4481 656.67 38.6682C656.623 33.8832 650.831 34.51 648.604 38.4227C646.377 42.3302 646.524 49.21 646.524 49.21L638.311 38.8981C638.311 38.8981 633.9 42.8264 624.84 41.1966C615.781 39.5615 612.216 30.2578 612.216 30.2578ZM635.405 132.437C635.405 132.437 641.986 141.918 644.119 147.236C646.252 152.554 645.52 153.635 645.52 153.635L622.488 163.43C623.152 162.098 635.405 132.437 635.405 132.437ZM642.828 167.698L638.557 175.011C638.557 175.011 627.334 173.423 625.478 173L625.462 173.015L625.395 172.979C625.347 172.968 625.28 172.953 625.253 172.942L625.358 172.958L623.717 172.107L642.828 167.698Z" fill="white"/>
<path d="M629.848 122.621C629.848 122.621 640.543 124.501 646.382 122.323C652.221 120.145 660.146 111.144 666.68 105.403C673.214 99.6619 681.432 99.1709 681.432 99.1709L675.702 119.701C675.702 119.701 668.562 119.455 660.245 128.362C651.928 137.269 636.481 132.813 636.481 132.813L629.848 122.621Z" fill="#E6E5ED"/>
<path d="M634.592 7.05323C624.906 7.18382 616.808 12.1831 614.843 13.2383C612.815 14.3248 610.489 13.139 605.784 12.4495C601.079 11.7547 598.607 15.5159 599.15 22.0979C599.694 28.68 604.994 33.0785 604.994 33.0785C604.994 33.0785 601.184 33.9195 601.032 39.7598C600.886 45.5949 612.271 47.5747 612.271 47.5747C612.271 47.5747 611.827 45.3964 610.635 40.0576C609.448 34.7136 612.219 30.2628 612.219 30.2628C612.219 30.2628 618.455 38.9188 625.685 41.6926C632.914 44.4613 638.314 38.8979 638.314 38.8979L645.246 48.9016C645.246 48.9016 646.626 47.3762 647.07 44.362C647.514 41.3426 648.753 37.5345 650.781 35.9046C652.81 34.2695 656.328 36.7979 656.328 36.7979C656.328 36.7979 657.169 36.2024 658.011 35.1158C658.853 34.0292 659.495 29.1293 657.169 27.8912C654.843 26.6532 651.623 28.189 651.623 28.189C651.623 28.189 651.822 20.4211 650.98 15.4271C650.138 10.4331 645.632 7.26218 635.533 7.0689C635.219 7.05323 634.906 7.048 634.592 7.05323ZM654.65 44.6441C652.81 44.7538 650.583 46.6814 650.583 46.6814L654.942 53.8538C654.942 53.8538 659.893 55.3896 660.734 51.8739C661.576 48.3635 655.831 44.9001 655.831 44.9001C655.481 44.6911 655.073 44.618 654.65 44.6441Z" fill="#2E00FF"/>
<path d="M619.688 299.261C619.86 299.679 624.167 305.174 627.983 316.505C631.799 327.841 632.641 342.844 632.777 347.639C632.918 352.429 635.019 357.747 640.409 352.57C645.798 347.394 649.301 317.414 649.792 314.264C650.284 311.114 651.716 300.969 650.529 297.192C649.337 293.415 632.604 286.102 632.604 286.102C632.604 286.102 623.608 297.124 619.688 299.261Z" fill="white"/>
<path d="M637.196 5.4132C635.288 5.40798 633.233 5.58036 631.033 5.91469C625.11 6.82364 620.165 9.02811 616.579 10.6684C614.786 11.4886 613.317 12.1677 612.36 12.4654C611.89 12.6117 611.56 12.6482 611.466 12.643C610.714 11.6714 609.626 11.2274 608.356 10.9662C606.997 10.6841 605.413 10.6527 603.824 11.008C602.24 11.3632 600.635 12.1102 599.401 13.4475C598.168 14.7848 597.368 16.6915 597.311 19.0631C597.112 26.9982 601.681 31.8668 602.993 33.178C602.381 33.7109 601.728 34.1549 600.771 35.6123C600.091 36.6467 599.49 37.8743 599.334 39.2795C599.171 40.6795 599.532 42.2623 600.625 43.6101C604.179 48.0138 610.41 48.8496 611.843 48.9906C612.062 49.5339 612.292 50.0877 612.543 50.6571C619.161 65.6861 625.946 71.6204 633.327 75.0003C634.66 75.6114 635.915 75.9823 637.086 76.1547C633.38 80.0987 622.224 92.0248 618.769 96.3449C616.459 99.2337 615.073 104.092 613.881 109.551C612.69 115.01 611.801 121.038 610.964 125.964C609.417 135.064 602.794 155.766 602.104 157.919L586.004 152.883L573.019 117.909C572.82 117.366 572.297 117.005 571.717 117.011C571.701 117.011 571.691 117.011 571.675 117.016L494.665 119.952C493.693 119.988 493.071 120.991 493.463 121.879L515.444 171.412C515.648 171.872 516.087 172.185 516.589 172.222L533.682 173.58C531.351 175.387 528.638 178.506 525.841 183.865C519.187 196.627 508.016 221.174 507.195 222.977H510.211C512.245 218.515 522.151 196.883 528.277 185.14C531.623 178.725 534.681 175.983 536.751 174.823C537.702 174.285 538.439 174.086 538.941 174.003L561.388 175.784C558.147 178.605 553.196 184.513 553.693 194.021C553.881 197.562 554.529 201.13 555.622 204.771C550.337 204.594 547.127 201.01 547.127 201.01C546.856 200.707 546.463 200.54 546.061 200.551C545.737 200.561 545.434 200.686 545.193 200.901C544.629 201.402 544.576 202.274 545.083 202.839C545.083 202.839 546.824 204.777 549.867 206.161L540.081 222.977H543.254L552.501 207.086C553.719 207.389 555.068 207.561 556.526 207.514C559.997 217.22 566.568 227.563 576.113 239.583C583.05 248.323 590.666 259.867 596.939 270.409C603.217 280.951 608.184 290.584 609.773 295.155C610.656 297.699 611.686 299.496 613.118 300.603C614.55 301.711 616.401 301.893 618.095 301.366C618.497 301.24 618.9 301.084 619.302 300.896C620.086 302.311 622.292 306.391 624.603 311.599C627.457 318.025 630.301 325.975 630.437 331.549C630.583 337.494 630.431 341.767 630.546 345.189C630.661 348.605 631.053 351.254 632.392 353.657C633.097 354.921 634.049 355.845 635.241 356.18C636.432 356.509 637.661 356.169 638.68 355.516C640.719 354.216 642.397 351.708 643.845 348.506C644.645 346.73 645.559 343.486 646.584 339.281C647.609 335.075 648.691 329.982 649.658 324.837C650.625 319.686 651.482 314.488 652.031 310.058C652.58 305.628 652.852 302.055 652.564 299.783C652.261 297.37 650.803 295.311 648.968 293.551C647.128 291.79 644.859 290.291 642.643 289.053C638.895 286.953 635.424 285.647 634.383 285.276C635.152 283.354 635.502 281.52 635.544 279.885C635.591 278.036 635.267 276.443 634.702 275.194C634.138 273.946 633.374 272.896 632.015 272.655C631.44 272.556 630.661 271.935 629.71 270.373C628.759 268.811 627.713 266.46 626.459 263.529C625.047 260.238 621.55 255.579 617.624 249.895C613.698 244.212 609.37 237.624 606.422 231.047C604.446 226.644 602.878 221.958 601.654 217.659L608.084 222.997H612.376L600.609 213.166C600.567 213.13 600.52 213.093 600.468 213.062C599.48 209.076 598.837 205.753 598.487 203.805C616.113 210.105 647.452 221.289 658.801 225.171C666.961 227.96 679.14 230.285 690.228 230.389C695.774 230.441 701.038 229.945 705.424 228.608C709.81 227.276 713.401 225.061 715.21 221.566C720.907 210.554 717.478 196.455 716.333 192.506C717.128 192.041 718.257 191.304 719.339 190.301C721.279 188.499 723.197 185.568 722.172 182.074C720.463 176.244 717.656 168.951 717.656 168.951C717.598 168.805 717.52 168.675 717.421 168.554C718.163 165.488 718.811 162.004 719.146 158.232C719.721 151.749 719.648 137.817 718.241 123.023C716.846 108.297 714.18 92.8241 709.282 83.0868C708.43 79.9263 706.673 77.1159 703.746 75.0211C700.777 72.895 696.673 71.4898 691.122 70.8316C675.748 69.0137 663.035 64.2234 662.402 63.9831L657.421 55.6302C657.734 55.5466 658.058 55.4421 658.398 55.2958C659.872 54.6638 661.576 53.0966 661.707 50.5421C661.843 47.8936 660.196 45.9451 658.717 44.7541C658.001 44.1795 657.279 43.7459 656.73 43.4481C657.06 42.9466 657.368 42.3825 657.645 41.7399C658.21 40.434 658.22 39.1019 657.86 37.9056C658.283 37.5765 658.79 37.1064 659.245 36.4847C660.238 35.1161 660.965 32.8646 660.066 30.1377C659.585 28.6803 658.659 27.6251 657.593 27.0504C656.527 26.4758 655.392 26.3504 654.389 26.387C653.484 26.4183 653.374 26.5803 652.732 26.7579C652.857 24.9348 652.951 21.7378 652.136 16.096C651.524 11.8386 649.125 8.63632 645.434 6.96469C643.589 6.12887 641.456 5.64305 639.051 5.47589C638.45 5.43932 637.828 5.41843 637.196 5.4132ZM637.18 8.16618C640.071 8.17662 642.46 8.62588 644.305 9.46169C647.253 10.799 648.916 12.9826 649.423 16.4878C650.52 24.1094 649.914 28.2728 649.914 28.2728C649.762 29.3385 650.834 30.1534 651.822 29.725C651.822 29.725 653.134 29.1818 654.488 29.1295C655.167 29.1034 655.81 29.2079 656.291 29.4691C656.772 29.7303 657.164 30.1064 657.457 30.9944C658.1 32.9534 657.619 34.0556 657.023 34.8758C656.835 35.137 656.636 35.3459 656.453 35.5131C656.234 35.2832 655.999 35.0743 655.748 34.8862C654.775 34.1549 653.526 33.7474 652.251 33.7892C650.97 33.831 649.658 34.3273 648.565 35.3982C647.363 36.5735 646.809 38.1877 646.453 39.8593C646.098 41.531 645.962 43.2966 645.863 44.8638C645.805 45.8198 645.742 46.3735 645.68 47.0735C644.739 45.9713 643.672 44.6914 642.543 43.0198C641.472 41.4317 640.714 40.2355 640.254 39.5041C641.069 38.6735 641.493 38.0571 641.493 38.0571C641.916 37.4302 641.749 36.5788 641.121 36.1556C640.494 35.7325 639.642 35.8944 639.219 36.5213C639.219 36.5213 638.022 38.3026 635.549 39.7026C633.076 41.1026 629.47 42.1004 624.368 40.2668C614.284 36.6467 612.026 24.5952 612.026 24.5952C611.905 23.937 611.33 23.4616 610.667 23.4669C610.588 23.4669 610.51 23.4721 610.431 23.4878C609.684 23.6236 609.192 24.334 609.328 25.081C609.328 25.081 609.658 26.9721 610.682 29.5579C610.525 29.793 610.337 30.0959 610.159 30.4773C609.752 31.334 609.318 32.6034 609.119 34.3325C608.8 37.0332 609.051 40.8414 610.766 45.9869C608.612 45.5325 604.843 44.425 602.789 41.881C602.13 41.0661 601.999 40.3661 602.088 39.5773C602.177 38.7884 602.569 37.9108 603.097 37.1116C604.153 35.5079 605.648 34.3012 605.648 34.3012C606.312 33.7788 606.349 32.781 605.721 32.2116C605.721 32.2116 599.888 26.8206 600.081 19.1258C600.128 17.3027 600.672 16.143 601.445 15.302C602.219 14.4662 603.285 13.9385 604.451 13.6773C605.612 13.4162 606.856 13.4423 607.818 13.6408C608.779 13.8445 609.401 14.3303 609.391 14.3147C609.814 14.9624 610.625 15.3333 611.294 15.3751C611.958 15.4221 612.559 15.2759 613.202 15.0773C614.488 14.6751 615.967 13.9699 617.744 13.155C621.299 11.5251 625.983 9.46169 631.472 8.62065C633.531 8.30722 635.444 8.16095 637.18 8.16618ZM612.193 32.8019C614.279 36.6101 617.76 40.8101 623.432 42.8422C629.25 44.9265 633.866 43.7929 636.892 42.0795C637.337 41.8287 637.75 41.5571 638.131 41.2907C638.649 42.1108 639.36 43.2183 640.259 44.5504C641.817 46.8593 643.51 49.3302 644.99 50.5735C645.241 50.7877 645.549 51.0018 646.025 51.0802C646.5 51.1586 647.107 50.9653 647.436 50.6727C648.1 50.0877 648.137 49.5548 648.246 49.0115C648.461 47.925 648.503 46.5563 648.597 45.0257C648.691 43.4951 648.827 41.8392 649.13 40.4235C649.433 39.0131 649.93 37.8899 650.484 37.3519C651.796 36.0668 653.045 36.281 654.096 37.075C655.147 37.869 655.737 39.2325 655.12 40.6586C653.641 44.0854 650.013 45.2817 650.013 45.2817C649.172 45.5481 648.795 46.5302 649.25 47.2929L660.097 65.4667C659.977 67.4048 658.931 80.2241 652.104 90.0241C651.236 91.2673 650.479 91.8367 649.961 92.03C649.443 92.2233 649.104 92.1815 648.56 91.8629C647.467 91.236 646.004 89.1621 644.849 86.639C642.993 82.5957 641.738 77.7375 641.299 75.9092C641.796 75.7629 642.266 75.5696 642.705 75.345C643.411 74.9846 644.033 74.5458 644.582 74.0652L645.899 76.254C646.291 76.9017 647.133 77.1159 647.781 76.7241C648.435 76.3323 648.644 75.4913 648.252 74.8435L646.568 72.0435C646.542 72.0018 646.516 71.96 646.485 71.9182C646.793 71.4794 647.055 71.051 647.285 70.6592C648.231 69.0033 648.67 67.013 648.931 65.3988C649.193 63.7846 649.245 62.5152 649.245 62.5152C649.276 61.7578 648.691 61.1205 647.933 61.0891C647.175 61.0578 646.537 61.6428 646.5 62.4003C646.5 62.4003 646.453 63.5078 646.218 64.96C645.983 66.4122 645.533 68.1831 644.896 69.2958C644.169 70.5704 643.04 72.0801 641.451 72.895C639.862 73.7099 637.765 73.992 634.483 72.4876C627.603 69.3376 621.519 64.1869 615.068 49.5339C611.874 42.278 611.498 37.5086 611.832 34.6355C611.911 33.9146 612.047 33.3034 612.193 32.8019ZM654.849 45.5795C655.152 45.7153 656.067 46.1489 656.997 46.8907C658.121 47.7944 659.036 48.9541 658.963 50.3959C658.884 51.9317 658.184 52.3966 657.316 52.7727C656.783 53.0026 656.265 53.0862 655.925 53.1227L652.355 47.1362C653.066 46.8123 653.955 46.3369 654.849 45.5795ZM626.427 55.2958C626.239 55.3011 626.082 55.3951 625.983 55.5884C625.983 55.5884 623.604 60.9324 624.347 62.2175C625.089 63.5025 627.368 62.813 628.455 60.0391C629.375 57.704 627.441 55.2593 626.427 55.2958ZM662.721 67.0286C666.772 68.4443 677.922 72.0383 690.803 73.5637C696.056 74.1853 699.689 75.4965 702.151 77.257C704.608 79.0174 705.957 81.2114 706.668 83.9278C706.678 83.9644 706.689 84.0062 706.705 84.0428V84.048C706.71 84.0636 706.715 84.0793 706.725 84.095C706.731 84.1107 706.741 84.1316 706.746 84.1472C706.746 84.1525 706.752 84.1525 706.752 84.1525C706.757 84.1629 706.762 84.1733 706.767 84.1838C706.772 84.189 706.772 84.1995 706.778 84.2047C706.783 84.2099 706.783 84.2151 706.783 84.2151C711.357 93.2367 714.127 108.658 715.518 123.284C716.908 137.922 716.961 151.88 716.417 157.992C715.319 170.315 710.808 179.624 710.808 179.624C710.479 180.303 710.761 181.128 711.446 181.457C712.125 181.786 712.946 181.499 713.275 180.82C713.275 180.82 714.734 177.821 716.224 172.963C717.186 175.596 718.545 179.43 719.548 182.847C720.207 185.088 719.041 186.843 717.478 188.295C716.041 189.627 714.661 190.28 714.404 190.406L640.792 179.389L639.82 175.001C639.987 174.541 640.343 173.637 640.907 172.587C641.712 171.093 642.93 169.432 644.253 168.669C644.263 168.664 644.274 168.659 644.284 168.648C656.255 166.449 668.633 164.104 672.298 163.08C675.831 162.092 678.942 161.084 681.822 158.822C684.702 156.56 687.259 153.113 689.904 147.434C693.003 140.774 699.005 126.915 703.62 114.414C703.882 113.704 703.516 112.915 702.805 112.654C702.653 112.596 702.496 112.57 702.334 112.565C701.759 112.56 701.242 112.92 701.038 113.464C699.674 117.152 698.184 120.96 696.689 124.679C694.127 121.08 689.59 119.147 685.607 117.982C682.538 117.084 679.742 116.676 678.257 116.499C679.344 112.225 680.27 108.647 680.662 107.195C682.078 102.002 685.209 95.0912 685.209 95.0912C685.523 94.4017 685.22 93.5867 684.53 93.2733C684.347 93.1897 684.148 93.1479 683.95 93.1532C683.416 93.1584 682.935 93.4718 682.716 93.9524C682.716 93.9524 679.543 100.895 678.022 106.474C676.537 111.917 668.706 143.083 668.565 143.637C665.366 144.634 660.939 146.102 655.267 148.228C652.711 149.184 649.788 150.386 646.767 151.681C645.962 148.688 643.704 141.396 639.375 135.388C634.054 127.991 628.319 119.293 628.319 119.293C628.074 118.917 627.661 118.687 627.211 118.677C626.929 118.667 626.652 118.745 626.417 118.902C625.784 119.319 625.606 120.171 626.025 120.803C626.025 120.803 629.637 126.278 633.808 132.254C633.641 132.426 633.521 132.646 633.463 132.881C633.448 132.928 633.411 133.022 633.369 133.137C633.28 133.372 633.139 133.722 632.967 134.166C632.616 135.049 632.109 136.292 631.498 137.775C630.703 139.719 629.605 142.351 628.576 144.843C626.249 143.349 619.72 139.87 610.217 140.617C611.707 135.315 613.066 130.039 613.683 126.419C614.53 121.446 615.418 115.454 616.579 110.131C617.739 104.802 619.276 100.111 620.928 98.0531C624.08 94.1143 635.199 82.1987 639.025 78.1137C639.673 80.5637 640.813 84.4084 642.36 87.783C643.61 90.5151 645.037 93.0017 647.196 94.2397C648.273 94.8614 649.653 95.0703 650.923 94.6002C652.193 94.13 653.301 93.1114 654.362 91.5912C660.672 82.5174 662.308 71.3435 662.721 67.0286ZM677.572 119.173C678.816 119.309 681.691 119.69 684.833 120.61C689.015 121.832 693.464 124.042 695.121 127.38C695.194 127.531 695.298 127.667 695.424 127.782C692.313 135.352 689.297 142.21 687.405 146.269C684.87 151.718 682.554 154.742 680.118 156.66C677.677 158.577 675.016 159.46 671.55 160.431C668.325 161.335 655 163.884 642.721 166.141C637.326 167.133 632.277 168.042 628.116 168.789C628.163 167.593 627.865 166.439 627.562 165.457C627.352 164.783 627.122 164.187 626.939 163.743C633.923 160.416 647.478 154.074 656.229 150.793C668.497 146.196 675.042 144.619 675.042 144.619C675.779 144.441 676.229 143.699 676.051 142.963C675.905 142.357 675.371 141.928 674.749 141.913C674.629 141.913 674.514 141.923 674.399 141.954C674.399 141.954 673.453 142.184 671.629 142.712C672.157 140.586 674.985 129.36 677.572 119.173ZM570.792 119.779L591.445 175.398L517.629 169.542L496.798 122.6L570.792 119.779ZM635.638 134.86C636.14 135.571 636.647 136.281 637.149 136.981C641.362 142.827 643.563 150.297 644.216 152.778C636.082 156.336 628.304 160.034 624.451 161.889C625.429 159.554 627.007 155.777 629.564 149.623C631.189 145.71 632.815 141.787 634.033 138.815C634.645 137.326 635.152 136.078 635.507 135.184C635.565 135.049 635.591 134.975 635.638 134.86ZM537.363 135.049C537.085 135.049 536.824 135.096 536.605 135.153C535.434 135.472 534.372 136.281 533.327 137.478C531.236 139.86 529.537 144.054 531.628 148.672C533.672 153.175 537.378 154.795 540.619 154.262C543.855 153.729 546.636 151.446 547.681 148.578C548.711 145.752 547.431 143.193 545.533 142.09C544.08 141.244 542.334 141.328 540.844 142.069C540.572 141.855 540.29 141.693 539.819 141.066C539.15 140.178 538.69 139.149 539.088 137.88C539.297 137.216 539.406 136.334 538.737 135.628C538.403 135.273 538.016 135.116 537.64 135.069C537.546 135.054 537.451 135.049 537.363 135.049ZM536.443 138.475C536.38 140.163 536.866 141.704 537.624 142.712C538.601 144.007 539.741 144.765 539.741 144.765C540.311 145.146 541.079 145.047 541.534 144.53C541.999 143.997 543.186 143.893 544.142 144.451C545.099 145.01 545.747 145.841 545.094 147.633C544.456 149.383 542.334 151.195 540.164 151.551C537.995 151.911 535.789 151.222 534.116 147.539C532.501 143.971 533.813 141.066 535.376 139.285C535.815 138.799 536.066 138.731 536.443 138.475ZM613.333 143.245C621.383 143.344 626.338 146.567 627.504 147.413C627.332 147.831 627.201 148.15 627.023 148.568C624.017 155.798 621.445 161.946 621.012 162.986C620.029 162.646 617.676 161.852 614.232 160.844C611.006 159.898 607.551 158.942 604.791 158.572C605.444 156.545 607.316 150.657 609.396 143.443C610.776 143.292 612.094 143.229 613.333 143.245ZM587.216 156.122L598.231 159.569C596.594 160.363 595.031 161.466 593.63 162.521C592.397 163.451 591.325 164.36 590.536 165.06L587.216 156.122ZM709.329 158.697C708.905 158.713 708.508 158.922 708.257 159.266C708.257 159.266 698.278 172.937 684.457 177.231C683.735 177.456 683.328 178.224 683.552 178.945C683.777 179.666 684.546 180.073 685.272 179.848C700.296 175.183 710.479 160.87 710.479 160.87C710.923 160.254 710.782 159.397 710.17 158.953C709.94 158.791 709.668 158.697 709.386 158.697C709.371 158.697 709.35 158.697 709.329 158.697ZM602.768 161.157C604.838 161.225 609.49 162.312 613.458 163.477C617.671 164.71 621.289 165.963 621.32 165.974L621.341 165.979C621.435 166.01 621.534 166.036 621.639 166.047C621.644 166.047 621.649 166.047 621.655 166.047C621.665 166.047 621.675 166.052 621.681 166.052C621.738 166.057 621.79 166.057 621.848 166.057C621.858 166.057 621.869 166.057 621.885 166.052H621.89C621.895 166.052 621.895 166.052 621.9 166.052C621.911 166.052 621.921 166.052 621.926 166.047C621.932 166.047 621.932 166.047 621.937 166.047C621.953 166.047 621.973 166.042 621.989 166.042C622.01 166.036 622.031 166.036 622.052 166.031C622.172 166.01 622.287 165.969 622.397 165.916C622.397 165.916 623.651 165.31 624.462 164.924C624.608 165.284 624.781 165.733 624.937 166.251C625.272 167.342 625.429 168.633 625.288 169.291C621.885 169.897 619.036 170.404 619.036 170.404C618.994 170.414 618.947 170.419 618.905 170.435L593.212 166.371C593.824 165.848 594.503 165.295 595.282 164.704C597.65 162.918 600.677 161.236 602.392 161.157C602.501 161.152 602.627 161.152 602.768 161.157ZM591.979 168.957L637.248 176.113L637.907 179.091L594.462 175.643L591.979 168.957ZM639.558 169.505C639.145 170.106 638.785 170.712 638.476 171.281C638.048 172.08 637.729 172.801 637.494 173.376L627.175 171.746C630.604 171.13 634.958 170.341 639.558 169.505ZM565.538 176.092L639.49 181.959L713.626 193.054C714.577 196.476 717.923 210.361 712.779 220.302C711.435 222.893 708.607 224.774 704.629 225.985C700.651 227.197 695.617 227.699 690.259 227.647C679.538 227.542 667.499 225.244 659.694 222.574C643.777 217.131 586.762 196.695 586.762 196.695C586.051 196.439 585.261 196.81 585.005 197.521C584.749 198.236 585.12 199.02 585.831 199.276C585.831 199.276 589.412 200.556 594.482 202.374C593.129 203.413 590.698 204.604 587.42 203.533C586.699 203.298 585.925 203.69 585.69 204.411C585.455 205.132 585.847 205.905 586.568 206.14C591.189 207.645 594.069 205.926 595.878 204.463C596.37 207.509 598.508 219.994 603.944 232.124C607.018 238.982 611.44 245.685 615.392 251.405C619.344 257.125 622.852 261.978 623.96 264.564C625.225 267.51 626.276 269.918 627.394 271.752C628.508 273.58 629.762 274.991 631.566 275.309C631.398 275.278 631.874 275.487 632.235 276.281C632.596 277.075 632.867 278.292 632.831 279.77C632.752 282.722 631.461 286.708 627.342 290.756C623.019 295.003 619.501 298.023 617.29 298.717C616.181 299.062 615.565 298.984 614.807 298.404C614.054 297.824 613.17 296.508 612.376 294.225C610.604 289.137 605.633 279.603 599.307 268.978C592.982 258.358 585.329 246.745 578.267 237.849C564.336 220.307 557.117 206.689 556.437 193.854C555.773 181.29 565.402 176.176 565.402 176.176C565.455 176.155 565.496 176.124 565.538 176.092ZM633.197 287.716C633.563 287.846 637.347 289.184 641.325 291.409C642.82 292.245 644.315 293.201 645.622 294.23C645.617 294.24 645.617 294.251 645.617 294.261C645.617 294.261 644.179 303.335 642.549 312.796C641.733 317.528 640.871 322.355 640.113 326.184C639.736 328.102 639.381 329.768 639.078 331.032C638.774 332.296 638.45 333.263 638.414 333.341C638.34 333.493 638.293 333.654 638.278 333.816C636.532 334.537 635.141 335.384 634.064 336.225C633.777 336.449 633.51 336.674 633.265 336.893C633.259 335.232 633.249 333.466 633.197 331.445C633.113 328.013 632.203 324.105 630.938 320.214C630.996 320.177 631.027 320.156 631.148 320.093C631.54 319.89 632.235 319.618 633.369 319.487C634.122 319.399 634.666 318.719 634.577 317.967C634.493 317.262 633.887 316.734 633.171 316.755C633.129 316.755 633.092 316.761 633.05 316.766C631.702 316.922 630.719 317.257 630.029 317.596C629.7 316.703 629.36 315.82 629.01 314.943C629.02 314.927 629.025 314.911 629.036 314.896C629.036 314.896 630.829 311.218 635.925 310.69C636.678 310.612 637.227 309.938 637.149 309.186C637.075 308.475 636.474 307.943 635.758 307.958C635.716 307.958 635.68 307.958 635.638 307.964C631.66 308.376 629.13 310.476 627.786 312.007C627.567 311.49 627.342 310.967 627.122 310.466C624.723 305.064 622.444 300.859 621.681 299.485C623.976 297.882 626.417 295.52 629.266 292.72C630.954 291.059 632.24 289.372 633.197 287.716ZM648.037 296.497C649.067 297.699 649.721 298.926 649.872 300.096C650.081 301.731 649.872 305.341 649.334 309.687C648.795 314.028 647.948 319.19 646.992 324.293C646.49 326.963 645.952 329.616 645.413 332.134C643.981 332.27 642.674 332.495 641.482 332.787C641.566 332.448 641.655 332.093 641.754 331.669C642.068 330.343 642.423 328.655 642.81 326.722C643.573 322.852 644.441 318.009 645.262 313.266C646.631 305.273 647.682 298.728 648.037 296.497ZM644.786 334.966C644.498 336.23 644.216 337.457 643.939 338.602C642.93 342.749 641.953 346.056 641.367 347.346C640.045 350.277 638.403 352.424 637.227 353.176C636.642 353.552 636.286 353.584 635.999 353.505C635.711 353.427 635.293 353.155 634.812 352.293C633.777 350.439 633.421 348.334 633.312 345.074C633.27 343.909 633.27 342.546 633.27 341.078C633.312 340.999 633.902 339.84 635.753 338.403C637.509 337.029 640.343 335.53 644.786 334.966Z" fill="#06021C"/>
<path d="M523.564 59.4844C538.659 59.4844 550.899 71.7158 550.899 86.8004C550.899 94.1946 547.899 101.273 542.583 106.418L548.558 116.759L532.75 112.526C529.801 113.579 526.696 114.113 523.568 114.116C508.473 114.116 496.233 101.885 496.233 86.8004C496.229 71.7158 508.469 59.4844 523.564 59.4844Z" fill="white"/>
<path d="M512.712 45C530.226 45 544.428 59.192 544.428 76.6947C544.428 85.2741 540.948 93.4872 534.779 99.4571L541.712 111.456L523.37 106.544C519.948 107.765 516.346 108.385 512.716 108.389C495.202 108.389 481 94.1973 481 76.6947C480.995 59.192 495.197 45 512.712 45Z" fill="#17BD8D"/>
<path d="M531.229 65.5738C529.378 63.7241 526.341 63.7241 524.49 65.5738L510.117 79.9377L503.029 72.8553C501.178 71.0055 498.146 71.0055 496.291 72.8553C494.44 74.7051 494.44 77.7352 496.291 79.5895L506.428 89.7202C508.754 92.0448 512.045 91.484 513.488 90.0413L531.234 72.3081C533.08 70.4538 533.08 67.4236 531.229 65.5738ZM529.55 67.2517C530.5 68.2015 530.5 69.6804 529.55 70.6256L511.805 88.3589C510.764 89.3991 509.139 89.069 508.162 88.0921L497.97 77.9071C497.019 76.9573 497.019 75.4829 497.97 74.5332C498.92 73.5834 500.395 73.5834 501.346 74.5332L509.275 82.4569C509.741 82.9227 510.492 82.9227 510.954 82.4569L526.169 67.2517C527.124 66.302 528.6 66.302 529.55 67.2517Z" fill="white"/>
<rect y="242" width="70" height="22" rx="4" fill="#E6E5ED"/>
<path d="M10.603 257H11.8V254.606H13.132C14.446 254.606 15.229 253.796 15.229 252.653C15.229 251.51 14.446 250.7 13.132 250.7H10.603V257ZM11.8 253.607V251.699H13.078C13.78 251.699 14.068 252.149 14.068 252.653C14.068 253.157 13.78 253.607 13.078 253.607H11.8ZM18.6905 253.391V252.464H18.1595C17.5745 252.464 17.2235 252.689 16.9985 253.265V252.464H15.8915V257H16.9985V254.858C16.9985 253.994 17.2775 253.391 17.9795 253.391H18.6905ZM21.294 257.072C22.671 257.072 23.661 256.082 23.661 254.732C23.661 253.382 22.671 252.392 21.294 252.392C19.908 252.392 18.918 253.382 18.918 254.732C18.918 256.082 19.908 257.072 21.294 257.072ZM21.294 256.118C20.538 256.118 20.034 255.551 20.034 254.732C20.034 253.913 20.538 253.346 21.294 253.346C22.041 253.346 22.545 253.913 22.545 254.732C22.545 255.551 22.041 256.118 21.294 256.118ZM28.7126 252.464H25.9676V252.095C25.9676 251.699 26.2196 251.456 26.6066 251.456H27.2906V250.52H26.4806C25.4996 250.52 24.8606 251.123 24.8606 252.041V252.464H23.9696V253.391H24.8606V257H25.9676V253.391H27.6146V257H28.7126V252.464ZM30.2219 251.096V252.464H29.3309V253.391H30.2219V255.416C30.2219 256.424 30.8699 257 31.8599 257H32.5889V256.064H31.9859C31.5719 256.064 31.3289 255.83 31.3289 255.371V253.391H32.5889V252.464H31.3289V251.096H30.2219ZM39.9246 253.67H38.1156V251.87H37.1706V253.67H35.3706V254.615H37.1706V256.415H38.1156V254.615H39.9246V253.67ZM43.3414 250.7H42.2074C42.1354 251.384 41.8474 251.582 41.3614 251.582H40.9114V252.608H41.4064C41.6674 252.608 42.0364 252.527 42.1534 252.365V257H43.3414V250.7ZM46.7516 250.7H45.6176C45.5456 251.384 45.2576 251.582 44.7716 251.582H44.3216V252.608H44.8166C45.0776 252.608 45.4466 252.527 45.5636 252.365V257H46.7516V250.7ZM50.8547 257H52.0427V255.668H52.8527V254.633H52.0427V250.7H50.7467L47.6327 254.633V255.668H50.8547V257ZM48.8117 254.633L50.8547 252.122V254.633H48.8117ZM54.8405 253.508C55.6505 253.508 56.2085 252.878 56.2085 252.068C56.2085 251.258 55.6505 250.628 54.8405 250.628C54.0305 250.628 53.4725 251.258 53.4725 252.068C53.4725 252.878 54.0305 253.508 54.8405 253.508ZM53.6255 257H54.6065L59.1785 250.7H58.1975L53.6255 257ZM54.8405 252.788C54.4895 252.788 54.2465 252.482 54.2465 252.068C54.2465 251.654 54.4895 251.348 54.8405 251.348C55.2095 251.348 55.4435 251.654 55.4435 252.068C55.4435 252.482 55.2095 252.788 54.8405 252.788ZM57.9725 257.072C58.7825 257.072 59.3405 256.442 59.3405 255.632C59.3405 254.822 58.7825 254.192 57.9725 254.192C57.1625 254.192 56.5955 254.822 56.5955 255.632C56.5955 256.442 57.1625 257.072 57.9725 257.072ZM57.9725 256.352C57.6125 256.352 57.3785 256.046 57.3785 255.632C57.3785 255.218 57.6125 254.912 57.9725 254.912C58.3415 254.912 58.5755 255.218 58.5755 255.632C58.5755 256.046 58.3415 256.352 57.9725 256.352Z" fill="#06021C"/>
<rect x="82" y="242" width="72" height="22" rx="4" fill="#E6E5ED"/>
<path d="M92.603 257H93.8V254.606H95.132C96.446 254.606 97.229 253.796 97.229 252.653C97.229 251.51 96.446 250.7 95.132 250.7H92.603V257ZM93.8 253.607V251.699H95.078C95.78 251.699 96.068 252.149 96.068 252.653C96.068 253.157 95.78 253.607 95.078 253.607H93.8ZM100.69 253.391V252.464H100.159C99.5745 252.464 99.2235 252.689 98.9985 253.265V252.464H97.8915V257H98.9985V254.858C98.9985 253.994 99.2775 253.391 99.9795 253.391H100.69ZM103.294 257.072C104.671 257.072 105.661 256.082 105.661 254.732C105.661 253.382 104.671 252.392 103.294 252.392C101.908 252.392 100.918 253.382 100.918 254.732C100.918 256.082 101.908 257.072 103.294 257.072ZM103.294 256.118C102.538 256.118 102.034 255.551 102.034 254.732C102.034 253.913 102.538 253.346 103.294 253.346C104.041 253.346 104.545 253.913 104.545 254.732C104.545 255.551 104.041 256.118 103.294 256.118ZM110.713 252.464H107.968V252.095C107.968 251.699 108.22 251.456 108.607 251.456H109.291V250.52H108.481C107.5 250.52 106.861 251.123 106.861 252.041V252.464H105.97V253.391H106.861V257H107.968V253.391H109.615V257H110.713V252.464ZM112.222 251.096V252.464H111.331V253.391H112.222V255.416C112.222 256.424 112.87 257 113.86 257H114.589V256.064H113.986C113.572 256.064 113.329 255.83 113.329 255.371V253.391H114.589V252.464H113.329V251.096H112.222ZM121.925 253.67H120.116V251.87H119.171V253.67H117.371V254.615H119.171V256.415H120.116V254.615H121.925V253.67ZM122.965 252.887H124.162C124.144 252.122 124.522 251.609 125.197 251.609C125.809 251.609 126.196 251.987 126.196 252.572C126.196 253.031 125.935 253.391 125.422 253.643L124.414 254.147C123.811 254.444 122.956 255.11 122.956 256.127L122.965 257H127.393V255.965H124.135C124.135 255.578 124.567 255.272 124.927 255.083L125.899 254.597C126.898 254.102 127.393 253.427 127.393 252.581C127.393 251.402 126.493 250.628 125.197 250.628C123.82 250.628 122.938 251.492 122.965 252.887ZM130.474 250.7H129.34C129.268 251.384 128.98 251.582 128.494 251.582H128.044V252.608H128.539C128.8 252.608 129.169 252.527 129.286 252.365V257H130.474V250.7ZM134.577 257H135.765V255.668H136.575V254.633H135.765V250.7H134.469L131.355 254.633V255.668H134.577V257ZM132.534 254.633L134.577 252.122V254.633H132.534ZM138.563 253.508C139.373 253.508 139.931 252.878 139.931 252.068C139.931 251.258 139.373 250.628 138.563 250.628C137.753 250.628 137.195 251.258 137.195 252.068C137.195 252.878 137.753 253.508 138.563 253.508ZM137.348 257H138.329L142.901 250.7H141.92L137.348 257ZM138.563 252.788C138.212 252.788 137.969 252.482 137.969 252.068C137.969 251.654 138.212 251.348 138.563 251.348C138.932 251.348 139.166 251.654 139.166 252.068C139.166 252.482 138.932 252.788 138.563 252.788ZM141.695 257.072C142.505 257.072 143.063 256.442 143.063 255.632C143.063 254.822 142.505 254.192 141.695 254.192C140.885 254.192 140.318 254.822 140.318 255.632C140.318 256.442 140.885 257.072 141.695 257.072ZM141.695 256.352C141.335 256.352 141.101 256.046 141.101 255.632C141.101 255.218 141.335 254.912 141.695 254.912C142.064 254.912 142.298 255.218 142.298 255.632C142.298 256.046 142.064 256.352 141.695 256.352Z" fill="#06021C"/>
<rect x="1" y="79" width="152" height="65" rx="5" fill="white" stroke="#E6E5ED" stroke-width="2"/>
<path d="M14.871 109H16.6V105.542H18.524C20.422 105.542 21.553 104.372 21.553 102.721C21.553 101.07 20.422 99.9 18.524 99.9H14.871V109ZM16.6 104.099V101.343H18.446C19.46 101.343 19.876 101.993 19.876 102.721C19.876 103.449 19.46 104.099 18.446 104.099H16.6ZM26.5529 103.787V102.448H25.7859C24.9409 102.448 24.4339 102.773 24.1089 103.605V102.448H22.5099V109H24.1089V105.906C24.1089 104.658 24.5119 103.787 25.5259 103.787H26.5529ZM30.3136 109.104C32.3026 109.104 33.7326 107.674 33.7326 105.724C33.7326 103.774 32.3026 102.344 30.3136 102.344C28.3116 102.344 26.8816 103.774 26.8816 105.724C26.8816 107.674 28.3116 109.104 30.3136 109.104ZM30.3136 107.726C29.2216 107.726 28.4936 106.907 28.4936 105.724C28.4936 104.541 29.2216 103.722 30.3136 103.722C31.3926 103.722 32.1206 104.541 32.1206 105.724C32.1206 106.907 31.3926 107.726 30.3136 107.726ZM41.0293 102.448H37.0643V101.915C37.0643 101.343 37.4283 100.992 37.9873 100.992H38.9753V99.64H37.8053C36.3883 99.64 35.4653 100.511 35.4653 101.837V102.448H34.1783V103.787H35.4653V109H37.0643V103.787H39.4433V109H41.0293V102.448ZM43.2095 100.472V102.448H41.9225V103.787H43.2095V106.712C43.2095 108.168 44.1455 109 45.5755 109H46.6285V107.648H45.7575C45.1595 107.648 44.8085 107.31 44.8085 106.647V103.787H46.6285V102.448H44.8085V100.472H43.2095Z" fill="#33313E"/>
<rect x="14" y="125" width="126" height="5" rx="2.5" fill="#E6E5ED"/>
<rect x="14" y="125" width="46" height="5" rx="2.5" fill="#17BD8D"/>
<rect x="1" y="161" width="152" height="65" rx="5" fill="white" stroke="#E6E5ED" stroke-width="2"/>
<path d="M14.871 186H16.6V182.542H18.524C20.422 182.542 21.553 181.372 21.553 179.721C21.553 178.07 20.422 176.9 18.524 176.9H14.871V186ZM16.6 181.099V178.343H18.446C19.46 178.343 19.876 178.993 19.876 179.721C19.876 180.449 19.46 181.099 18.446 181.099H16.6ZM26.5529 180.787V179.448H25.7859C24.9409 179.448 24.4339 179.773 24.1089 180.605V179.448H22.5099V186H24.1089V182.906C24.1089 181.658 24.5119 180.787 25.5259 180.787H26.5529ZM30.3136 186.104C32.3026 186.104 33.7326 184.674 33.7326 182.724C33.7326 180.774 32.3026 179.344 30.3136 179.344C28.3116 179.344 26.8816 180.774 26.8816 182.724C26.8816 184.674 28.3116 186.104 30.3136 186.104ZM30.3136 184.726C29.2216 184.726 28.4936 183.907 28.4936 182.724C28.4936 181.541 29.2216 180.722 30.3136 180.722C31.3926 180.722 32.1206 181.541 32.1206 182.724C32.1206 183.907 31.3926 184.726 30.3136 184.726ZM37.5807 186.104C38.3737 186.104 39.1017 185.753 39.4787 185.181V186H41.0647V176.64H39.4787V180.241C39.1017 179.708 38.4127 179.344 37.5547 179.344C35.6177 179.344 34.4607 180.722 34.4607 182.724C34.4607 184.726 35.6177 186.104 37.5807 186.104ZM37.8147 184.726C36.7487 184.726 36.0467 183.933 36.0467 182.724C36.0467 181.515 36.7487 180.722 37.8147 180.722C38.8807 180.722 39.5827 181.515 39.5827 182.724C39.5827 183.933 38.8807 184.726 37.8147 184.726ZM48.4875 179.448H46.8885V183.023C46.8885 183.985 46.2645 184.687 45.3675 184.687C44.5615 184.687 44.0025 184.063 44.0025 183.166V179.448H42.4165V183.504C42.4165 185.038 43.3785 186.104 44.8475 186.104C45.7835 186.104 46.5245 185.701 46.8885 184.986V186H48.4875V179.448ZM52.8961 186.104C54.5861 186.104 55.8601 185.077 56.0681 183.647H54.4561C54.3001 184.297 53.7151 184.726 52.9611 184.726C51.8431 184.726 51.2321 183.868 51.2321 182.724C51.2321 181.58 51.8301 180.722 52.9351 180.722C53.6891 180.722 54.3261 181.19 54.4431 181.84H56.0291C55.8861 180.332 54.5471 179.344 52.8961 179.344C50.8551 179.344 49.5681 180.852 49.5681 182.724C49.5681 184.596 50.8551 186.104 52.8961 186.104ZM57.7837 177.472V179.448H56.4967V180.787H57.7837V183.712C57.7837 185.168 58.7197 186 60.1497 186H61.2027V184.648H60.3317C59.7337 184.648 59.3827 184.31 59.3827 183.647V180.787H61.2027V179.448H59.3827V177.472H57.7837ZM68.2106 186.104C70.2126 186.104 71.6036 185.077 71.6036 183.387C71.6036 179.838 66.6506 181.346 66.6506 179.331C66.6506 178.694 67.2096 178.278 68.1066 178.278C69.0686 178.278 69.6926 178.811 69.7706 179.604H71.4086C71.3306 177.901 70.0306 176.796 68.1066 176.796C66.2606 176.796 64.9736 177.836 64.9736 179.331C64.9736 182.815 69.8616 181.463 69.8616 183.413C69.8616 184.219 69.1856 184.609 68.2106 184.609C67.1186 184.609 66.4426 183.959 66.3516 182.945H64.7006C64.7916 184.856 66.1436 186.104 68.2106 186.104ZM75.3468 179.344C73.6438 179.344 72.5388 180.358 72.4608 181.658H73.8908C73.9168 181.073 74.4238 180.54 75.2688 180.54C76.1138 180.54 76.6078 180.995 76.6078 181.632C76.6078 181.892 76.4518 182.074 76.1268 182.074H74.9178C73.4488 182.074 72.4608 182.867 72.4608 184.141C72.4608 185.272 73.3448 186.104 74.6448 186.104C75.5808 186.104 76.3348 185.675 76.6078 185.025V186H78.1808V181.788C78.1808 180.306 77.0108 179.344 75.3468 179.344ZM75.0218 184.921C74.4238 184.921 74.0078 184.583 74.0078 184.076C74.0078 183.504 74.4628 183.127 75.1388 183.127H76.6078V183.231C76.6078 184.219 76.0228 184.921 75.0218 184.921ZM79.6029 186H81.1889V176.64H79.6029V186ZM87.2221 183.816C87.0531 184.44 86.5201 184.778 85.7011 184.778C84.6871 184.778 84.0111 184.102 83.8941 183.049H88.7301C88.7431 182.919 88.7561 182.724 88.7561 182.503C88.7561 180.943 87.7681 179.344 85.5711 179.344C83.4261 179.344 82.3601 180.969 82.3601 182.698C82.3601 184.414 83.5561 186.104 85.7011 186.104C87.3131 186.104 88.5351 185.207 88.7821 183.816H87.2221ZM85.5711 180.54C86.5201 180.54 87.0921 181.164 87.1571 181.996H83.9331C84.1021 181.008 84.6741 180.54 85.5711 180.54ZM92.1611 186.104C93.6951 186.104 94.6961 185.298 94.6961 184.063C94.6961 181.099 91.0561 182.659 91.0561 181.242C91.0561 180.8 91.4331 180.54 92.0051 180.54C92.5121 180.54 93.0711 180.852 93.1621 181.463H94.6181C94.5531 180.189 93.5001 179.344 91.9661 179.344C90.6141 179.344 89.6131 180.15 89.6131 181.294C89.6131 184.063 93.2011 182.672 93.2011 184.128C93.2011 184.518 92.7851 184.83 92.1611 184.83C91.4461 184.83 90.9651 184.44 90.9001 183.816H89.4441C89.5221 185.22 90.5751 186.104 92.1611 186.104Z" fill="#5D5B70"/>
<path d="M24.602 210.105C24.602 204.842 17.61 207.084 17.61 204.31C17.61 203.531 18.313 202.999 19.434 202.999C20.707 202.999 21.505 203.683 21.6 204.728H24.317C24.26 202.638 22.911 201.156 20.84 200.7V198.99H18.56V200.605C16.337 200.909 14.836 202.353 14.836 204.31C14.836 209.535 21.733 207.54 21.733 210.143C21.733 211.15 20.878 211.682 19.605 211.682C18.199 211.682 17.306 210.827 17.192 209.478H14.456C14.551 211.967 16.128 213.696 18.56 214.076V215.729L20.84 215.748V214.057C23.139 213.677 24.602 212.233 24.602 210.105ZM31.7182 200.7H29.0202C28.8302 202.163 28.1842 202.6 27.0632 202.6H26.1702V205.051H27.1202C27.6902 205.051 28.6022 204.88 28.8492 204.519V214H31.7182V200.7ZM39.1958 200.7H36.4978C36.3078 202.163 35.6618 202.6 34.5408 202.6H33.6478V205.051H34.5978C35.1678 205.051 36.0798 204.88 36.3268 204.519V214H39.1958V200.7ZM46.1413 214.152C49.0293 214.152 51.2143 212.214 51.2143 209.554C51.2143 206.989 49.2953 205.013 46.7303 205.013C45.6283 205.013 44.8873 205.355 44.4313 205.735L44.8303 203.151H50.3213V200.7H42.7213L41.6003 208.395H44.1083C44.5073 207.711 45.1533 207.369 46.1413 207.369C47.4713 207.369 48.3453 208.243 48.3453 209.554C48.3453 210.846 47.4713 211.682 46.1223 211.682C44.9633 211.682 44.2223 211.074 44.0703 210.029H41.3723C41.4863 212.366 43.5193 214.152 46.1413 214.152ZM52.6836 214.646V216.717H53.8426C55.7996 216.717 56.9206 215.558 56.9206 213.696V211.226H54.2796V213.411C54.2796 214.171 53.9946 214.646 53.4056 214.646H52.6836ZM64.1434 214.152C67.0124 214.152 69.1784 212.518 69.1784 210.067C69.1784 208.528 68.3044 207.407 66.9744 206.837C67.9434 206.229 68.6084 205.279 68.6084 204.139C68.6084 202.049 66.7654 200.548 64.1434 200.548C61.5214 200.548 59.6784 202.049 59.6784 204.139C59.6784 205.279 60.3434 206.229 61.2554 206.837C60.0014 207.407 59.0894 208.528 59.0894 210.067C59.0894 212.518 61.2554 214.152 64.1434 214.152ZM64.1434 205.716C63.0224 205.716 62.3194 205.165 62.3194 204.272C62.3194 203.398 63.0224 202.828 64.1434 202.828C65.2454 202.828 65.9674 203.398 65.9674 204.272C65.9674 205.165 65.2454 205.716 64.1434 205.716ZM64.1434 211.701C62.7754 211.701 61.8634 211.055 61.8634 209.991C61.8634 208.927 62.7754 208.262 64.1434 208.262C65.5114 208.262 66.3664 208.927 66.3664 209.991C66.3664 211.055 65.5114 211.701 64.1434 211.701ZM75.7971 214.152C78.4571 214.152 80.7751 212.632 80.7751 210.048C80.7751 208.604 79.9391 207.464 78.6471 206.989C79.5971 206.457 80.2241 205.393 80.2241 204.158C80.2241 202.182 78.2671 200.548 75.6641 200.548C73.2511 200.548 71.0281 202.106 71.0091 204.766H73.7071C73.7261 203.531 74.5241 202.999 75.6071 202.999C76.7091 202.999 77.4691 203.569 77.4691 204.462C77.4691 205.355 76.7851 205.982 75.7401 205.982H74.5241V208.319H75.7971C77.1081 208.319 77.9441 208.946 77.9441 209.972C77.9441 211.036 77.1081 211.682 75.7971 211.682C74.5621 211.682 73.5361 211.055 73.5361 209.801H70.7811C70.7811 212.537 73.0231 214.152 75.7971 214.152ZM88.8713 214H91.7403V211.378H93.2983V208.927H91.7403V200.7H88.6813L82.2023 208.927V211.378H88.8713V214ZM85.0143 208.927L88.8903 204.177V208.927H85.0143ZM94.9649 211.264V214H97.8339V211.264H94.9649ZM104.44 214.152C107.328 214.152 109.513 212.214 109.513 209.554C109.513 206.989 107.594 205.013 105.029 205.013C103.927 205.013 103.186 205.355 102.73 205.735L103.129 203.151H108.62V200.7H101.02L99.8991 208.395H102.407C102.806 207.711 103.452 207.369 104.44 207.369C105.77 207.369 106.644 208.243 106.644 209.554C106.644 210.846 105.77 211.682 104.421 211.682C103.262 211.682 102.521 211.074 102.369 210.029H99.6711C99.7851 212.366 101.818 214.152 104.44 214.152ZM116.055 214.152C118.943 214.152 121.128 212.214 121.128 209.554C121.128 206.989 119.209 205.013 116.644 205.013C115.542 205.013 114.801 205.355 114.345 205.735L114.744 203.151H120.235V200.7H112.635L111.514 208.395H114.022C114.421 207.711 115.067 207.369 116.055 207.369C117.385 207.369 118.259 208.243 118.259 209.554C118.259 210.846 117.385 211.682 116.036 211.682C114.877 211.682 114.136 211.074 113.984 210.029H111.286C111.4 212.366 113.433 214.152 116.055 214.152Z" fill="#06021C"/>
<rect x="1" y="280" width="152" height="65" rx="5" fill="white" stroke="#E6E5ED" stroke-width="2"/>
<path d="M18.979 305.104C21.215 305.104 22.879 303.817 23.061 301.932H21.345C21.189 302.92 20.227 303.609 18.979 303.609C17.393 303.609 16.197 302.517 16.197 300.45C16.197 298.383 17.393 297.278 18.979 297.278C20.201 297.278 21.163 297.967 21.293 298.968H23.087C22.84 297.083 21.176 295.796 18.979 295.796C16.6 295.796 14.468 297.356 14.468 300.45C14.468 303.544 16.561 305.104 18.979 305.104ZM27.2413 305.104C29.2303 305.104 30.6603 303.674 30.6603 301.724C30.6603 299.774 29.2303 298.344 27.2413 298.344C25.2393 298.344 23.8093 299.774 23.8093 301.724C23.8093 303.674 25.2393 305.104 27.2413 305.104ZM27.2413 303.726C26.1493 303.726 25.4213 302.907 25.4213 301.724C25.4213 300.541 26.1493 299.722 27.2413 299.722C28.3203 299.722 29.0483 300.541 29.0483 301.724C29.0483 302.907 28.3203 303.726 27.2413 303.726ZM34.0419 305.104C35.5759 305.104 36.5769 304.298 36.5769 303.063C36.5769 300.099 32.9369 301.659 32.9369 300.242C32.9369 299.8 33.3139 299.54 33.8859 299.54C34.3929 299.54 34.9519 299.852 35.0429 300.463H36.4989C36.4339 299.189 35.3809 298.344 33.8469 298.344C32.4949 298.344 31.4939 299.15 31.4939 300.294C31.4939 303.063 35.0819 301.672 35.0819 303.128C35.0819 303.518 34.6659 303.83 34.0419 303.83C33.3269 303.83 32.8459 303.44 32.7809 302.816H31.3249C31.4029 304.22 32.4559 305.104 34.0419 305.104ZM38.4106 296.472V298.448H37.1236V299.787H38.4106V302.712C38.4106 304.168 39.3466 305 40.7766 305H41.8296V303.648H40.9586C40.3606 303.648 40.0096 303.31 40.0096 302.647V299.787H41.8296V298.448H40.0096V296.472H38.4106ZM48.7726 305.104C50.7616 305.104 52.1916 303.674 52.1916 301.724C52.1916 299.774 50.7616 298.344 48.7726 298.344C46.7706 298.344 45.3406 299.774 45.3406 301.724C45.3406 303.674 46.7706 305.104 48.7726 305.104ZM48.7726 303.726C47.6806 303.726 46.9526 302.907 46.9526 301.724C46.9526 300.541 47.6806 299.722 48.7726 299.722C49.8516 299.722 50.5796 300.541 50.5796 301.724C50.5796 302.907 49.8516 303.726 48.7726 303.726ZM53.9243 305H55.5233V299.787H57.4343V298.448H55.5233V297.915C55.5233 297.343 55.8873 296.992 56.4463 296.992H57.4343V295.64H56.2643C54.8473 295.64 53.9243 296.511 53.9243 297.837V298.448H52.6373V299.787H53.9243V305ZM66.0391 298.448V299.189C65.6621 298.682 64.9471 298.344 64.1281 298.344C62.1781 298.344 61.0341 299.722 61.0341 301.724C61.0341 303.726 62.1781 305.104 64.1541 305.104C64.9731 305.104 65.7271 304.779 66.0521 304.272V305.208C66.0521 305.897 65.5971 306.378 64.9601 306.378H61.9441V307.652H65.1811C66.6501 307.652 67.6381 306.729 67.6381 305.364V298.448H66.0391ZM64.3751 303.726C63.3091 303.726 62.6201 302.933 62.6201 301.724C62.6201 300.515 63.3091 299.722 64.3751 299.722C65.4541 299.722 66.1561 300.515 66.1561 301.724C66.1561 302.933 65.4541 303.726 64.3751 303.726ZM72.2462 305.104C74.2352 305.104 75.6652 303.674 75.6652 301.724C75.6652 299.774 74.2352 298.344 72.2462 298.344C70.2442 298.344 68.8142 299.774 68.8142 301.724C68.8142 303.674 70.2442 305.104 72.2462 305.104ZM72.2462 303.726C71.1542 303.726 70.4262 302.907 70.4262 301.724C70.4262 300.541 71.1542 299.722 72.2462 299.722C73.3252 299.722 74.0532 300.541 74.0532 301.724C74.0532 302.907 73.3252 303.726 72.2462 303.726ZM79.8253 305.104C81.8143 305.104 83.2443 303.674 83.2443 301.724C83.2443 299.774 81.8143 298.344 79.8253 298.344C77.8233 298.344 76.3933 299.774 76.3933 301.724C76.3933 303.674 77.8233 305.104 79.8253 305.104ZM79.8253 303.726C78.7333 303.726 78.0053 302.907 78.0053 301.724C78.0053 300.541 78.7333 299.722 79.8253 299.722C80.9043 299.722 81.6323 300.541 81.6323 301.724C81.6323 302.907 80.9043 303.726 79.8253 303.726ZM87.0924 305.104C87.8854 305.104 88.6134 304.753 88.9904 304.181V305H90.5764V295.64H88.9904V299.241C88.6134 298.708 87.9244 298.344 87.0664 298.344C85.1294 298.344 83.9724 299.722 83.9724 301.724C83.9724 303.726 85.1294 305.104 87.0924 305.104ZM87.3264 303.726C86.2604 303.726 85.5584 302.933 85.5584 301.724C85.5584 300.515 86.2604 299.722 87.3264 299.722C88.3924 299.722 89.0944 300.515 89.0944 301.724C89.0944 302.933 88.3924 303.726 87.3264 303.726ZM94.4589 305.104C95.9929 305.104 96.9939 304.298 96.9939 303.063C96.9939 300.099 93.3539 301.659 93.3539 300.242C93.3539 299.8 93.7309 299.54 94.3029 299.54C94.8099 299.54 95.3689 299.852 95.4599 300.463H96.9159C96.8509 299.189 95.7979 298.344 94.2639 298.344C92.9119 298.344 91.9109 299.15 91.9109 300.294C91.9109 303.063 95.4989 301.672 95.4989 303.128C95.4989 303.518 95.0829 303.83 94.4589 303.83C93.7439 303.83 93.2629 303.44 93.1979 302.816H91.7419C91.8199 304.22 92.8729 305.104 94.4589 305.104Z" fill="#5D5B70"/>
<path d="M24.602 329.105C24.602 323.842 17.61 326.084 17.61 323.31C17.61 322.531 18.313 321.999 19.434 321.999C20.707 321.999 21.505 322.683 21.6 323.728H24.317C24.26 321.638 22.911 320.156 20.84 319.7V317.99H18.56V319.605C16.337 319.909 14.836 321.353 14.836 323.31C14.836 328.535 21.733 326.54 21.733 329.143C21.733 330.15 20.878 330.682 19.605 330.682C18.199 330.682 17.306 329.827 17.192 328.478H14.456C14.551 330.967 16.128 332.696 18.56 333.076V334.729L20.84 334.748V333.057C23.139 332.677 24.602 331.233 24.602 329.105ZM32.7062 333H35.5752V330.378H37.1332V327.927H35.5752V319.7H32.5162L26.0372 327.927V330.378H32.7062V333ZM28.8492 327.927L32.7252 323.177V327.927H28.8492ZM45.175 333H48.044V330.378H49.602V327.927H48.044V319.7H44.985L38.506 327.927V330.378H45.175V333ZM41.318 327.927L45.194 323.177V327.927H41.318ZM50.6796 333.646V335.717H51.8386C53.7956 335.717 54.9166 334.558 54.9166 332.696V330.226H52.2756V332.411C52.2756 333.171 51.9906 333.646 51.4016 333.646H50.6796ZM61.9685 333.152H62.7475C66.0915 333.152 67.6875 330.834 67.6875 326.768V325.913C67.6875 321.866 66.0915 319.548 62.7475 319.548H61.9685C58.6245 319.548 57.0285 321.847 57.0285 325.913V326.768C57.0285 330.834 58.6245 333.152 61.9685 333.152ZM62.1015 330.682C60.8285 330.682 59.8975 329.675 59.8975 327.623V325.058C59.8975 323.006 60.8285 321.999 62.1015 321.999H62.6145C63.8875 321.999 64.8375 323.006 64.8375 325.058V327.623C64.8375 329.675 63.8875 330.682 62.6145 330.682H62.1015ZM74.2146 328.573C75.3356 328.573 76.6086 327.984 77.1596 327.148C77.0456 329.238 75.9246 330.796 74.2906 330.796C73.0936 330.796 72.2196 330.131 72.0486 329.276H69.4076C69.6546 331.423 71.5356 333.152 74.3856 333.152C77.6536 333.152 79.8196 330.473 79.8196 325.97C79.8196 322.36 78.0146 319.548 74.5756 319.548C71.7826 319.548 69.5786 321.524 69.5786 324.089C69.5786 326.616 71.4216 328.573 74.2146 328.573ZM74.5186 321.999C75.7726 321.999 76.6276 322.854 76.6276 324.089C76.6276 325.286 75.7726 326.122 74.5186 326.122C73.2836 326.122 72.4476 325.286 72.4476 324.089C72.4476 322.854 73.2836 321.999 74.5186 321.999ZM85.8351 333.152C88.4951 333.152 90.8131 331.632 90.8131 329.048C90.8131 327.604 89.9771 326.464 88.6851 325.989C89.6351 325.457 90.2621 324.393 90.2621 323.158C90.2621 321.182 88.3051 319.548 85.7021 319.548C83.2891 319.548 81.0661 321.106 81.0471 323.766H83.7451C83.7641 322.531 84.5621 321.999 85.6451 321.999C86.7471 321.999 87.5071 322.569 87.5071 323.462C87.5071 324.355 86.8231 324.982 85.7781 324.982H84.5621V327.319H85.8351C87.1461 327.319 87.9821 327.946 87.9821 328.972C87.9821 330.036 87.1461 330.682 85.8351 330.682C84.6001 330.682 83.5741 330.055 83.5741 328.801H80.8191C80.8191 331.537 83.0611 333.152 85.8351 333.152ZM92.9054 330.264V333H95.7744V330.264H92.9054ZM102.98 333.152C105.64 333.152 107.958 331.632 107.958 329.048C107.958 327.604 107.122 326.464 105.83 325.989C106.78 325.457 107.407 324.393 107.407 323.158C107.407 321.182 105.45 319.548 102.847 319.548C100.434 319.548 98.2107 321.106 98.1917 323.766H100.89C100.909 322.531 101.707 321.999 102.79 321.999C103.892 321.999 104.652 322.569 104.652 323.462C104.652 324.355 103.968 324.982 102.923 324.982H101.707V327.319H102.98C104.291 327.319 105.127 327.946 105.127 328.972C105.127 330.036 104.291 330.682 102.98 330.682C101.745 330.682 100.719 330.055 100.719 328.801H97.9637C97.9637 331.537 100.206 333.152 102.98 333.152ZM109.298 324.431H112.167C112.129 322.911 112.813 321.866 114.124 321.866C115.321 321.866 116.024 322.607 116.024 323.728C116.024 324.621 115.473 325.305 114.504 325.761L112.338 326.844C111.103 327.452 109.336 328.82 109.336 330.891L109.355 333H118.855V330.53H112.186C112.186 329.903 112.965 329.409 113.611 329.067L115.72 328.003C117.848 326.939 118.893 325.533 118.893 323.728C118.893 321.201 116.955 319.548 114.124 319.548C111.16 319.548 109.26 321.391 109.298 324.431Z" fill="#06021C"/>
<g filter="url(#filter0_d_8331_9857)">
<path d="M430.75 149.31C430.75 148.172 429.828 147.25 428.69 147.25H297.706C296.568 147.25 295.646 148.172 295.646 149.31V286.264C295.646 287.464 295.173 288.615 294.329 289.469L289.189 294.67C288.396 295.473 288.396 296.764 289.189 297.566L294.329 302.767C295.173 303.621 295.646 304.773 295.646 305.973V349.69C295.646 350.828 296.568 351.75 297.706 351.75H428.69C429.828 351.75 430.75 350.828 430.75 349.69V149.31Z" fill="white" stroke="#CFE2F3" stroke-width="2.5"/>
<rect x="318.686" y="229.034" width="82.1157" height="7.98347" rx="3" fill="#F4F2F7"/>
<rect x="318.686" y="327.034" width="82.1157" height="7.98347" rx="3" fill="#F4F2F7"/>
<rect x="318.686" y="199.381" width="82.1157" height="7.98347" rx="3" fill="#F4F2F7"/>
<rect x="318.686" y="297.381" width="82.1157" height="7.98347" rx="3" fill="#F4F2F7"/>
<rect x="318.686" y="214.208" width="92.3802" height="7.98347" rx="3" fill="#F4F2F7"/>
<rect x="318.686" y="312.208" width="92.3802" height="7.98347" rx="3" fill="#F4F2F7"/>
<rect x="318.686" y="184.555" width="92.3802" height="7.98347" rx="3" fill="#F4F2F7"/>
<rect x="318.686" y="282.555" width="92.3802" height="7.98347" rx="3" fill="#F4F2F7"/>
<path d="M322.655 170.627C324.068 170.627 325.022 169.889 325.022 168.71C325.022 166.217 321.71 167.279 321.71 165.965C321.71 165.596 322.043 165.344 322.574 165.344C323.177 165.344 323.555 165.668 323.6 166.163H324.887C324.851 164.966 323.933 164.183 322.574 164.183C321.296 164.183 320.396 164.921 320.396 165.965C320.396 168.44 323.663 167.495 323.663 168.728C323.663 169.205 323.258 169.457 322.655 169.457C321.989 169.457 321.566 169.052 321.512 168.413H320.216C320.27 169.754 321.224 170.627 322.655 170.627ZM326.048 170.555H327.299V168.071C327.299 167.486 327.686 167.063 328.235 167.063C328.757 167.063 329.117 167.459 329.117 168.008V170.555H330.368V167.729C330.368 166.685 329.702 165.947 328.685 165.947C328.055 165.947 327.56 166.208 327.299 166.649V164.048H326.048V170.555ZM331.519 164.048V165.371H332.851V164.048H331.519ZM331.555 170.555H332.815V166.019H331.555V170.555ZM334.076 172.391H335.327V170.15C335.57 170.456 336.011 170.627 336.524 170.627C337.829 170.627 338.711 169.7 338.711 168.287C338.711 166.874 337.901 165.947 336.632 165.947C336.047 165.947 335.597 166.163 335.327 166.514V166.019H334.076V172.391ZM336.371 169.547C335.696 169.547 335.255 169.043 335.255 168.287C335.255 167.522 335.696 167.018 336.371 167.018C337.028 167.018 337.478 167.522 337.478 168.287C337.478 169.043 337.028 169.547 336.371 169.547ZM339.662 170.555H340.922V167.981C340.922 167.396 341.255 167.009 341.777 167.009C342.263 167.009 342.569 167.396 342.569 167.981V170.555H343.829V167.981C343.829 167.396 344.162 167.009 344.684 167.009C345.17 167.009 345.485 167.396 345.485 167.981V170.555H346.736V167.585C346.736 166.676 346.097 165.947 345.107 165.947C344.378 165.947 343.811 166.334 343.595 166.775C343.379 166.235 342.92 165.947 342.209 165.947C341.597 165.947 341.165 166.244 340.922 166.658V166.019H339.662V170.555ZM350.954 169.016C350.855 169.403 350.522 169.601 350.018 169.601C349.388 169.601 348.983 169.205 348.893 168.566H352.151C352.16 168.467 352.169 168.332 352.169 168.161C352.169 167.126 351.53 165.947 349.928 165.947C348.389 165.947 347.687 167.126 347.687 168.278C347.687 169.421 348.479 170.627 350.018 170.627C351.134 170.627 351.998 169.997 352.178 169.016H350.954ZM349.928 166.865C350.531 166.865 350.882 167.27 350.918 167.774H348.911C349.019 167.144 349.361 166.865 349.928 166.865ZM353.131 170.555H354.391V168.071C354.391 167.486 354.778 167.063 355.327 167.063C355.849 167.063 356.2 167.459 356.2 168.008V170.555H357.46V167.729C357.46 166.685 356.794 165.947 355.768 165.947C355.147 165.947 354.643 166.208 354.391 166.649V166.019H353.131V170.555ZM359.092 164.678V166.019H358.219V167.063H359.092V168.908C359.092 169.961 359.767 170.555 360.811 170.555H361.558V169.502H360.982C360.577 169.502 360.343 169.295 360.343 168.854V167.063H361.558V166.019H360.343V164.678H359.092ZM364.798 170.555H366.913C368.65 170.555 370.171 169.547 370.171 167.405C370.171 165.254 368.65 164.255 366.913 164.255H364.798V170.555ZM366.148 169.385V165.416H366.778C367.813 165.416 368.803 165.92 368.803 167.405C368.803 168.89 367.813 169.385 366.778 169.385H366.148ZM374.242 169.016C374.143 169.403 373.81 169.601 373.306 169.601C372.676 169.601 372.271 169.205 372.181 168.566H375.439C375.448 168.467 375.457 168.332 375.457 168.161C375.457 167.126 374.818 165.947 373.216 165.947C371.677 165.947 370.975 167.126 370.975 168.278C370.975 169.421 371.767 170.627 373.306 170.627C374.422 170.627 375.286 169.997 375.466 169.016H374.242ZM373.216 166.865C373.819 166.865 374.17 167.27 374.206 167.774H372.199C372.307 167.144 372.649 166.865 373.216 166.865ZM376.915 164.678V166.019H376.042V167.063H376.915V168.908C376.915 169.961 377.59 170.555 378.634 170.555H379.381V169.502H378.805C378.4 169.502 378.166 169.295 378.166 168.854V167.063H379.381V166.019H378.166V164.678H376.915ZM382.129 165.947C380.887 165.947 380.149 166.676 380.095 167.585H381.211C381.229 167.207 381.508 166.865 382.057 166.865C382.57 166.865 382.867 167.126 382.867 167.504C382.867 167.693 382.75 167.837 382.525 167.837H381.76C380.77 167.837 380.104 168.377 380.104 169.268C380.104 170.042 380.707 170.627 381.589 170.627C382.21 170.627 382.714 170.348 382.867 169.925V170.555H384.109V167.639C384.109 166.613 383.272 165.947 382.129 165.947ZM381.904 169.718C381.553 169.718 381.301 169.511 381.301 169.214C381.301 168.863 381.571 168.629 381.949 168.629H382.867V168.692C382.867 169.268 382.516 169.718 381.904 169.718ZM385.202 164.048V165.371H386.534V164.048H385.202ZM385.238 170.555H386.498V166.019H385.238V170.555ZM387.759 170.555H389.01V164.048H387.759V170.555ZM391.925 170.627C392.987 170.627 393.689 170.06 393.689 169.196C393.689 167.144 391.205 168.197 391.205 167.27C391.205 166.982 391.448 166.829 391.799 166.829C392.141 166.829 392.492 167.036 392.546 167.423H393.635C393.59 166.532 392.852 165.947 391.763 165.947C390.836 165.947 390.143 166.514 390.143 167.315C390.143 169.223 392.582 168.314 392.582 169.241C392.582 169.493 392.312 169.682 391.925 169.682C391.457 169.682 391.142 169.43 391.097 169.025H390.017C390.062 170.006 390.818 170.627 391.925 170.627Z" fill="#06021C"/>
<path d="M322.402 267.627C323.212 267.627 323.878 267.213 324.085 266.592V267.555H325.282V265.125C325.282 264.576 324.85 264.108 324.265 264.108H322.555V265.125H323.77C323.923 265.125 324.022 265.224 324.022 265.377C324.022 265.962 323.248 266.529 322.465 266.529C321.421 266.529 320.593 265.71 320.593 264.405C320.593 263.1 321.421 262.344 322.492 262.344C323.302 262.344 323.86 262.785 323.959 263.46H325.3C325.219 262.11 324.085 261.183 322.501 261.183C320.836 261.183 319.306 262.254 319.306 264.405C319.306 266.556 320.791 267.627 322.402 267.627ZM329.477 266.016C329.378 266.403 329.045 266.601 328.541 266.601C327.911 266.601 327.506 266.205 327.416 265.566H330.674C330.683 265.467 330.692 265.332 330.692 265.161C330.692 264.126 330.053 262.947 328.451 262.947C326.912 262.947 326.21 264.126 326.21 265.278C326.21 266.421 327.002 267.627 328.541 267.627C329.657 267.627 330.521 266.997 330.701 266.016H329.477ZM328.451 263.865C329.054 263.865 329.405 264.27 329.441 264.774H327.434C327.542 264.144 327.884 263.865 328.451 263.865ZM331.653 267.555H332.913V265.071C332.913 264.486 333.3 264.063 333.849 264.063C334.371 264.063 334.722 264.459 334.722 265.008V267.555H335.982V264.729C335.982 263.685 335.316 262.947 334.29 262.947C333.669 262.947 333.165 263.208 332.913 263.649V263.019H331.653V267.555ZM340.203 266.016C340.104 266.403 339.771 266.601 339.267 266.601C338.637 266.601 338.232 266.205 338.142 265.566H341.4C341.409 265.467 341.418 265.332 341.418 265.161C341.418 264.126 340.779 262.947 339.177 262.947C337.638 262.947 336.936 264.126 336.936 265.278C336.936 266.421 337.728 267.627 339.267 267.627C340.383 267.627 341.247 266.997 341.427 266.016H340.203ZM339.177 263.865C339.78 263.865 340.131 264.27 340.167 264.774H338.16C338.268 264.144 338.61 263.865 339.177 263.865ZM345.287 264.063V263.019H344.774C344.225 263.019 343.883 263.208 343.64 263.775V263.019H342.38V267.555H343.64V265.35C343.64 264.576 343.919 264.063 344.54 264.063H345.287ZM347.906 262.947C346.664 262.947 345.926 263.676 345.872 264.585H346.988C347.006 264.207 347.285 263.865 347.834 263.865C348.347 263.865 348.644 264.126 348.644 264.504C348.644 264.693 348.527 264.837 348.302 264.837H347.537C346.547 264.837 345.881 265.377 345.881 266.268C345.881 267.042 346.484 267.627 347.366 267.627C347.987 267.627 348.491 267.348 348.644 266.925V267.555H349.886V264.639C349.886 263.613 349.049 262.947 347.906 262.947ZM347.681 266.718C347.33 266.718 347.078 266.511 347.078 266.214C347.078 265.863 347.348 265.629 347.726 265.629H348.644V265.692C348.644 266.268 348.293 266.718 347.681 266.718ZM351.087 267.555H352.338V261.048H351.087V267.555ZM355.891 267.555H357.25V261.255H355.891V267.555ZM358.566 267.555H359.826V265.071C359.826 264.486 360.213 264.063 360.762 264.063C361.284 264.063 361.635 264.459 361.635 265.008V267.555H362.895V264.729C362.895 263.685 362.229 262.947 361.203 262.947C360.582 262.947 360.078 263.208 359.826 263.649V263.019H358.566V267.555ZM364.536 267.555H365.787V264.063H367.083V263.019H365.787V262.686C365.787 262.326 366.03 262.092 366.399 262.092H367.083V261.048H366.228C365.211 261.048 364.536 261.669 364.536 262.614V263.019H363.663V264.063H364.536V267.555ZM369.923 267.627C371.318 267.627 372.317 266.637 372.317 265.287C372.317 263.937 371.318 262.947 369.923 262.947C368.528 262.947 367.529 263.937 367.529 265.287C367.529 266.637 368.528 267.627 369.923 267.627ZM369.923 266.547C369.248 266.547 368.789 266.034 368.789 265.287C368.789 264.531 369.248 264.018 369.923 264.018C370.598 264.018 371.057 264.531 371.057 265.287C371.057 266.034 370.598 266.547 369.923 266.547Z" fill="#06021C"/>
</g>
<defs>
<filter id="filter0_d_8331_9857" x="253.344" y="132" width="212.656" height="275" filterUnits="userSpaceOnUse" color-interpolation-filters="sRGB">
<feFlood flood-opacity="0" result="BackgroundImageFix"/>
<feColorMatrix in="SourceAlpha" type="matrix" values="0 0 0 0 0 0 0 0 0 0 0 0 0 0 0 0 0 0 127 0" result="hardAlpha"/>
<feOffset dy="20"/>
<feGaussianBlur stdDeviation="17"/>
<feComposite in2="hardAlpha" operator="out"/>
<feColorMatrix type="matrix" values="0 0 0 0 0 0 0 0 0 0 0 0 0 0 0 0 0 0 0.07 0"/>
<feBlend mode="normal" in2="BackgroundImageFix" result="effect1_dropShadow_8331_9857"/>
<feBlend mode="normal" in="SourceGraphic" in2="effect1_dropShadow_8331_9857" result="shape"/>
</filter>
</defs>
</svg>
